<mxfile host="app.diagrams.net" agent="Mozilla/5.0 (X11; Linux x86_64) AppleWebKit/537.36 (KHTML, like Gecko) Chrome/135.0.0.0 Safari/537.36" version="28.2.5">
  <diagram name="PÃ¡gina-1" id="tPSL-h0SuOt8cxHYqFXh">
    <mxGraphModel dx="755" dy="578" grid="1" gridSize="10" guides="1" tooltips="1" connect="1" arrows="1" fold="1" page="1" pageScale="1" pageWidth="15747" pageHeight="3936" math="0" shadow="0">
      <root>
        <mxCell id="0" />
        <mxCell id="1" parent="0" />
        <mxCell id="eRDI14SPy6lEhacDje8o-1" value="" style="rounded=1;whiteSpace=wrap;html=1;strokeColor=#6c8ebf;strokeWidth=4;fillColor=#dae8fc;fontSize=16;" vertex="1" parent="1">
          <mxGeometry x="1190" y="730" width="990" height="500" as="geometry" />
        </mxCell>
        <mxCell id="eRDI14SPy6lEhacDje8o-2" value="" style="shape=image;verticalLabelPosition=bottom;labelBackgroundColor=default;verticalAlign=top;aspect=fixed;imageAspect=0;image=data:image/png,iVBORw0KGgoAAAANSUhEUgAAAZAAAAGQCAIAAAAP3aGbAACAAElEQVR4nOz9X6+tWXYehI8x164qt9v+OXHrR0TcUUIUJyjmAgcECUKRkEACwS0S3wKJC7jjgq8C3yDiCgnlBpE/t2BbCRiIJUin28G43V1V5+w1B1pzjufPfPduK6TrHHdX7WV3nXP2Xutd7zv/jPGMZzxjzKfn5+eIqIqMzKxZEREZFZn1+Gnm+nWtPzMyoqLy8b9cPx2Pv65PVGU8fvH4x/5f8Y91vXj8el07YlTM9bGc69qPX1RWzqx83EfM9YncV4/9veu13lnrC9cb7Sv2/fXX1H6SdUcVY0TtS9qrb3h/cN/avhe8q+p8lvV0gcfsr3vc4Owh06fWJx9foMGr40p7/PjTNdrBS/RbK0auGxxr3NcHeigyOJjRI7S+Es+9/m7XGo+7xDgWvnN/YfFaj8GfMR/TmxztuMxCZf+vvwc39BiGxKhVP9leHbnvXhflHKxnfjwoZrhw7T18/Wj9ofkYkcTE7KfNHOtRS/fzWECh2d4Xzh7yHq/12b2Gaqx56JELW1D8M7PHukckOY29GPqSaV/6WND7+XoRYIkUV4cNRflvkyOBi+qhsWL518f39FMX13Xu1VzH8K1Lc8gzLr8Nfkvtlb3uv3dHcBvb+8Om0p7Cvo3PGVgj/UjhK3eP0BhVcz0MxiC1E/Ynxr6/NkvxWA1rdPbyH7lnMEeuFQWr0APx+M0c2CGPh13/7bvM9anoa2LXYKOvmViXG9mXyvVko43eGpCZNqpaQ/uWHjeRQRMZObDg1mLc81z7fmr22lzv7f/f/1z3jIV+DuPjlsa66uPO82Fms3/R/1tjun42OC39MNiCY7+xpyj7c7lHjAumRuIxabP2EyV/OrI/lak73L+pbc/2s64VU1hOvgu2iSrM8Og1N/BAucd84PoclVG83f14qWktN5j7j7ZSuRfv3k+5V5BuHLMBs4AH3U+avQAzef2KuD3eM6PtS+7VChezltJ68uX12vD1VZeH5Q3Ung98ZWEKHuYam2Pk6GWSAbP02MI19wLebxuVhQU18Ex7cDlV64keXhODuEZmuM+r4L6D/V9fvx+yJ23/8rEkR7sjzQoW1QNExJqwsce+ejdyfaeGAWsuNSt7HY7Y18DQZ2iJbO/XiwZb8zFovdq1kLHRiWLwp982b2U8bNbeTI/d3UZmlG718cvn98/tyOpqLAkVsO62H2sP08Y4zXjvFVbYKm1Og74e/vdwFBFyrmYsJjHEtlB0YwYsCuasGm0V53Q7naIltvvkppqRh4cL+4g+BU+Ci/BicJB4JsNcAiRxdU1yjn2J6191n7odwDutsPYSe6hwi3kdwQZy8KrbGMGHBmFxX2SUgEC0s22zUPR49uCnfy6bUYJAOZ8DcB8+M4SO19v3hzkihauPyzDZF+/henx2EBzQVhXB2rm8uV60IANG7bIfYAc58aMaru6VmQeiyMR6r2MNAJIdi70dCRY8J2xdeZbWbRyRznnbMRrCHiGEpqcanPSdahh9+WO2Ro9/YLWHbX98fWGW8NW2+jYqLJi3Cu12A1vbZ+QxRIYiI4QDNQmNAjaApz0C9C34lwr4b1nI1PwdUHp9bP+g+n4nhm//Om0Lm0Hgd/TQy9wcz2xPVcloBuCl93APjNB93459zaS3yQ2b6E36+3ZkuqAZwiBgwyIkw/roDaw5qzax1QHFKIY/st98CvOt/E0K4WB8R1uFmtqrpWdYjroKe1fesyxWoEUIwa8sDo+gYxEv76dNIaN+sOJQMXpqqOlu261VmRVpByMzv3fTuREbqT1itrIt3iNS/oMmJhKGRwsdkFb7uCem2mIT6XFR9k3YkuAz7QnUgFTSwI1+NFkrrt0VToipKJlIrEkG2MDHE8vpQF2Ml22MLZqtMHSwv7Ld+gKG5f5EjxaM+hgN+til4Q3cytwESsn+Yl56Fvebp6JBWcjUte0Z074/gVHaaPa1H64iELgxRsI8YAdnnT5hGytzdXuEYSfwoz0EVUM/YuBoy1mYXYtBAzWDlgDbN8/P7nc+FnQhxNvY3LFnVo8gDS7GZT/Y5N87CqAxqGE7D44+DV5kL4m0eLLtOUD+qCNUkhHpwUzi6bI4pbSaabdz7MhlXzZ6h3C2R3GMUpO6opHeZZpDM8C5193U8IfB9RMFIRDpOKl/g+jGYhf5yTWKnHPQlblhMLihlMMpMxe9IHsAGyjkxRYmfOjAFLeLgcPg1GMPbC7hEf7lGCsY315Vzl8mMy6ojhtMEZlh4Dj4GhIlcHGAHPAgpCdqj+iCWni/ASuzl4gz98KrvKym3hH9ECtmjQTV02Rfh6NcOGU8U8Mv8haRsjapN+xZePzg/pjFtSuM4WwyA+in18wA95RumWRA9zrt61RTWZvAGwhg8v3zM+lYQN/KY+ZT6KQXe7slMYHCOWa9N55MLb97FfbyoEFsuDTgZmrFr026i/beZntENoExHtjH7Fd4pGnEZ9/hGcNYMHH+XH8x7BoWs5URjSmW00Zv2HpXXkCk61qS1cMQtRdR6es7o8HHQn5hMOLCmJAjNetZE99okSpCyzqsTuHnGqyQz0bMf75652CFXGh0Bm8r9qjNohxj/ni82Uv6MGl8y/JSQ3azA528jD1CazxhweNuguk6a/B3tVM861a4BBmVVJ6BOf4c2ZmVy1IZIbxzhgT+h7ZTz4It6STsrpXpaPY//IqNoROb9BzuuHAXhNpEVnKsTES5GXlEt72+ZhyWGdmI5VgqjuD0lZmz9EAyYuYSIQYHewAeu/g3LOTSci/Ghfj2kT7Asy0SMT+48NBSWUBQVoJ0TgajkQLxiX2M8QPzx8Bww5BiaIcbiRVEidnGL2ZcwgEOwRFpEqSeURXWpUjHS5D0gmwJYOzt/nDB0XHw/mFuPxaOY+jwmpBNmqAK2QgZBURKAUIc4RG9LdG2fdr5IUCf7U0650jHHx5SFaDiyFT+J4RXEL7v31iEKB+uFHLo/vc4VSUfHlaRkVHWAUYD8V4J8maHihaWFNALgInTIzCx1d8supMosWyEtpsoraD0BEXZVVMIQwlihm/VoRFGQDg4mGOpzmwYt4dYsiz0QgK4cladQK+UKPNITs9d2rMIzx+zD8Ic89ELEia60zfJSNSiIzzRbHdRJPYOa2X0jieOyxZTNZZTtp07QvC5b6rjo+IU1TGwuLFRtpst8q+m+4mLtcBSWG7nzkhZdR4ox9hDsEHWbH86gVaF5Q+EmDv8AvqsFD2wKKEN+W+dBjO2Zb+1N1A6UDegNeTTMs/IKYnEGJ4KAieSpYvxG9gdnLw22M1qIxW4vk7rTkl742ncFicJfJFphQRVB+G4+9oxL7YnJiVTWc8YHR52lnFfZiQZVEs7DRK/DBDI0eH2Cgtq8yLYx7ZvEoylXQixf+eBNSe9l7cLqDG2PIbrl4F8JOjswXRaBpM/uaOd/bGR4f9nFlp04PYrO78lSg75uM6PR8m6bp8eQuSVIkPTo7ad4iLdhxBfyzt587ETH4PxfCJcffxm4LKiQczrp5xCAFsRn3TS9LF1R85EzNqUgG9b51b6ASb5FEzDyFtgxdkqSIEzOClFGIzWewu3rUtklKszjPAxe+EotDfmcYNNxO/CAO/fv+dNpEVJr7xgRWcGwgZFTonwJ9xl605qaYpaFcX9m5VlYoCyGKTfrzRFhWHpM9DQ3SOEDTcojF5LqMoyFD26nddQukTwtcjj95JJCoGQ2jrip8dvRy6oTTYbpFYFky/BJVL8Cy1lnMFFq71OlpFr8siEMp6D8qeOtB9vdYt8tjpkz/yMObZEIuIa5hMjr4ea5l17SjlZhCxMqioy3PnbI/a6BhqICpRyjThjSwv2/FMBoiCrc+SKCszyvvJ1L26jbO1ofCIpqVhRD+VRGuYD9sUBLiR607fII1ON6O/wm7cFprWOvGLCuvoCOFZQCd+VHmqa0LCNoSJHESMNCDNspSnk1TLman19kC2Gjev8n3ly17Mdb2oxRaWhMUHPOrYWrTzFJQnIuhf9tMxR+XLDZK9oOcRLlvJXCGKCHOfCZBVnQFOtryyLW3rECkFFlqPnsDHQhCqgUKINJGH/FwZlHtrA6tTWgOywrzHpYUarO+mEsrlR5mGrPCbC4uBf0m7LlAIFD4T8Y05AbISOuByhNjIJyLrSmCTy/DuBsoPesscn/oVH6QBmdojMaa4EIeBbfzAK1MJL+mfGu8RUNhjH6OM2ACuYJxb91NPSl6RGV5wDl1SZlBYXz/7hQdmVebu9K2ZZ+BYiArjW44hzQSeVz+j6dWtNaBkS3MIIQ00IkPR4EkowQC/8u2p0JFkEFcHHAg0dincZlPLuaKbMH1a4XhTiBcb+7nFTJqngci25f0TJjs32btgevx1Z2Q3b5ggk3Ud/8gxyiB7oHWUE8NTH7PLzWYKxdA2TxqFVytOyDuHIuEIZlIBgl6k4e3eK0EllB7mnCY5oqYZyEGXhQBz5RwsouIUsadC3U53d2kO9gZPtudHjDhvCjE+CoUrbisF0GINFcGVBSvxwuUoeckrIdeywFIua702iz3C/DfmD7kdenzdQ1P2lcUJGFK7o01FZMNefpicPuTtdpWy6MXs758XctCkyKIINZoWQF/JsluegqBXuyc8DRrXQKS/sIIcca2lm2krgxwncIg1ep92u3tkGfxgtC3u2/juRHut7mOlbI7nviY5LaO4yP72c8jCjJVYbQQPiV0afe76r3Vn2t+GWErAmHYRo0Pu+3D9VpCeULjkcT0UyvZoyZxzoUtxUo7az6BU63cMNDP9ojqWGXWTYhnoAi4WVh+ddOndKXgdp5YXXQ2zwASlKgRiiRQetWMLQTiUFafBKzXFaUGi5+rg4dLiQOY1XQyagt29LzrSJkIBGhjkPi9JsQklxY9Nkt2TAtRPUN3qI7BU2JESyApD934EQdf9ycBuhEgGMXklcb2rqhNsvbrAlcxnCuQfS6OnUroUegaMRHA46x2qaqeHCxObpi4+S2LtzGiA2NnJLgzDyC8Aag3GqxRKhvZS0Nb6tyzzfrmLIYsQrPxctlqFLzrzgwQ7TNtc79OF0O6n8pTap8jCWiVm/HzmwZsa5XDc/vIVPCRPcqCl3eQgsT2ILudteFGZvarst6gSTmcbEeoyIA0aetrmDS4LmCgIG2OzWjmTrbdqIcHkU1DyGpQomQ96M9TNLz5O5agldI473lxgm3lrsKC0PtXTE4XkU9OFXo/2sAu3gUOUFhfpOjmOlGZgna6NxKrcH52evql4nLQZDRW73NCBeFg2q5MzvCncyAL+TZVqHsTV5LsC+0e9Kvx9VB/yvgYQwzfCLR4zLIDKnTA7HqgdH/8AhZfW+OFk5Z4CQ+9et5paaaGhFWRX840A+SoOZqO7MUNZcCenLMtKvq+tQZUsRDEZXoTVZKnQtYzHroN5wVQ13vrLy+ltEwsox4etnUNUbaQbBp8ZXDlKpY2uYDpbg5Ht6VsBgd3FplkVlcFtT3GqeK0HbxndRHH8vW02N9QZp3xBOMOoXmE3E60uecaklzjUGjJytTHKsyLclJlmbcH3xqBKf1l4OdjCNtSQoPdiwFFw3EspEsxR852KDPK4Nu7VNqb8op4tQQEtRNVnqdlKtIr8GJQ1nUb0Tho2F2inR0v+XDSso+PbyHXwwoqzQspAjLzJH4bxJHhywqTN5KUuW858hubytwk1aU24u3LF3vnzrogG79oD1A9WeekaYuIxfRLHuBpRb80ZQRv5x8BGQ93aez2Z614WJ0unatl3lSpFAcC8lWJCKKw2+QnHMaYWRLo/Pmb5LP+xLVSk6qVBUU1yAka68wx0J4sP+tGpAIyZDmgUQYROWYlkx0kkGMVqCouiL3za4QMCIwIsQSmm7Ge69bK/jkcgCnDXMcWw5pM5SyhiimLB6zLLQSUSR/ydFDABQ0aVVPaKahppryYm9LVy8MU05Wl1Z1NFMzK7+3Axggppl3jVYfJAH44alfFQrVMa9yPvuDTao4GnH19Hr6NsdxCKD+G0025eZJ9uiWuIegtQPUgYB/iADxHgqsVEIIhUOhj2CVkAXWo8ui+lfYL62eZ9I8BJ49zOOJAA+IgRzLC0OhhSleH3Sa7PZ1KURYE2hhZC9FxUGAJAPChvaxJszY0icrC0ImfjegDlgLWQWI+aoS4G1HL6n5UNBQjs9BhtnrqjV83yQOkqrOSXOG6dfzpJDqS/ciCSsvEQzhuLqw07CdSdHH1JXVCpVMu9E7gjTUUVWbf16MPECeNJcatcGyIue+rQUoYm5TJsjJDpgOsbkKA2a2UofDPJztdfm5GDAGx1KLChAemPuR+nB21fau3WDApqhruMjmcSBGrV1NsAHaUsxoRbqLThENCcfpHC198/PDkVLaJYFxdcUEAs+L5WohWYuaaRtOGyXBzCGhEFCJ9SlGWC1WaPH1Gg26yvMr3hprYyRDHZsf/TlXTV4gbF4FCkq/Q7lakK52JAmn/48PYirowZ79dCZTiweFcLXL2Xo/EqnHXtlvHjeeQLVq9hTJAbsBInnojBiiZ0AofKVyuOAharBJDl+uTxPzfOmiTvj1WvZFBi1br8mQ/Fa4EO5BFvdMDzftgtVqAFlNX+HGhAu1VrCtemyxT3niF5D7vO6yuMAPLbsi0VbsWs5KIFDubAEM702GALQHlOSDpLilSBSe9kYXD1sevMCv/vLRGgBkwutQ72BsDYhyzjogxAwvRQJSCG8q/ek1xWg2M85jCgocrVlObnqdzLjVsesJLKsx+rNRl/Zj1ZlivI6w4iSGKwfYkATF0zJRPsdplFTcUZtmhyuG980kVRFLncSXGVxaT9CkU6oQmF8fbUvL8ZKhS0dJ8purS1jIFcPKBntib4qtkhiMNLwp/TdPTQpNAHYGr4l6rhszzoCUN6n+FVCd9cHgCmqLFs3/XVAFmH+V+GShRt1aB2iA1KjGU81iSImJoWEJto349uOAv7AlsHNCFttUmjfQFfR4A4zDWMV/62bSyrkfP5UfkwaQouW5LmCrbhCzmIvgITXrJ6ukiuO8ExnKw7ZfYlUAfdHnHuyV1SpRwSSGutK00LkTisXaEPPj9jQ40lSU0TugE6C+TEUVc9jas1ZcEZL6zpCuFgENKHUlqSXd2Dpt4zsotojVLCqWsviOTJzrH5AbosxqEDDqpiXxGYBRRtZkMweQvsIS/AIhm5sqTR2ufO+qQH4Dvy9F+A4w+a1iEaqqRUiIa1FZrmpgVgduhC8ymcxHcuL3QDjN5vIpk694jH1N0Iq7vyH24CUe1t+MhctWG/nO0pjxKsnXVreUIaYO/3bmoRRvIcuhB3dWquunjzlchDkYNcdZQoZrDcAt4J4tHbPKq5vgNJMj/+2X97tpaA/SMwTc5F7zkacAqr0TmYK/2M3sUjoJTQ29FosZbdVoVTo7qJmiCqko+B9Hw/ROW/L+Nm+6WqRJC0kUMfFGmJugjZrhY2r4HfsHT0QgQmsDhoghLVYsaiJ70Qxu8YFg84Mq1YtdAFh6NoVJ4MinrBYsWakZS6PdPdevJ3n3A8QJJ25cWC4RsSNxu1I5WLwbONgdYzI5+dnvmdQUnMGAA0kV31k1y/3mhqSTnnOoszcIaJLC4vO+uS6CAWL4BnIPs3TCn55qOCxpwFIq2qxWtcKk8li0Uy7Z3rRkmLcHwdZz6IeSb5gWCeqEKtsSbdOkiOarZUaLx86j7ePwKnJ1pkGMZSZJPrOrhO//LDO0TkgcsSLf6v1GyKmsqZKcXhamhJ5ZmYfNC+iMHuzUpOyg4rBEqRLsIzZYPCauMOywvbLSjyjMZrQS8jjqw4ShzSGSo/QuEeJ/E6DWcfJY/Ez8DRepSgFCk8OBAuefD36t+vOj4DYwrWgymAmi3sbs806Mm7pdxi+zTO0t5IQWSGkouQRJgapA8hT3dFpgtmxyGYYBBiZPAqfFsTG+PdqMluY2tGfZn/jzmPwx7hWujHo7FSvXTlSLOMRHXeBvcmO+iio9nwcpUcA6YgdhswtbDRNR3XUQyNQ6XkbTXxn+KiyvFDEtlrK2CfGbHssKhnd0HJit5p+k3ugq2IKSjN814KyZxM25eApXeGeD89EA14dRqfkwiqsI11scbYwNm9LOcwKCl0YJbiuA40bWxJlYi9kV4TxkEBsJFzRLVQ3tW2kJCIjqzRJpIVMl8eNoyEt0vGBhQl0m1gBNq+hKonE88IQlcUeWBXgRjFaxc1D6yywFNKgmfEALOsUrkOuriJwIfCkpU9giL6w9o1VwdDzWtU0JortFBDKDb0DiCGZ7WUIUQgSSlMaodXe9EGGFZruHj476i4D0rwrMkvdQW9aIBq7e86sww7zi9GzIdP6YNCkbXs+kGHjlpKaIVVNLGUREoL963SQjLA+Z2tN928GY+Wu9a+z5JFwuIQPk7G/rchI6vdO7I2r88mL8H2NMLb/0IJGpi0zDBOn0mahKMd+AD2mArKtlt2SP8SyqM+jFK+9kxJICGjIEUPTyRBT9DCNQ1LmoWvgMRaG3wFUZnrmavfw5YJMJjJHshQVZbslu4LGjey+ULsZ9sCmwiIc5MM6DbanbQRJvt0tZNTR8T8H/vJwJsOjTDTVK6YKdzk9JRvIv3WgONqBCrYo9RXdc7vXuq0dbhKXVo+yqm8GVErsaa2n8C8QgRZKIsHYxqeGxjUdNoMfLCEu2nk1Y+pvsdp+DHMvmd0wXOHnTMmbB5VVdmABAvGylX36c/Ieg5ZrbLyD4LJ3iIro8XAJHupxMzfaxz1kA4u2+yhZqHPsaCSNRo6kxYnM5/fPtP+J4uQjk5ShIG3S2O+gZqB/U3SWhtFSHMWSAusVgo3tRSSaBcm4q1cTHd2NezyDz9Y5btAbFF/TxVbGkaiPsx+zFUzb55TdM0DpoDviRRSCiGC1gFIOh0UkZSGXpRRio3cMnQVQ+zyOOGbCSkLLg5/L3fLRUMHPk0U8AuoqAfPKqVFra740HJnKyjHN5F+VvEC9KOXjezoORz6nam4WUqaOPnet6aneGUUPxssUahxSz7uvPyxA9ZWAoTct7BZtFloGEZynZTQR6iC6Q/tgZrlFb3Nq/ByTc7XK6yj4ghnCASGa85M3ibASXN2QkxqMkXnrfKRheDZ6B8+uQbfau3w5sy7EFcNghESfQ2MswVBOwCGyh5wIZDlwJbhVKcPjC7qffBssbU3f7gCPXKS0PcT4erut+mTMfWjADwc4TWBcl4gTSCYh0PPNzAWZoZLfeEGNXZijy/rWNtiD14fSAIA/PnmL8KxkD0ZBPtW3s+1TiHnp1Qeacy3gwQNyaGLK5tM4InkIQT6AqhmnuefT9C6i+lkt4w5Rio1PhRZ22CaoPDQbXN9nBKKsWbl2ZyeMyu7focS5FXDpaR4xRAAN6kpPy1cXd9LblvxW6pJMbKjQYQ9mhewOb2mGt6p5ccNlPTnatSrzUh3cGYmLyc/rpZwWK/P18uUcG5aaXLfmZSQxYsBIcsimeheQOmj03bHhOkunil+b00iqFz7ysFfOsR2rIULN/S4OVpzvdaWURnd5mExg6tByLmV6ZZqYW2NKJGn2OwBMUl8JZxNHQvFAMNmLoS89+H2dnphbd48cCPI9lR1xtCdjihPsSQCk6xuCYH2oABq5ptJxEvJmU35iG2mhYLDf7W06Dq4+e6aDisHYuqAXSO1OguJ9m1ShdvqH62D2Vp7JR8h+7pGn09j0AqV6PU9V9hFFjxLpVqhpdZ+OYzPeq0lS2/DNV04b4fm0eVVZ3+vu4uQwnwF7gmecUMMPXzrdsCFwzFJ3c8MV98U7JAJRmiK6+ha7udkJOZ8yiUoDi0a6LNxYzzSeNhiiD+NGdszMQbE1xChfEuwuJ8B0g2tSaEkSjITHkPikCmXyE48P5FBBvgYIcnctZrgAl5Im/wyGox2PG+dGC0TfoGeCfdtNvHGUkWyOrBUGuOtk+bY9RbNEqzTtMLUO19p+XsLRMlPC4KwiIi4W/nQRXSmkImS31Yrz7Ii6dKQWPg6hzMhZ4334aRbHMjywmxOqlIapL0GfenSCZYjjeUA6qcOn4cF763a25AgcjzggrIvw4eaCmVMD0i9QE0ex+UNy4QyMssdejagwQ7tlmYF4AdIl5ByWL/TY0gFgHiEw99hF8cmLlDjIAz2kxPceNMnAYAGnSEtmsbCiFHALI3ToqR7NdZa55VlvqLk5qlLU9/iCOC/h9nWWjwVjm7JEx1IVej54IHUWup2+0GRfIifZrmFHeGgWGYcauF7p8nx9EMQuM21ftASgb34nzLkLtPQ4pRn6btSh+CNesN7xyuuP2dODT1VHI7ljweXz8/1YliWzy8SjDR9hsFmwK+kV4pvigIx8Oz9C2UCIelhEhJfTVpiINmgx5EvaUTNtd85o7xXjX7BLGSWRGxim/cNFjsf1p66DNCOhFcEgVB7ogNtOgeWp4repMOsuXMoPnu5BJEgHEmIPQKLxYZl9Ed9oW0c3bAJ8t5nwf6U6xAY5ck1e70Azhja0cKkPmx/KBuE1xnhllX/zXoUSNlKx68eYreKpnRXKFPfLkIdpIJJln7T5gloyPY0+jgXGIDPFKYRgU+5TqFIN2o8d4iR28Oxk281x4HZf7QJFvZBXt4bJiqtAqWuVllqyDO/c3Ymb5cMS8iASUQGXPCASBJwZhmR7KKdZyeQ7HhBympiLtEkddWnuE4A01o9ZMp40WjQ92+P0vPcB0euic4U1c5PXq1F2dPXqar99MG9YMeuLhlnbGkxqMzVCxlu4fCJgKB7HWYYFu94TKRv035BRjiaRBvJHxDe7u9thPfLAryLWgNxEqZBIOup61KmSeRQ+keZ2HeiJVsBvrw/ymnMC6+OIWbNdJHAdQaw1OeXFo5wDE8sTbFyQxl6u0GIkc1Ud1c5DirpbdARI1NkIdkG3keHZkjpiLNmLdc29eqYyBitL2Bs7hAjq0mW4ppZ49SY+8AWyN4xEUszGCx1p0MTnNTJhMqnN27UYBaVtYfkUQSCdH35Bnv4gZENfEoe0dAhlwwKi/k5Nfhv9WU4GyJD7NXvkWP9Rh89MxzLB8tk6rLPD2EuOqRAmKd7wSOZsE6OMgQ612atrwPH1Gwb1PcylGk3eiDQPxgAz9mak/iReNRf3N5GlKXgSJ5Gx6rug1sP8a3FwMLUSQWrCymlPRkFBcETENS2H6IWY6wgaxj7tqXG7pf/NciB8WP2wGFZFnUrfPmBKh/WgpDS0NV4opMMeqYyXFY9AtTCTFMz1yLjYPlNaJwRMneKwIVb6EWNRwMMTcVDa5grD2dDndfoJxqd/Nzw+9uRjhHgNA9kR0qwj19pVybuifaL1O2y9he5hTGJWSErfQwaWDpANGSyXU+YrhMEf9/pJb358/+3NBv28vapKKeY5GcfXS5dtXhoLlAhBWrwS0VHIcIUnFScYnhIcMdhUUn+JNWkUMAWAqBkhQWLx0yLd2XvB+e2IkzJWaLyvb1Ti0mIgzXjYEQzGAq0z7S7K9InJUIXd4aL75c1DqXDgEkSiogCDV6gzUEt3BQito8TuK06+cMKKrZG9rBOXuW0iMzbpkLgOQnSxIGXkIYI6FJhB2VKgKD/Lm1/ZrZmVWoLQN+Py9voJryU+n9FZ2DpFYXE2TgQpuV+WV/Mtkgd1EReqt0wtfRCmnU0vk0pF89I5FFIZHmkG9vl+F5TpeFMBbQpkFPilAN3dibLKOVbSbL1/OB1lbIsBEstieVke7rvGDXULZvLiKMSyUXX+P1Ve0o4FzEpnInRuT5EgH0srjUOanAdkdq/y1PGNiHtEmP+gy4KModzKP6w1S2XS5t/abYYYudsWFAdizv6ClN+59I/YCcDxGLi319vr/9trzllFzmUvsRYNVSJhNdlQ79aMtpS8orzJl0hiQIJBcqrdX6xEQCywtpu2Wn1L9zeugNxx7+xukQwiQ9yL2gNbxveaN+WdIVNvhFX2tmuEl2eNseqG925rBbRA6kn1LcjYeLWkmYgXTJa/9HnGtJLTrhbj7E4rHITMg/zJPNS4vP8Ddx50QSqPplsxGO4UVevo8rxtxtr7L3XRwe9uf32RzDc89fb6Cl6PhTZ3/FikhXcliQsypK/enEsQM+RJFZGX8WJr4auLXB/FLeVii0ApC0BD5fv3zyJiTXuDm2jexutKSpmpIdHha6dXlcWY2q0XZZIwXxpdL6sEWFJ1jFcj0T7aPHchSY4op5xlABXBGZtnPLRzx35fF4GPSEjcl6yclQClK6wLOOlIhlKbt431MW6E390R+xFzPzxbvrHZb6+P9ZpzL8uaSrQYqWpJ9uPEzCNTRY/LHFoaIc8CHTbeYYWSMzHbLFZDnef3zzBVlXGbuwXwoWgch+4uwoLcxoQVdpp/hRE9iWCy7J/N9tAwumyoSX6Yw9mHJaSfXlawO425doarQuaBLFgfKbd2vnJoCdcRzKEC3IYVw5Dn33ZjtD7FsnouLOr5QiVrM5FlByydHWOKLgr+g8hzQp93u72Jkt5ePxOv+/PzqrpBOSjc6jjLznd6eSpWVOSzMcC8lOXiZdswJIcuiYZ7nzy/f94fKKXDwo/fIDWcVyEy4F9dGOqDkVaKED9yFaiXo6az1yFbSROml90TH1Y/i11ZU0eSreIawh2aOlwYCGu4sJx6S3MsleLTyfOjkY7k3QeCJDBFwtETFBVxo6MYeUm9vr3eXj8Lrw27Fm0/9vkGij9cRSQwQi8PRYyonPbOG2G9kFSAbe5KXGTbV/HzmWniizuMLXFmiBpnSAq59lVYxaCMefqBM1kEQg79/pnyM82Q3xRjpboqRgM20gTvCKuHB6jkyVcnA96ehXiCiN7rwBOjkcGeR5gDyEfcaAeR9PFIy2SNR0T4hqHeXj+Xr8ILP0AHKrZ8hWDhkOKf5TMNSFQcM8cLESNBR1U+cXsni0vjKEnZMVnWzBiduxMupOCVQWoKeTm4MiyTSM2tNj7r+2a0HJbIpPBHWgYtac+Lfe9M4ttjdXRpLwbJOEy+U62Bs5rCuDu0VekjFdpOqw2mUY9tkxKlRRK9RbyAbGOz5G+26e31NXqpNrrmvMc+eX/3BG2HndbHt3pbEVqoA0Yfw5YpowMDRPzRez/y/fv3iEetS77rkFxK6vKM1gFMacReUHIXoHEIOE7CHfb18X+38biopFRlYdwp93RFWgYPb2fZqZWyZFyO1Qx2NUoraC10Za7QW6uOBB1v3wLg2+1NUvD2+ua+5kSjBe46sdJuA2CxTFp6TfAzXxdxFt0s+CKlu/8vj3ivSFi7FgpXI7ryaptydkvtADJdqAZEBBankWQakDEL3bFnB7TDzkOCoRoQgev5ALfGyFNedZDlrwWfL2XfSoocl3rjm95eb6/9qrrPGdaq09L13iQEVSUhusVJZhyKy8tGsHnc+/fP6pWCdJW3fPRmPVuI2SgOtmQjGRmsjgEfAdC+CASsmVchuhVTd3o0vXiTWtXMMYMH3E23qD4EibLh8n6a+zjRt3Ds7fX2+liv+/2+Yc647FMLuXZXXakxAYS2YPS2z1ChZGEVGxb6XJeYoG1t0BKAMCsIvzbb0x0MPEpE87TO09Ws2V8VOii3CkdMMCbE86zDNdC+s2VrtTqmV8V9HxO4TXWfK2F2t+9wJo8H3FdoVcKbtXp7vb0+4ut2u+2ct46vHFL0HLqAIxgsUMno99iZrdpnvTxszANhNSTyOt+4ZhqNcjIRAWmg834LbdnV4ABM9ZmMy3A1FJ9iFyG1lXkzN2+vt9fP46uqVkWahI2Ub136PRzyKUvmkwdihc1ThvrUrXetv8/VX23Ds878mfWy1nQdM6IPcOKMI6lB+6qurAr2mlXnSMC0MZKm6u319X7d7/elG4ncqZvRfnHEKr20Yy2YbN6d0dS4XY1KDlGeVDzIIzE86biC/Qo7Q602PeFrfR9nd0s7DKsTz0p+98tKT/bhLLFy9IM1G2UFpwqNvsbSlsy83XLN8nHqNUxLU95j5L1wuJ36cgVOhOpJ7ul7//5+NNSSkasDCB3dhVWwG0iwHTJSdRw9sm1GVxnPRjXBPo3srTju5/C1ytDgI4/jDdMc5X7vSbFChbKRumTTaklGLWDG0TykvAEP0k1jeuPpMD1fSMqrtDtDki4Lq/PkZ0hyjua5cVEXtrkcx3EOx4Eex4LHjlyiRDVK6FxXKklmhf88Q+HncWuouHq/rp2kqPZsx3FakkJJNEoEl3DUS2zD3797NpHUVpvcUmpfXZys1s+7oxoFdmgLIFpYwOo2fh4n45vz2hLnNEUdoH5hfyJJA6S0WFXPE3nFl2F/pY1EEZQ1d76kcY9TAuJoFUT1SqK/WKgKbi8v6yLEM8xlXk0qTSGMit0s/42uljKkVkDhhSIdV7A7ZcYprjm9Nk8sGTClpZoS/LO7B43MF1zMz+qr6vl+D5z8LYnmyzfqUSO8oRTLedpg8UiFNR9DDWE6VKtDl4SF1oZuqnNz2clExdMQ7TutuJo12ben8aYM+Od+oUiVR4LFqb0wI+ORTF7aqdvJ32xpy77t17MRGD9ZWZnOvqRYzszImSZijX5ge298VGji4R3Edq/ljAorn1U71jwFdjvZgp7/qWZnKPFKM4Iomicvi2JXoiOPFEmRROeelaGutFb6qt1SARYMVRz5e9MhMuBEdVkf/dkFKF2vy0k9a0p4yOPPOOH7fL9n2PxGXDNwahesI/XWq6c83z/fYV0YyeMEZM77KatfHXHobpzZKpypsJmG6prq7WhtfWzPVhFPb3rLn+I1a7ab13aOxjsMydQtksg5uyNtUN/mUDk2OBoNjyabzJ+tT0sddJBf6UsMHhSO40TU5ZvytwoeemrcDjCE/J+1dIUHxfGCQ7ElQVRZ+TtL2C74iX7Zuhb1rxWEHfxFlz30P/uEm1TKXaLr7LGtPjPaqzy8/6TfysPMYB7KmRwrcukJZ9JLxccCX9WFIzie4Gezcv4+73E6Not8ozijdL91cAAofvYknWvQMXszyk6rNA7LaIIyFP8CL7EQ0QD9m0D8n+u1SAGLnSg5Y2UV1MMsaK9MR8dn85vgwSyiYKzkXDu1/CDtumR47RAdeLxhW2wa6hM7c3Yb218tfiGOfHTw+AzDSHXilhesOVu6Of3FjmgGyg7StrzDfvhXnyHchXNnbOwti842nV7WRaChi+Y4OvCrT3bX3yM5NZv1PWJrjmCE6JktJ0CB288GC1YVcz7vjsJcLALgXZObRxsa/mUZLJj+JKLmfKXpU6/k5UXqYHcU7bf2qW+7YUr0R50j+9l0Aj9TL9SX6jwfeOKBuqg8qWtHLDX8CCIUipZPaX9NeOHn0YvCf1sXu1PWs6us3bV13HBs4SUQPBQwG9yo91AfpdAHvhkLryIsgj51eE2cOEQg6UeohwZFauXzccJXtNNnPh20n9YtwIo3LoQ/aLraAV4IGV38vWX696d4GkIcfUU88LV/pAeVbiXDNrCy8WN0Me+fmP1amninC+ihjkg5VFO452eFhDD17dvulTyNNrEmZp+XUN2ZYVci7nBvZveBiTTAFWTEaMwQM+zzWNYRUG8G63jVgk95rEjMoneUdydjTWzKmt1jGuCXM+a0oqiKezIqW8YvyETNREvmboazShy4mgoNymJHRfsoot48yuXVNZ122IuTPztDVsY6vf6STQGYDPcePSyaf4SmK8jb0VE3LU9aQ5w9YBionwY2YURslgXNNDvwq4s7ju2EB3qU1O5g4gl3tyfnmaLsUqI2bCfh+LAjs6a7n2iKLy5nyG9upTf+4AFsHaKif5wLi0KxOQ4u2TPy8fmZeb9Xr+QIO1gilExWg/c2N6uBH5bVK5a+zMinh+O8cO2j7mHgytNI8ApqYyeq7a1iZi27CVn+jCPGADbp+kphhH00R8ThhSxfbtWgnLmLBDj4ccUt3QHsDC0sbDx+h9MJ0k5RcYr4xTW2/IZJQ6+JdVMb5eWudHPc1CTrvaRLnjAvECec3k9j06/vOsAW95DSjyZ2QBoPR8btPcMdZFfrY1QijhLePCchNK6awSETyRvVKdVxnBjjS+ZoK24LI45rnSSd8f5rgMatz875CCnIrXh49f4EqXAIYQ/A+31UPciB7hrThhrg0gSnW+jV24wZZaBvmHjp2j1+r4FGqusmb0/jxbL52r68c9Bx7gaZXxzvsSEpYT52ilcxXIO1/Y79JXkRDT0Q0LRgIkxdd25F1qjO6sZeRzx1ZCGPb28G4Npm0V7YkrpmlY5xtxDpEoa9DLAOZoIJaHuoZlK7GHYfC+ydSPYxt1Qv19WGaGzdPvdXFNvS0S+/Roa8EtWMhZgyLv3fCqdlgbHyxztypskzSviBdNuOvycODWbC/rygalrm4TQ4sDsBgOg11y3HBwMW9/uMo/F4dNcVU89ZNmlRcluYlvxBbXB5JMlH42RwWolTJRpBjZBb2rz84y8DDm2zfaIdRmBuvhGv+7zPmt3ubO4Kq9kj/ggs1ptQh0nHEsEe7qvvYWKDRK+k/av+Dharc/3vhbePA8KkrK3WxPUmANKiz2zqqiMvLppsi0sWJWUBOwAZvAbp4fVlSMcj5AMJPLAdeEr4pvXHNgbCavs9oxHSXk3b6PAAqRQL1sttQYVVDI+AIPFAOGoUMmqa8bF/nZA859x310taS359xSgGD/TCJKzCUhK7eJYThn/u7+yH730xQge0VR8IETyocgLCJRObe1hgQg+FR24uJtwSB1vIZetWsJ6GcFwyNoYlvM+6Pz/HnF/dhtCL8DdxF5l0MuGeo1fxRlgXiOw5RVIKIim6pUwdrMPU9xu5OJH48BROe4Pb089fivBssRgXQgksz+Txap6P8+aCrjZSHPGCbDhSSq3k2cfktnsgjYq9GDoUJIzvgWdpuzMsck+LdEx+hHtif0hBIz78hbBmY/oVL42jEYeOpSXM1LerbaQtFd18HOcjGawzEJjHhGhsTftQccaaHuUJZ7HLkR1m4M9xArKe44NThBFHNKpjXOqIGXmtcQkR+8mcSF9nF6zGSlu7gKUCWE0S8kXIF5csWwbzyoyT/YudSALvKKjxABtfNdoyKfwShSBlQ57Bjp7Z7WX2zaVNarA5g7MfL7Mb59+tTKfOmmfMAmZqXeb2dFu3Wj8vucI5az7CK7fWqvWAcz1gI8zU0CHQjbvBSaubvolSjhKUoHraFAZHi50D0rfHtS+jUbIbo9diKk0R6n6coSMRrzEgHyxSJ4/Dwel4OOxvUr95Dgz+pnOZyrvh4/axHpPHpWst0sSXtK4XpohnCGiVtilY1t95Q/e2L+/0zFB6xBI+bkQmiNBOH1DeLjvoV6z9ZJxxfV3VDy+ixi5gCcoD6jyvt8LztkdP4jj7ERzfmJaplL5tdTHO8dWaLdgs8QLAWGG9zR/38SS4RVM6ZtYgzYHhMQ3fOj4sGVW3hngy5ovdiXRhOxOjVh+pPnd743mfzy8bPfy0T16zm7CHIJ6DuzBrzX6Aq+nWjpw3RxrdgaufcqIlM4H4OvV+ZM0FILGZwNPsUoxkidgWJKn/a7K+c4B2AcHXAZPcYO+BqjOHbsL0tNVmzHL1GbHr6bzxYiK+S3fIfS5Rl2INp3A3nt45RQq+Tu27ttKwQyCxRzu9ZTxcM0lB1amDL3H5SbV9xFGjknHiNQSKfbtI2jdVBd05LR4ix/TaxbWwqa5YWObwyWMMMWYNA4HHdg01brdCY73vcPAbHktsoAqnWWCa2C03HYjsySFSR0VlHQuCeH4BAaMgik0uMPi+5MTso3XcxZ1hRY1rrhcVfnW/z7EV9l/Fa4xxn/eQ+ZB7NIXG2l73Fsvnq7DUrbmttxHxkwJaTpPS0CdhHAaf+w1flbWemyGKkwTFn2k3GEfGiKGF4ZgUNe1QEwdq9/YeebGDL07/EF8bedgs9oz3oQMVHWe9bV/fQLBU6kVyhN+n0ETFwYYHLMRXeHbW7mrm84zdloSltikHSYxutyhBcSRVqLmBAUrNiAnQ+4+trl8aIfDNjSCq3QSHyop7DihqqIo22+EhsKx5LVAUE9xOHRBon9syd5+InCypFR4q5/95AB/zJtf04X4d1YLXBwHTwgDtBLgXv2u/2FUloY24ahbiXFHS5fvRDZfYgJflylMEaUFTxq05p5/6VftEntNa2L/GrrD5iZmdD/La/XHitJHbYLEmThbSbSUDqA0pTKsjzL3b75hjK56Fn247EMo3q2RM7VFii5vcoOksRDrMGYm5/Rvpk1lfyw0dZkL0917p8xRQxnEmJAtku7jJf8YLIkmcpiAB2kPwYRbv2AJm1BH92OosjxpMob7rUBn/9f8GC3068UhTRvX80TehLpnBHe8l2rpE5/uuagixfo2Oh9crexQEpu/k6QyLazTlyy6Lhv0jjuD/tMJ7v7Uu4TTfh9MsW8558XB+ozyege7AFB1Y3bDqZz1D63q3JXbSIA+xB/4LhsCyyLD1GdZ7PD1Ng9Xy9LH46I9tsO7P9x0wduNmRpbZglLz81faBMBkhVLbS1YndliEKwi7auAGSInCAbIwcx0CGt+ZJxxCEPlYfPeCRi/sUC8gdFCgkYEyvShW4KECd+k2JY7uEyOFlLx1EjGorfk67rEO2dIGa1Ss7J81zN1lsftCpHMasxxLz0trrUQ9FE27AjgI6lBCsZSpzWqhvC5crj09dXNycAHKq4FV57D2ltEeqh4jNxI90huD5dQXQqpD8z/l+BA9UGVbFpcq8BRAHxavAvTshTgmo8CrhtGthk4Qj4uR86GVBZELCoPhbj7ab0AJudsNT6FpHiKcPsdsAAazmOmujBXIxn9akx8HhmnNgz8IGf/q66MbrPu9+gSJUU60Gug4TEi6UwTj4AShJF/IWQfVTbEdTF9Mxys6hyksXoqWULx9AHrOnPqFQIEG0XDbL+hgzB3lSa73vmNHFvEoBiDYQEnLuNDLn77TwQk7D+g/L2LU47HxkwoeH+KpxoPZBSIo42oOUp81wMyNB6PmTiQrD1B+n2e5o6YVmweQzeydXwn12PrePAEhM5RwQnFGaV0CBFM50+Lo08geWd8QERiGl+xD+00Zp9Az84QwcSQQma9idkyTH9Ad6U1+d5bDjzi7+fju8KQhB3yUqhTKzk/HbYp/l4xTY1GP0PBjdCL8k0BYhJoWN5mfzCNKKe+0VXnk/ONUm/nepe4i5P485K8DVJjXslx0kwdQKBzBfqsJQNvaUUUZURdl86R3NS4pfDsdJMYRsLxs7RIH3VFqgGmYIOulsNrTmdrufkRJ98s/9hPDhePG7Hwk+fu+RtmXpuVsuiMIyw2DO9uEBQKX5+uYvmtmE+Hgjk8jZGIMnS8PNvLY4YPU9jh2L8ydksABVBGIOKNOjai4hDiCfbuAHKmRSMfQvdBGWHCnalEZHRv8CqogSmnkc7XTqgYk+Mq2oukH1lOUVaHDYOYIazUl59WJx4/QPfVj6wl6YQ4pGDvzFq05JDFV+/dmhmit1gobW6/6GNKRVMs1Qq1dFZd0T1sXyIisEcH2y9lKvP5H3xPJ8ZUfFGDZxI33gMQlmVPat7ljMKTx8uRes474qqCRrDR+aUDHeLjnlmZm6Vulw1oiyy3XktBxj3WXvXZSE4Ya2cfOiNXQTIngKSgo2813zjwhAt531x+FTpVufA/WrMyJW4SQdR+C0prYDEtGNeeM0HDXw0CVilsoolJYxlbOY8L6NvbXDM4NZLOtaRh+FDHjn5R+JXhTu2teC0mhyd0D2MunDLVXKq6WIcOiya0/LS+0iaCSG18K+zCErLAjRvWPsQ5GB8FY5/uzg0tzr4NeZ1hBe5mBkXzMSaJCgC1AlR8BC9NUJcLK2Pn/mh9GX6pJ+Ogh4QShWxTxwu2hWBVQ2PIYaNQERWuFSrgPaA33ErA3BNIe95fMj4JK5c3zoCAFKiK6x32coOACi1IBXRhSi3yR+hPySY94mQG3L9CnwnIGcdDGYAPLHODmuJTA3M6aEd6FJfMgR8wHII20x7hddt1LKBhPuU+T5wGLA6gc6geCrzoPtQw9Vx3QV6NtqPYgkW0+znx1dp6xriKofAUL8a7CQHscxA7kUmDpLZWMiGwI8+6UTlCzq3cJk1reJo5MEcd4h9bZkFHI+tBM9YW3jug8aivqgG8MdBSnD+aHbNFZasfWkUFM/93jGrevWK+E10dCWHPO5/vzYtwLIiLtyAco4JC268TaBfpp834GC+798CNQJv5DluuV7Tk6P8INa+ZmqMbRBjNfvQ9fMfb2uZGHJrTfXfgBuWrqZbZ/buNta0reLZJ1wByDJjW49VvlVZYSCqF4ntTWt1tx2lm3VlroFSyDqWAu1XTRDR3qmJhqy1W0LHA7tkGbfcLAMaop1dxUmQVCyo5tafCAsGsVer4CfKsS+wKyAFazemU5AdbJN54mJ1ROH+aiEc0GBmp/enZtRDJ50NNfKH1qQ646t05qwgALv/edPH47WybFEC8oQ8ZUbXFfoV0wzGyeFXHd0wF4sJV455wb0o5uaGdVDe5HyMHf532x1V89GPp4IeFy/B0swWxJmdj1Tci5JW5uaDt1akaduxLKW1NRQwwQjAl6CLExQhVkc1dINnPTd7n/KP2VybiUGiCxK5Ku+/q54s3Wlo4mHDnBlU7pyHNi6V5RW5g0svq6/nTSdWd5FHWSVjycuqNTWjXiBzAXrYBlVjFWwpXmn7xbgtSAVNxyCDJA2nkpsjb0/iAspkU3VLGb2hTib7ylXvQSSKnmkkvncGNFgcT+NQ0MtZeYoGSlrAWpxp3GYerjDFB7A9Ms9vOPxE/LLXbJzLrvS2ZHh/GHNEuZLFDuVYH10isdSFU0STrZG8TWEVpiwblowJa8S/oS+XZpil8oTrm9HjDlPudXbLM+ksEqnNqUewPQII88Nk1K0ROASgX7T1X3mNip5b4OQ71qaLvGVKdENWuyd9/Yzz7D097ctFD/hRBIB7GDUzRWde1eC8cbEZ3W2ARPOoIDqfEI0kaBKADfRuTHoGrAeI+gAcZI9X0GFKxB2Q42GoixII4gHgPZ4YFHd1wIyqeFeQrUFFYzNmYtPQaG2HhxDLjfbZi1i2whNZ6oBLwGicIZUK9vQjD4RMSipOnapKyfD4N9xKy046FDavqyNSLdJfSskBvA7Xn5NZT2eKReh9jM2YMcgta7YxY05tFcbkOUESLssyux10HCPYaJ5VRMSI9Uyu/4JoJd+/XBHmgdYZsEOS2+7ZRvIjc8uAg05VxoiO05lA/A9pWyWh+Jw4Kefr2qlD0yNO2BikKNFLlQHtVfCCPSWmJCGtsYBSrIkaezDPnPM/UYqbimeZolKNhUWkcvLxXeTqeUnuYgBspgECWsDMosE3QldV68rjQXmA4/qSHszI+u4i/v4n+CxIg0RUkgiGxOKg/ySWN7vY80CU9dMWyEk0k8nGm/bUg0hakkWwPCcsRLndrxRRHhOTs8AybUxzYjPDlnl0p7kJPxfK2qNhlIp30H6FA2+fHE6jG5THdm+YXCl/jDjPdBGHsN56vi3qTmYd80mYT0UfHp3pRcnwhfLBqSKPYQEOmOghaas5gqhts5j6+uNeDHCwlLUXaKHxE7ZOFUoqLgXBjZQVbsaSIKU5ctMEzm0Gf4qfv98xmGszdLVHgbTVEhCQDEtaFJL4XV/qPANxj4KT9oAPeFf26mZP17VIiSXhcuXaUEgCy0Q7qBdS74vTkePmHDpOZhdJhBxqF0bSstXqwZH1InVWoAs7f6FIMeusM8UdQe5eLT7EDlUEuSoKaVBn7jbigiSSwGrocZBhzqxRLiojN4Y+MjD5fIwpwYpSejR9sGt7keAE+LBTjPTKbaeDQZ65FcD6eUd+pT48Ok29UqByWHClAY3DIUySs4f7HQcamig8gBiTAlx3FBiwOj5yLdrg+5Xmtok77nvsLA8CPKGpiaJa3s/tb8ay+WLVQnaG0oC7UCU6l7LloT2iQMgspCttkIrDBQzpT4NFZk/zWrf7qpt469LITJMfpAW91033eebr6Am7vn0o48eUfS9lSbRSbN+5IACKv90TgBnFMXgZ5CiKpX3LA5LoN2uGlfhp5Y73i7tfgrdQDjFVIySF/Qs8vdOkH7MMrFFhuOyhQd4gWxizxOriQk1k/lEehJiW/G/nB7DI2FzgzlhCV3Rm9PJBIjvfoGt1yMtOKgw/X/DrZOehvNJZRxEI9+7AdctPAUbavHVpFV56uIlXYQcduqT+QMF5wTr6Gorg7dRRAO5KHRYAxN1iy0NMGBYJ/KdiEih1/FU1V9ZVHhxwgJ73OeLp0yXfKLguxBAonRVnFOTadg+kJD2ATeRyfo6w2VOz/YmxVlDKEqh+mFhRmTKEFYnYzxWkWj5UGq5iBRza9sSnu3MMoztx8eNUp/oFePmMIpjAmz9lkZF2Fjp8OZerfETjnqsFCooZiJdfOMXwD9FTSEhRumujiSj9cnuc6GDqw8dJt56fdkQlKNLx/t0D+c1bS91o6WytcFUdqkM/WlXuEQvSinJW6jXh7bMeM6qjlDRxL5UOyW8xOcQ3dnVww/D/2wymQU2r8Y3z+eS/BbjYPDQBSLw96I8IZgEwOfkx54KRDBqv5Kjsj6KAhrYsP3igRyTAOWjBEGBm8+1grolgHr3h1torz+QcxWlkx+2HY8bEda5BSqjklmtsuS+wgb2cqlureK9SlEVii7P03Fa3YyGR0kQqg0pUYxArNbPeKYwC+g2exHVNxypDDOhDs/lAoTHr+epE4Z4GjhIq3AHxOIVUMfQM6EQ0WktOHKAnxD+VELSIsqtP6tCYkOadD6ktNamT8Jk3PAboXFlFefPOD8yZeL2iyhEUrzCRzFRyuxUk2bh3IM6HATyrWWZj+N31KWEFVeVP/NIwTVzEAbEfiSOH8UB4RlZltXs88dec4XenzEisNgsZJSB3S0Zg3my8vX0LrknPf4qV8fpV4RMUtr71qDyW64AYZjvXtiKpdwFgM4IXmMMZhlofioPJgswvGE6L0VFWfBjFxJMa1EuFfob5W0STh4ly2gh0UbCWqTD82sVGg9aLLZMzKGGNBESV9Rn4FPKFkmq2sFf3UePwTjguBpDdOKR9trd2g6zT5lOHUhlRAikMenCBf6T2NetW5XXn20+ZqykbFDfEQ/KQFEWGiL4cJIovWyGBT+j/nBnZnLjlqYeAspQIJKhTg40YVNBmtE1Y0h2bV9hCd6gxlDg5MSsIlpVqUlYqyhsG8lf2cYiAcO3SPjHl0mwpN7AABJ+3eYi5JTwto/RxC3ixbc2cIfrdlyCyaXXCG3Br2KlncKqg1unqLD/2PQ3j/r62OEhHPOXcntuUKk+HVYjNp+XHtQOvQ/mqsQqEdYGaJdjQhGCbgDpm/zuXvnnWejEMpYnklroqwrKIGXKZ6PG0ckgZ2dyCqWQ7Gkuz9g/2uwwsJrs8EYukB+kdnYSy0ZOkrgYplxxq790yS53+XAOdZJYUcMYYyrHP8ZABazoGmKbUvQZYQfrFz0/d47mH3KSoHtMT4aqBPeYtDzEn3vd45i3qT8rhLPEhc8cWjqsdRkJ6h83YkKW5AHXziN7g5b91YhU2eN8k8KroujtjfNCMUUyXnpypEST+tOPsW8hDl1a8wgJBz1YnkGpy7qxc0djM5PfxTpRy3N6UaotSsB207Xa+vfnpxp9SPT7tzLKw0Fuf5sEP07LOQ3AgZuog69RV5v5uVFX5sreKZrnl2r4vqBpBV7MQjXb8iNWPjUCRNzflu+fglZ73IQH/XqYF4qgOxTl3G9LGH90EP0nzBOcQWnLGKua2QLuFDOVB0NIcORVF2+M3mk4vU3/HzCFwAuBZQrJzl2fZAXA/2Tf/ST/nk80rIcAx04ftIQ7n+Pzgy/WFYvLq3xCz7UK6sx0oolHG+9XNKackJn9l1ko217/TSNaD6uwVrnJnYHD7jIUdsruC2Q/wL7yAYia3zZWCXO0cwDhbT2sNrp5D4dApFB0+IjVI3VH0S9bZmIvKTYtn5oeBklzLM694rDgb/n2+PsnxkB7t0asLSeMTbTNnisMmU1RDT4qUjxIopSJ4TkUQ9HrZjqNTWeU/KoRPhmkpEmiGO3PwjGUHGcAmZNNbtGJaAfL8MVGRZrK0WfwoSJMaDomrPaIby6yEvv1o/TrFBMCFJg3sLMXh6q+0CVHpP9PbNoaTUjb1l3RoxbxqzUcEJgkwRG+1SOCGuNuFpXB7IMO1asjJeKk8Pg6yu6uZrFk49rjT5RQZqX9KO/gyF6ba515KUCUpsHu1Rf1juVyG9P8p5bEPLb1QzKR6151FjNSX/K10c1WOwtEzDC4+hNQvbEc0QIZ0qut/JlytnGcW7B9nFZ/rW3DXpw1wSgd0+ke+wW5WcHGf/SypORoQCP4Rj4VJQ9nHBEIS7W3L6JtLeBDTjRkLfami/ioEEbwZ+BQ3wZ6RBsSmZ7aXiJ99ep4135rllssoNvAgvpLe3K4o3ysHr/oxsXBIvTqk/fScZbNAtp3V/9so4+4PTgdc4RfA1PTDV4ZTO/2FVZgxo4zSAhuWPiOJY305FMWtNilp8q5JzF8f7jmm8HD3/s9jJmQXpR75pkTOZOBe4eJOSA06sFJvyJ8e7c0liOwz0sNaZ9B2lq5SCt5c126dtbLx4qIMQyaglNSRCEcubtKItUI+lNO6yP47F26sAvVMUmb11VJMpxUVSzllVF99MZVNg+Lc0Al8XAoLZKcsdSLVNzuosa1omAp7VqNmTQorRboRHp9++0YbdTYF/N/a600Jq7HgUzIgswNyVreuqLBBAnRy3IPVNid+C/MlGpfjfTiZxiMtAsPA1l9kXqZXKFAxLH4oqDNxfAPirj81AjfAU09dfr9VENVqUgRBdXNgeoyCSsUpMemGh+RFqxQUskoJhcohgzVnm1Di01VxK4BeXFSrPCcg9A59H5N8hXy5o2dikXvGYnyLrb1/CqIEt9xws66KjqQ0VRMLM103cnNnMNbgogPOoCwBnvJ4GoRKLagLqcItyIG2WY3NYT/t7sKKzI9goImWleMeZqBNeFfzgIphJ3IA3myWEV5BEUU/So7rNLM6xmBo5uXBisFKxzbm30HHueDAuQHgaDzRK5FY8rKQiSC+OQ6ai3QkOgF5K9pe99YeQM46OgVbr+jIifIGb7hr0+LsIs07PM4BE3hex5r8EhRdCkpegVOgHNk40/ts2Y1Uco1/TVj4hMq0Lc6XL8D4igc+uKebtVtrn2/D7Lg5XS41g22Z8nUsm5+WKUDnV3EezOKoNLfIBr01GigGiuhjCoMcQSPc9d/QJOrdKlV4k0xfDQeu/KFGMzvWSlT21TBUwKqRbgI64CC2Q22+EeS57WuybsW+EOZOxKsrB9/5NtSQFzQAvKmFRIz1hsN0PCp4+f2zYCTbCA7maXpjzmZe6pGCEFQdZF/yak2PxdKd+2v3vymQMVWBwE9nfpZeeorsJqGkgCWDMNpjWrXpDd38jXx60lRM9HFU0Utf04Qt2aOVWFauBo6kRJtdaTO9SnPMLq/LSUkjo7tXNAaeh2mLjdLTfWCW9hqaOi2bEUPnhqamhAyCQOq+Au6E2rfGQm6xv10WYqg7aoJD7kcYsu8FDVRR+WJxWu6RSDkp5S+wgk1BOCJYM99DEI2cp/w07XwSPwYU2sHAr82dZWiuZhyiCJ/tJq4qRa1RoIAsZZ4KbGwBen8CmqpiYbxpZC0dzn4jdK7juGPTyATSmMlnvkkYfhqxElMaEYL1jrYqR8w7UMoVo3RkVjZm4sP2wnz5+X18czWHPee8y32dqbaKiOOS/acWuiN8PgRxeyzXawS6O4VyK7VHfDE0HokTcu2MXlHprCBExILscemGEGkOFcstxaRIUg/ii2EZKHRkeHRNOlgYKfsWPanWORFewHg+9f59G2NBMq0mK3SmynUuvklS8aHYNBibOeC6rEbklDG8ZuyecjoevLoLa3ks1bWNi5QmfRLglTHbgW23rGTkj4V8BLGAFE3S+aAaXjTgBJ2/Edd419+5PX285i4KczM6wH6V536RqbXhVez8gYk2thcCaL/SZx64ShZrDX2h6YvkJNRUNyXpJS0K0DzrDoNuubTrfv10fKEtac9yoq19LP3CjyAYGmu6jFz9f0IeXx/qFMUwoVy9vZqLpGXIbCic7yGtTUkSPDNuULCUfFWLWrijYsYScOnF+FVs0VR2LrzHlK2bnZ/dc0pbzD9CjwgJ9KeJXX3nDwCjHH+YAhzktdpRnQHjd65rrOybmmcTtHUZ0T9LRomdq+uMGT57/4xB3fW6cy7xwVP7dBKyWBoTZAGn1CHFcadBDnrR9NikzQXMHDbAYySNfYfrX1iqFOzX1RqSskPuFZGCVFR+7H3Ub5LUv4cb6m10J7rhIDcpARrRohnTHjhb2qCKuBaWL2KDnnmqhOwV2pFSzi7JPirXLZ4jW8SYk38hAN0JDghKBwLfm5y1Gw848EZUQqO66FWxavSVsORzIDCcFUuR69TOrmhTXKzDi+u8KC6cmeogzxSgYkkqE2c5Kopaw0dse/gd9UcQ53qHNPD9SeY7My6lxRLugv9FKIOBwJs/+lPurpficEXS6OaVhalBY4FZIVQHXZ3Cj9y3kkAeBpU3RPENmGZb9PY06teUwQeLXFchY7XMrYFZfmBz7b4efm9fE6jlp6BMHYpXqmjBNh7G+Lv9QEE7+gY95hSWTS5a1VM0lD1HF1rKcmtNIoi3ASYvEchvfDM/Ee/ZRBL2Y/09xs9zbnpcVnqVeIws4kHkAQi20R3vCbBDYBll+QTOHV7nvL3C67bcNfxScBrDILS8GDYmQVdKhAF3Y1FPlR7QCeShli9C/VGHd/WsGUDLcCZzvkZBxtpZx5skttsQsnmyAjcvJGBaPJ1YVu0iEMBLqzyoVZUk5sm1eWv40WlLUwrYcEudCtQIvKsMY1lLO4pPUKrr+hr4+rw1Kfs2Mv2xKL7gjmK1iRi3jMbc9w99RBRUhJZLOcfNImk7SS9as2BQQvvRTL5ZAAZnWSzxHWoS7jRdKHEghs6iGyqLtLdWOKLNEeSRAIWz46VLK4InGMk6kKhkVX/T1DJHSVcva7pkMdF1b/qciVOOA51aKiwlsaaPbYsNmUTawZXP/XDatIzChVqaDKxLJ9Mgz9CBaMrxzQCo3IdVTgBnPodKVhzjGkPIFdzWa9ujYfAzb4MVPROcsEl9RPBMC4B2dGDG953Z1j8IZcihHkXBnze3fDNJeTYj3+mXfa1/f18Vok02FaUWdhTxiR4VQNSzfDwvnWQGXr+V4/bD4sHICmnm8A6bVLPPauHQoza3HifXNgnGpEn1gfImR8HG3Fhs7WCWOACAxLQfBejTpq+Ow/xfHQjYPhOw6gugxedZEGum35iBx/yQKjljAMx5lQVi1c1xrf4CnbkXzzTCfR9lv8EGH+aVSW2Lbr8BIbutDX1gj4Acr3r/2w3TuRXRKHx3WIYDW86cN4EYVO3bNqGMhqnX2gwr4gznuW3QqTBLKYg3+AGyscXjDelO4fHmHNOZ+f74yawmiKxH5a+HeAKU2xVImGVbWqALuXZWzly4Sz2meuUpy5NVklimBX4nHeGU+0OLFdNZVGi+R5XHzWnItSm7shMgOmmM55zQYjhXfxgODeFzq9wUOcNJlsykYcZo1udQZ7mnPJ8wbC7DsiNR6ms5X0CopddLnfM0NBTilY7ggRt93pqyLqMJkowFUfcVMkKtsy1wkdgoVm+9tmyClVUWsR1J5cWvCTH0qmCmUO2MMl0dA8XNGuaLyHZLFLNSn/tBBen0kBTjJL8jr8sZt2my5dqbBUCVbLCbQ0DEs2Vor7t9fHQFj3eWdSJhvH7IacuzaHCy9YM47eVeuIjmaZlsGa91G3Wh2iB2o8O3rollarKLYeIc1tg+45dz3o6h82m/UfuRSDuSrJ58gc8z7r1hC/hYrdv6hZocjbiIcB6/O6mpHC9ppkv/PTT/oUXdZsl0U1l6qL86hxBC/r4dFEsmOkfNxp10D32yvOkkps2F2b2ALWsWv9CPlKSbyxACZLlc5DBuKVgwhcI3+cmUHYxC8CwGqLPcC2pSL8riVMGs/dJcitXFoz1ZM+P+DMmoA5Ar2ys0sId418ckiCDfdB95FfM7TFmqC9qtAqYaPsMdsBxeSNdeur5VYH9OlEnaV2VFPcxvQ+tmtxSkcSfFKcob8iicfafENYH9ZgVdS8zw49/DybnklGMr6bvY9Ur+ZVyRv1oz+KmeO2cy7dRzfvs8atvfJo8rXLZkGSP35xv+fIfdjYrHm7jW41sPXLg7rGnEuTsA8P2YUxA1FozHuN8TCC6xnGsmmTZGzF/YsvPvvOdx6PnCjBZ4jSw93/pHaBYsmITpKGSo8V9Zjx8uEN9jtI/2lSs7BCiqn4SooDHUKshgfHASxGbisFVpe8fcn8GZRRbItwqSzqzBdRrq+B4yn67wh0j8c8VR4ldapdUZ3Vgja1iyQyeRTP8dmX1y4PhK/3i59WWt3ZwIjxMCRKkAO+iKH8qyOgy/ZwbQfzZrA+rMGac8GaER2/Rbjyp9ctj+roQ8+va5dx3N/+7q/dRt6/eOYuycC5bdgom9jaHBS2Crgp4idedgGXXfU3m+2GC1xnBy4slsjYxJ0mJhceq2J3wHU8RH77P/j3/9p/81/Hu3dxuyUf1iAFt66kTWoc+EJn1Zt7ZBfkpPp4hwyZkUimRAMx1m1lnG4zBsdou9T+AYOExm9dI7WxWV5P+PLeiZqzPQk694l9LfyTek4zugcgPUcjXrPZCoi7kWN5d8I4/1rGYgkMdteO9LYcFelNm0POtpdJT0ApECdoe2UShaWKFvvse6E2M2EzZAbu4SDHdVS+aa+nD/0Fu13ulEd3BfWWPTMbVAkeBCxHM52rp3fVF+/Gv/BrT7+M0jEQ6Q+7cp/oBxLkg5c1a8RSJYyifZ7Bc8qzg6nVyWdDqO6J1kscVT0VO5Zsr9pG6HEDM37lX/qLTxHP44Yi2bJq2Bgrd9TtZMRQW/JpshVoY6SBe+9mnzxkPXj/flSDKN9tgTx7MdArZ41MjiweSrizjNirQVIY6Q24lk3VpQev0v+eHVFyy5nURIw70FSu4uiI6/r8R9gVP4sBI6MsQnKJqddELyDEwW1cJkiwgbThri8cDfmAhnNk6CCuorpE2QeopcjAdRcoylaGPfCKug18NdNQVM+tnlOz22pYviLRJQ6fiIoLAfANfX1Yg7URyEyyBYjBcAxmxSkOVvqEWGgt2lnvv/e9vD2N5sKkB+2y357vmZWeHOrlrhUEYfhMpH34rfPITD+s7AC6wmoPQhLIK7u0du2O9188fedXW+WO5i2MZAp5pd1d6T6HyyJwpMW5J3Mbk/W2qU1RHE8WIqKIOMSZUcrUrQb2baJiZpZnMkWDtfXuHouOKwrASZmsCjV9UhqCbaCCVF+jZOW+xP73v4/iPSPFS3QWIsON3AxvlaRVA9PBc8IZAa9bG200oIHBfUuVOcvznECHbFncjRIPnC7JnFjPRlX3pu8HdWqwPLsRZFMZ3RPD9w2LLxu31eulDt+41wcMib0WoVzoyHUqkjnKO4GovUyggGL+33/v749PPkUzbHjpXDBlISI1yMt0HvuIeFUo7UpD+btC2WJONKGjYChz6r7AFZOGGfH87otf+Vd/8/7ujgc2Egp3bOjyIN/XDhtBUTujZBZMu02xdH6dvI/GWeEPNhVYOQg4TZl4tBAQr5adx7WupdTdkn3XYxQPyStj6A9JLLN43Hvp4erRqzfdcpv2aUfvJm0DC2f6l0NDsH88gg03Z5VPh6YnCPDso1CbMuHYbqN8rZUMWIfSPN09fLlysKZBqpneJhEEPjfOdZS+0a8PaLCmyXR2+D6SGMc0NgBMXHCTJ6XgdO/x6Wc/+l9+Jz/9NOa9l9qtTdLIru5tYR63JawW6pdrtIgh2TWKxC/TlF0Iy+xYhzwRfV8W0RZhXn/vfdYv/ct/pW6TPPr65CgIu3WeaR0hTbTOsJpZZQu94DmwUHdW0mygvUGy0XizRR2NUT1aOPiHKCZVz7u+b4cgQWZn5KG+5W6Cre2Di2w3ZobLx3qeyxoSbOIf3aMo/T03oqieOvR3kV563KXfYfrLQDVy8QnxDasaXdfewrqB5oZNDUinB3ekiBWDFjCiucrr+xF6osEtDbAZicTn4AMHH6CNFwC9zqQt9bLounI/tfQNX304gzVnNUiJYAuYzZ7Ap1ukBOTeuHda6qxy3p8ftu/3/5/bp5/dcRDwI9bbaGS2aAgdi1CKyNZEjfGzFV6NUCZsVdgRldmcQUGCkSkauhKBxMkJ7+cZI7/84tNf/U50r7pAlFnYfB2TqZrMwN+EQicpIlMIu5tyFQ1xqYPc6kyPhCC9+9poPEWqJQUTd1sSZKETVV9ldrndVHFjsPN4IQ6sOYVAdp1cMWYRsiRKrCT024/G72w5+wXj7au2dykuIKvmuxd6dig8awkcz4nWqrt7/pJc0r4SK55rku5W7VYRf5VqcbxlYX841E+kUCkZiNVnpgncopRUrsbvBowVZHS8ygKOi57tG/v6cAirmuqs6D0sqF9hmaYyflrYgpxH99Uf//Tv/p18+uxppNTJdKPDQ6P1NRQCspcKlq+WosivGogRUUTMSK9UQ6N64uqz0aNlh5E1nj4dv/TteBrjlll3rjoQSogCs054r8JaF9Zm2r+ZR9i8h+IXgETEwWkBcLpN0XPhUjOYaSgI2jcCnGiwasOJQG6DpuElxLmVTtD8qoQ7bTYIKBlplsYT1Y+JQ07BLBlLdZDs+9qzrhdvc5LhhnJN0tQASvZQnHFcBdOrmiHEjWhpZCsYNwXgVp5xJ8tBM4QGZaitrjyOzlDGOTrlKiDGwXvDVx/QYCWSYiEJuvqYJM4Uadyzt96wzupqJbQkmxE/+gf/8OH65wiRUOtiNWHzWjW4ffkx9TB/DbzbROZqObXYhjGPkIZ4nCEhmg3ycXaB6z5mc2+AX/xLf2mxI7cVr6K8t7+SIRcM8lCV8w5RikQPGkEjeg6TbLMwPJIceSZQDIn2UUPRVLdV3jWaAW7/bE9NRqdVP4jeeiZl56tTJsmrB4PFpuAz03vkDxbUVR8nykXSrcuGzFtTAExp8OjVyViR66Jt6ZCVSHqZjhKRJaATMssF1o0AZmAgdHxttvUs/w6HOzg+FnxEB5FjN8NXcyKOBoZof5hMVzgNgQ9QXFpVZ6n2N/f1oQzW3urWCCXSD4PoI7Da0sy5Ubm7uR3GYFd88fn88ZeLMp06aZIGjz2KoozqT+Yk94Ioa2vTEGtyUUIo1GyWGpnuY+HQQAZQv1BS1DAo83l++1/5jXVT9xaDHV0k5xnyLLfPvzugadaaWTBwyMyEleLdYGu+pOSLR+vru5DGQJvmeT+QwBVwds7KWyL3G8jURzJ0Kh0IAVVRKatXHW835RfFHFqYwK4MjjICg/Xcf52d4y96oMQJvOx3HAjyivEyuTYV+KAGqxjxYVoljiX2BMKuCNMHh/gkBJLAw6xDqM5a9lreuH8v+t4WW9zGQHQP18TTZ/+zWqb/4nC/b+jrQwpnlQeOYKIQvzGQK+o6rH8Ld8uc85/+rb81fuGzms+JsKNbDCF9LWLHZUzt1tJSwjbtMo3snLJP5bFGSiWmpEKZHaS70J5h5PsffP+z7/65BQwGc/3eNkUbeAEKMP916i0D/cHLfqA3iXsuVd8GuzZlXaOGVoEwwAhEgPsFtWzgzAgY+5BZCTumGBxzmBQlL1+YpJwors84OapkQYLdWFd7diZBNxUqDqpUPGbAsiy/XGm8tgTuMPssMASOodohoCGYBGRFlqvQDSfRIqTqsp7b9uUxHheh7G68SnGb5ZrLOjvgWWE+D9b/G//6YAZL2oIcKBFEk/+dyEKaBTtIIiRlTvYvxm/9l//V09NtjK303a4aJ1Xs/d8Sh57VYVrkO5bN3OdNVOeMV5C0V+aEcqei7pv0r1ujrAmgP2AeW3g8697Sh/uo8ePvf+9XfvM347lDy/S9Y2BpwMUjf0aFOHbEVl6VuIudtRtQrdnCTZMnIu6h8qJ9AQipsrwsZYo4n2J3QBbCGEiH9D2riw9CFHx/4vycnoEueEkhEEa0w8q3c6caiU+D8fYau9k9vfCsOEVjMN2fHLN1adT3hbeuLjYVxiGygFkVR2Yu0aRm1m5Bw8eFoK8Ny05HFD4VtI1tbgakMmyKD3GK8V+08q1ZRebJyrWzG4wOg7YXfc439vXBDNa9yC5uHfHqSb6c3GR+LxFUDYsFBixVa4aevvzyx7/zW+MXf2nnBhueDUj/sv8vuAYe/11iqMcvNyG/E9cDxE73fG9pQu0lUjiSavH4D2M0btA4b6nlbVR0b/isMW6jibBZ+S7qT/+b/8bMrDuOAkqAmez6ngK7Uvtcqr31BoK4CblN6kigfS5i7bPFcBDFrpVEtc42sLuldLDTXzdzIKgYCLJS2cQWZq/Rm40XxdkktK/Eu/uAHn4eMUsh1Cuq6ypNbrumDQW8ZQR5GI6utOhQ1pKpAxyKrCYYgVHt9dNEwSAe6TBK531btNovdKsHREK3ocZ3KJmCuGAd+VaWVEDIqtB8028Kb5V7ZEDp1TcbwqG6LC02bhJve4NJhvMb//pQSnfJ3qzAqoKlV3sfs4ZtB4+WT18kxS4F+aPf/d8e6/H2Sd3f9VSW8jfsT4NETIOygrh6kfJzKHdsZ8mAngeZAJ4WEddsOmruOgl0eemz/vpIjar7/GJ861vj27+0jW3X8VteoIkN7EisO8+WstyjpM0nk60uDFa/TAsEBCee22t1ZlYK4irAylAl5I5UGnyW6Bmq9MOCamtxAPzEmiUR9arXRllUnV/dQKkPdS8ybG1warJXRMNgLJXZtam1T+VAqaZ1BNxxnQSfMHKJYisM/1xyfgz9yvpMVUrw/jFoxfN2MGdBTr08R8sDyTAlZeWECvHBsk8UL4zgUKrWaAPSfZz5m836YKU58NFjizotQGpFQuszp/5ZZIgk6Kt7ff9//B/i9skuylifmSrcLSFrn81VqDfqxz+q5/fbWb+fqgtSOnLfKSRYvYGMmUnyq+uPO+wsc2MZeZ91r+df/Wt/PZ5G4yTwO2Q5xtFpgFFbdk7Qnnj/JroepFRTdInHSmzw6sdgGxMSim5NkjQoWWlEVPTzomIGegAac3kW/eFiJa9UbH/RJzDCfGEV7P54iXaB5L6qSsR59AntMqGmL5B6b5UJzk5hspCxNbqRbEO9R27gUMYyQ1EiTCM94VErFkWbIoAyfYALmxN5oZe6fIg1pOVEnx6GK2CPpMqSiowkNc3Egw9T+k1v1fAhDRYOIml2egkiw5tjwK11km+rNUdoeW+fM27v//E//vT//6fq+V5oTsxtSVduxI4Ygqe/8Bd++Td+49PbmLdPHj/55GlFhrdYTWpmtvLg9vjvLT65Pb7/k1H3us8Z7eBnoAI6b7fbnDHG7HrsyM9+4XHZp6f5hz/8lb/5b0dbhaFD+qoPyZl6VjzeWFrQ0a0J+SiFX3bRWthzlcpsWvuzKv5iZ+SBE3b7rxh95qzNSCmBfnbJyz6YNWxv0mKtmKVVtMa+jOi6RkCUjUGTZqdoDzKnyCWuDitN2thlmDjv0mjWxL/qPsVm+zO4FEqDtezAbLeJ514/WXzdWo25+7IxYZvJ4CDDG2Np1MQcwtyno/ctIeHarhD3qLchoavnN2X9CDVLRdYnW8j8JsWKpzlBfyjX0q809EERbh6ZNnqQa4dGqiHR4sobowSDM+AKFP8GGpO0Dvvx5+ff//3bn/ozeX9+7JJ5b1J79aUir19xobijvvzxn/2P/sPv/mf/6W130169Doo99fh/gbABO3778eHB2mWh1MNxz6XbFkU7hq+9NCVqxyYIDnYXQeS5Z2LD7l3WVhInVDkQVEspZvBndBlzG3hW1E31X0J8SuPWioXc5bd9hCsCkA46U2JW9mzpSIVDlNRn9qjPZCsdtkVuQso7GeN5pNffj/ew37sy2ZAlSk/tCmLgSs0duuTGxgDqsxMldjFB04MWsQ9yjFqhPXJo9dBfWyW9RWI24JKKMt9CjI1F+liAk/cB2JgaltQ2ahTdS6XQFiTiGxAS7gOCMnHieh5+6Em1Ai96UQmwNzjdW0F9IINuvSYZA/cOOnzFJDGXMoz+WaU6BNU+0nfs3N2P/s7fz08+qefnHDPjFtJJ8fA8WioEIhXPX77/1X/v3617zE8WUTKAzWJUiz53n7+m5U1IKWl7Uym4z16pdbvvJNboCpQHvCimzso2SHgdMfw8lBEdBiU2fwqZEPkYxOLhh+wxUxo/GCZeln2daPj0WEGKepb37gud9dEXSg6qyEOSXPwrI+AEuDRCDTxl2rusgVbywD7QQVMJTTpJ8No9ZKivMs6sK/dCRdlqFTqAlVZltxYtHaS56+5yCw1sBHsmsDVSJ1LKe09Q6kKxqTdTLQvyRnVfkMN2gYuQOY8ULD8a83+9XyiCQjRRifHi8FGv1DRCcZUbQO+lOzr+6IvLgd16bLXVA5LfQKktMsHZpxvJ3bbMZebgTtm7Y94yP//ff3exo2sJDpzu3N2C6b96v/RXjFvcn3/5N/7qp2MMVyjxQKWmguYBESoPSmNffSR1WctBjmiyN5B/7hZMlqrqm0g7oiWIvPhPB5hiYA9X+mKJ1iHt2pJq1B7nQnmDpcgdZCbzbtwQVGIllD44GnAkFUDJopKzWCUp3RrIyhWTYHpcCA34zz1aiXpiZ59IrqWN0aDQgQuUBHu+GJ+LFh2I5+AKusBCpc3QxkibxbIhD8b5D7b6Log40uZNov10jWGqfUgve4E/6duknzgfLIPS/W/Caye2TFCYKDpGsf6RecASP4/KE29ohWzBovSNifSLspMB0QttqRjU/DMPjSKlyZ2lzr7Ybd7v9Xx/fn/P+7vuRjppUl6IJOFdH3/57JPxyS/cn1YL+Gg9ReO8bXd7/w5qyRMpTCB7bOra6ClF/QZEE15SS0QVylWZZP1oWHLih9nvbAtZRh4BRe2jHdYP53kRnsxREmNHl3GihjCZmyCPzoJkE4k3QoPEuyOdVW1QXqDXbjB4KC6bI16ObgjaESujktHkQ8BP9F9ZPlAs2E6L1NbfZ89mOYFRysNSABUhnEY1OqdK8o1ZNlMIZKHVgMjVTscpeww9CoX2xfF0MxtJeWzs3iEtR5moY7ArF2dBA/81N1pz1n2d/NJrd49+uk3JYehU1Zo6dLnMNYvTWa9U5Y1t3f0rvAGT2WgCImFeUguKhm1JEZc5vWfNH/7O74xPn+r5uTZ+oIauOqcTESfttrb2fP5T/87f5Cr1WlwoAmw9lMrZsrcC394FQtvPTXCoKGik7shsVh0jwKgBEwAoxz04uqVMbhVR8hiF/eeNIsw9QuyWQ8dya2y8ywezlV5dZ1sgd+Dqy+16X4WIqhR4pJHBlbY0gBzIPUUePi1A18vQFaHD7uW6/SQWBCHlzs41bCscn7SlZJfWwFmmuMTPCNJEChVIv7KAmgWZlXFrVNg3NBYTP7z+4KyT74bFIw5zwgZ8NoAoFWNxAFIHN5D1wvLDQ//Vs7vD3ZuSkjO//trRo1DBtHj8dcwdEk5EVEpCGyfYizE5HwoVU1FexgHC2eqYTgiNTrIPAQD/wU4iNBTj1mb0dvvhb//2yDFBU++eNftpdtsmkzVt8zDrNp7/4A+/9eu//vRYI6OcWt3FtiqHRz3i5DixL1J16W0fZbpTlkM33ObQzqWv0EOFERTECIkAA1kGwL8sCsVjjBhz3m6L3pkPMIcix8z7vD/PdzXfzcdvVsP8ut/v73ZzlOe1O+5jVV/f2mLsJlTbFYy9XYYCsKQ/CQoj2qe1qJYGQF21Qs6HDaN0kjNjvlgZ1Y0mVl4usm4DdnLUGPf785zz/vz8/n6/zxk17xn3eMDqHC0mXiX0t91OKzSsS9gr9iI81N7mcTXd77ZpYx94mnFbYfvM23r/U7H+eSyhaWa+f44xd0E1lP+KcbeRGxFsv7zFJy3qSIjvmMKoXlI54rY8y9iocWjjrIEbbFKGwvTHZN1a8l6XtmFfy9ecU9Fw8iyA8PP7M/KpKw2A8YtchZoBKaGuRB9pse51TM5A1c4sKObenaMvzYNDuwaQHX13sm42srmN8eXv/d7ts8+SuLjyqB2ze+xyuPGY4i+//71f+vN/vuaMp2jNZ4y5FQZhde/s/zYYe/Fg0Tbk6446hUQGpW8+y6pfU94YqgHLiVP3vc7qCvFGtQQIK+MYPDyqot7PeXvYmqeo57rP95m38bBDYzzNWfH5F/d3X+Zt3Gfd8paf1e2TTx4w4Za3eX+YsflAAQ8TVmMd+JVj5xNnRXmJdXHnhbredxBaWAkd3Wjh1AQRr7bRmGZde87NYN/XEY/jsdWfHv/a2YpZn3zytGKxZVy6jHPG09M+tPY9WPHtZWrO3OJOCNJ1/ohI2l03ujOli13oPOy+xXGP1fGjEdJqBtnN7WfE7eEAPh050Rg7UZK8bnh2P4ecdVjvJuApMUMHiO6XNAtna75/bMnbSnSP7pE1V00Fsfy4AyOs6zzw1Q09JEbV1/oIikQhQrSDb5bkUiD7RG4i4/hluhJTWZsML5BFiKH2rmGHJaeaa7i8z9tXBuvu+M5kkPVwiM/f+94nn31rboOIHQV6fdalvnSrpkY+v/viV/7G34BKuE2AUqBcbJ5TltgzGLfuuq7WA6REg306DyRH6YEu79EWsA0BE5y0s3MdeHh/LN7bJ1HLNN3f/fB/+u3f/7t/b/6T773/we//6Hf/1y/+0f/xxfd/P754txm124Ziq919S0dWy8TKT37xO9/5hb/6l7/967/+9J3v/P/+9b/2nb/+b8W3f/ERycw+9yzFalkuPYVPcC6sEcflecdWgjMDWg2Fimz07r+x6wwf27OeP/+9/+sH//3f/vIf/Z/1B//kD//n3/rRP/iH8/MfzedeoPsIyBUY1f0+75W3b332rT/7Z37x17776a9997M/991Pvvtrv/yX/8qf/td+8/7pZxsPPR6nngrMHAV5PR9/8IfxrW/NL798GK75PN+9e/7Rj+vzz+e79/fPP68v38137+fnf1TP97rf3//4x+P5/f3d87sf/vAv/hf/+W30szCsb6OuRHDohBz2qpZ8iysLkqoVtv/gv/3v6rPPHg/7sOO3Ld9B+cLeO6tbbWyJx8Nof/GDH/yL/8l/HCizz681zJqWNoH7Nyo9gFCen5//X/beBN6yq6oTXmvvc+9983v1ap5TqVRGMxBIAiQMQQQUG5EZxUYQELEV7Yb+vlZbG0Ro7O4PFUFFtJlsWnHABpQADRgQISQSMk+VqqQqVanpVb168z1nr/X9zt5rrb1vgcIPq35ff/nV6TYkVe/de4Z91l7Df9Amgw2UE7SOi16izYzTRziOeKgEPdC0KhrgOeFqCn7C5QoehCynr0a2lGEoB7cxcwduKwPuujte9LK5O++GJlj3Eoy6IgFWTjQN59tcJeDCI3ues7jQvjboBF/JlCsehCwOZTKeAwDj3DbKCDOdbUOJyM5L14ZFSMahibHEKX4w1RJAFLtL7f9RE9p3rkL2lQOi2fkH3vuHj/7xH80/9ICraz88Uk2u7oyNVSPD6Dw1geompp/RMz+09VMqjZk9OXbYAedc5dEh9Rf7M0cXjxwmRr/j3Os//Vk8/5yK2wpSC7o4wA/p5B3mmI52WxRHgOIloc4hpbF/rL0IM+IuJhaE0EFGB7Mnv/mvf+ro335ipV4Z6lR+3dru6CrfG2EOrmnrQSfU+DS5dm2F6LjnMEDHdbsAgZrQP3yQTxzvN/1FgA1XXrn1NW9Y+5LnV6tXUx0qR9RWuboG4sMOc3Ofml7dI+rHk3Pxn6FY9V53iwpcjdTxXeqOeMdNf+kHjhx1Y2M6DDQ4SMGMzLutQiuUT0Bc7PcKg46jAUJffbzyndihcA6aNvV3ofC+SK9H1Z6nS8PagM6tmnrWowfb3NP79rT9YxbpnrobOfwXzVFWYm2MF4R1UxdNqaJnTDnNlv3WJWcqBZhILoUDCiKSpOuupHLgXHi95HaoeUOJZoDTvCaeeWCq3C1XXt1fXoZAkGEvkuJAHnGDkr3aqw4L851dO574hc/noZ9KbJYD9TyrYijRRBlBBDkQlTdlgDeGMNhmB7v+RCKyn+H0n5g2BvZt0dN+x9LuPYc/f8PCrbcd/8KN4fgMVJ4q3+0Nu+4ItqUiEROzPbjYlQnSx5fzlZ5KZJW0YT6GgKotJ9F7avphcSEsLPDUxOYXvvi8N/4CblqXkC0+3i9rJSp8tUTQ5v4j80C6DbmtoHAGkrfcOZzfs++RP/z9E5/74sqDD1KvqnrDbmhEwFShSZkUKs4ObSwsHjZMziHn8OBclfpu1K/rxTloaq7r8SdeM/bUa7e86MUj5+602y4bBvBNT7mO9u7jscn2W3ys+tqA67XM0DWT6QHQEPePPnrlR/5k4pnXFxdps0SLigwlArbcRHNyTRmp0W6aeOyGz9zzb9/sfGW+0Lnvwtb2UstuYMe+XpjZ8etv2fjjr5D5eKJkPEaNVEMIXDrFpf8gW3+GqcM2wzKuwMB7bL9pHaZobZ4Wp1F0oeh7lAs5fQoP7tX5C3CwxWUZkigRYPQEDwD4+dVre+s3Yulwk2zmHOJAaSVvDhPQyeMXveu3Vr/4Be1K1fNiq8cweyGWnps5TBkSPr+uPHDnBq+aDX+kQFrbhk3v0u5O+rTl2+448OkbVu6889Cn/9a5Cru97ugkt69VkxjfDMVn5LSvSF1Rn5k4U9v1DXRzUMGv7R3t+LC0FGaPr7n+aRt/4Y2rn/Qk8E7VFigjKXDgduU9Z/AWFRozCaUXoQF12PNb797/gQ80R450J6ewqtroReL2WAzOrAOkyDOSj0YVdFbygv4gGgQKObRJUcf5+fvuPP93f3fLa34qczIxgUTdox/783t//uerySnIUgzpGUiBnxeGrncmahbmRy+/5HGf+iTC4OhESw1TxHGDT8SS8wIbk3wz25p94e57//6Ky8fOOx8GZZHRpjXFnhsXn8NeBd5fe/NXSfhbsu977/8lceH/zCNmV7kWUVCBVoVWoKSObzmGzWg2+6NU/KRCj4qQgUUXyCRIMtcicz91IDeo4q6zYtsvUCbshr6MXzYz631lmuRR3wOy/neBHgbb39rEvr/+R5+L3hUgRGOvCG9NsaAuTzcLBWVt5uX7kGfneqMKar6ztxtNZh5MvMZuMAoKk+DO3/j1ve/8r/Nfv3V09abe+HS3NwIUoKkT2SgjEMt4mYTjiqmdjGZl6okMA6rfSXHa0K3tI6pr77u9NRsX7rz/wXf+pvcVNrHVjWmaIjBPVrxv0VMEi1t6i5xo05u2i3cU4MtPuvah//bfuq4aXbsefORoBuakaChZqVPlKhBqoHABZSFRBsirIJqmL4wCJg0OPIUm8Eqop6+7LpIRrJfoUv606Yd/uFlaSfNouxMy3yubQc7w7HHV9oYOf+GLHZJcU39LFn0GCxeaD4Ulhe0xThJgYgcBEQ/92Z+NbNwau54UoTGoArbW9mLBhyZ8veO5PXs3vvTFbc4cF1dVee/dYzJahZAkBUB1gRTMoKq/GTJFKAErs/cTXzZLCYugCprYQtpBUqUjHax4FDWV4FUy/0ak4VSFX4ObnEneabBIZlKNcPiTf8uVV7hhIgQK1E7wBEWMlEELVq7XbUbGxKWmCNmgrp5oXS80dQE7W2H6aEki1VHix+lAFTJChM0xRe+hgp0kySFTOLLWKnVqmDhnZ12HPvXZITm0XpoR5ArEWPwAElWDqISTTpk4++1AThek2BCMGStjN006iagJof+Nu2750RdBCOy0QY6GTZTnYmwezDWgJexMykVJP3/3L//qZ9as4SNHu6vWUL8ORBitplOh7pBS1ws5V0KEenVtRUjqEAO206XeqZIq0SR64jtMnmvwnbEd26O1eMkQc0QMI0OuV4GxyEWCTRcum3uP/i+6ttzqdTv9lZWjh0CdWLlIpCAjSS2/FJSYlY4MRiBtA1v7Mob6wAc/2BubUPB/HquS8d4S4h5FEYuWl6ux4a2vey1ygX1/LB6GzDUUqDYHQOm0hUpTfCKOB2TQHRYhTpovRRVX1Av6bliPRhe7IaILfGI2Uy+qK5E74uLv2KbUMVna+773V1FiQSNAnAHaD8kbrqeSRPgcjn/f94nOi+nV5MRPmRE5+QKbAYHdlqwRn0FoygGkorSBYj6lODLM5kyceb9smRKjW3jwwXi+wdvGUOS3GuAkLcyxVD6Y9FrY0iz9ZqvdrClpyZ/0QVwKI8NDc7d844bp6bl/+Ko1z+2CSmEqKHiIbP9tNqFE83v2fu2Zzz704T+Z2LDdD48lNQQ5CdL8hTCD/hWxi6muT004cmB5+2BGy/nZg50eM9eL86uf/EQaGrIBk/Ag2/woBITRyx/ntI/KmCMxgHU8sUiPEmoHG9c5+qUvcxbTQytHoliSbckIuudBMU/HgpUWJazcQ+/6HQbXNH19P2ggW2fbD+VzyQE19dPvuLOzatK5x7jzBAUqSAN5WzQOhi1K66ImeU/U/YF0r1YTPbTikG3unx1BmaEABZucgCb8YGYOyv9X4UjI1gVYrCSp/5E4AiNP3HQj94byGC6DNk1DM7+Ucbd00G8mr7oKMmQBVTsceTCMAktAtwGldoDMgQn1Y+FUKELBVuGs1sRYClYWswzNQwECee/7B494jpgcttqu4CplQRSh+Elkztanad9JSPYkPppiElH+kKIbpfErBqvExgI31JvatuMbr/opWl5pLzEQFnEYTEpBs09pDdvVEXjk5siRLz3+ypU9e10bOJrYPtJdzMWufrzFCb3rVAk7XTTZpA2NJ5XTbE3oyQ2wgqOjWmIe9estr3pthtEbNo/b4OcYVj3hCgqkz8q6GZDzRrQRTzztWC9ObN48e+vt3jktQaU3z8p40jzR3iPkU/qc8oVMwM3s3MO/+3udoRFyAsaSk809MBO1Tkkk0tLiOW9+czU1zsQhyP07fSHi/5QjzqsDKFgWGMrh1mALxgqXmLa21bH37T+rqor/J3/Q/ocvD5d+rP1LJ/9W5R+q4n/pT8RiWzHPCs8pcn4RdFSeEA7QQClq5TVHjiEF3+nmNkKJyRBslO7KmBoYTPUyr5nGwBwnwZKFcXZg1xhUdIhsnpPPBsy8F43OKnNu0wtJxHH78XxZGiCzaKVqRqVtF3lxoQ4NO/RmrggZcCj5qeDeOZOQNWIzF88S1I00jtNEwl0fcybdWidPEtH2lW5CA/Pze9/3/jj5j8pozu5xLvmUBp16a9Kqi+Bzd8frf3Zy3Xrf6Qn6IVs1YEb+62Mo9DkRiqFAkVg5yIPm+GwJ1FXZaDbtVVLl6qa//vk/jKI5qtJ9sm26hoJbu66NxfJxeaPT/7RRr25uhEzcWbW63rPHWeaT6nOnMvV4CveqaPJZPwrF6hU83vyiF4bQ7r4VunL8IgBqbfeqIBphp4JjR7f99GtTnR6fqMMz6hTz/9HBRVUhS51zxzYroKUfLqCMZ8zmKzd9yv6kwrs0M6Oi/0TKaIiFQjh52x0h7WdWdbJJMqZ2FOsHmo0uc1OP7zqfoVEPXkJh81CRL0i3TRWOAEzSAHJrA4z6Gk8/wbvTxWjXKiIIbByv1Z1enDCewBJOYm6YV/rUq6juI1BTtEm026QvEAs4VakFEsSEN6OdHftse8pF6z0jxLI2E1Ac20mfrDM+fejDH4rZTgBkQ38MlE8KFs1IciIkfvRjfzn7ta8F6PCAnZBJOOV63AzP9ISS4BGmJWIJC8MA2VnSMYCcY8ZfqLnvoNMGgPFJvWchN9jSTwaavPT7mnolIeHItmoqtnJpaCZcO7v2LrR579w3v0GiK6sIRusRslNKJg24uFm/Ue5Re3bzX7v55I1f7o2NM7T5qzqTY6IbaL1jYZQBfH3y+KqXvtRVvt0nRQkSuYBrPWYO51xOgVz8vzbfcZI85cwpJUOuTZI6rs2UTtcZRAgUI5cj+fQXWmMl/qB10rjMWyBjrGNLwlX+xG239lZNZ7aQ9QsKZSiJh9K7bNOhpr+87rrrMh4ejEmD+kMZW5UTkeKs7U81hBnw0w3I0GUOmYXATLTLptB5m4DEFAmHjrpuxaRwAGsBIhSqe6AlNmkgYjW2QraSVb0dtaLXOr2YMA7U7NrEFCF8RKSw9MjhxdtuG778Uk0SEM3Xy0rlEmQd/21x3/7b/83rR1dtYIUbo9ndSIwsVc5LvItgPaJRiNMbZ0lV+j069TYUVTsGxh6MX35p5U2RuiASxwXkEKeuegL1V8BNRuqNPt/cJtQ7F9cfoRPs9NLK4pFHBQqS8m/b4JRzJMspt+MVdIC5hc7OPfDLvzJ63i4KpPTRol+QlbRIVSEwhKWV48cv+I23UVRDVWIUYeLZ2YmX7wwM1k6nagGAdVl54E++5aeKmroQWjXIxrc5CucO0cSOXRpiGPyVor8BAyc9YFD03R+nLcOK2QyoS2QaPGGRMltzhaF4rXOpkwl6qUuLMDMzNDGt2l3ic4Oit5dUhK16SfMC5m4nNFRNr3LOay+EBZwjL2PSlkGdm8ePcErhV/vKlK1JPWYoNSy6OWhsYCfq4yn+JEhUmpw7wNK9HGVg1j+wj7EKkT5IFk5zd52LSIzmscLoco1tzSBAm5PY5UkvKONBrdCVpStGOlKdu15v6NBn/tZZjuTAeDoKELaaU7pXzvsDf/TH3ZEJRiZvZb7QCvSROu2/yVeLCIGhCuKCNXEdtnybAcs3T1Is+0P0HgGa0QsvhpSGDEQixbY47o5Pum6iFjBmr+r0TydESEqa3M4bEogCdzr14cOx4Z08dVzGp3CGOmS6OuRKFsSYkuoDB4/ferujgC5y5gUKY87XOimJ/+vj1Tezs9d95cbOmtXgzNtSbmF6p1jch9SJNZmOMVklQEkGN759pC8jxT9Pv0gxrwj5Q1KrLdkahQhRjv8n/9AfozzSlxNIIjAJpBFH9/Fngn4Psz7ZpNsTIP2wfGm01fse08bTp+muE12GAoUOPLBLE5bdaC4rJqtyQDRwZu+4Hccn3dISuQEREcF1sr236iYP4Ds4vHoNLS6H5ZUkS0AsFNQ0T0AtnjMUUg2fU2c3El+jWVeQGsAAGpTUepYWups2u6EhE62SkCiZoCiPsPWIi74ZMnvfmXtgbxexckTSuJAZv4s5HDYQIlg8rnL0ITR1Q3UDVFNooD2tSOXvdrEzXA11OZEEibW7hSpPqOMXeU1lOGcJojKmQjU8duJrNzF4pibiPJlLqSx9uk7sLtoo8dAf/uEjH/pgZ2gcIHjtHcnM35JfLtSxdBDnq+7y7Az1l3sbt4xccvHE5s3U6WLl0fmlfQ8t7N2zsv9AODGDseTE0dHOyChWnRAaaOKETpIiX88tjVywC0JgRSCDAU7kfvsAYfLxVy/t3sdpL1UHB04QKYXGpPyWZO0RI3U6/ujf/d2GF78I2EfBiZAThAL6XmBf4kHx5iF7cqHq3PbGN3bHx1nR/MVrQgYF07yy3Z6bfn/N835k6JJLy/ufUjl9sx3YGhYuFGTKtXYLKMtnMMLACB7UElcBTuAUfCysjLwlD/L684ys0Oq3v5DKXk5KOwpGtMEikWXrNrYpxfd0nG4TioLL4njQuwpzJAPLAdjkeQFy5t9e2PGbv96bXo/WoWX7+ERrS1SQZMwjjR5aWcGm/ty27XEfd9Iwoz2jDBYAAIAASURBVKSPjFmlyVJTiVopDRBHgshCxgKSnNZF6r1C/+T8td+8bXj7FuxUoHL4xdPlXN7qgCpdW4po6HD+gQfc0JB1nxQRQm24hRD6S1DX/XqFq2riistHz7uwmhh2o6M0PNwbGUGs2ouoV+rFRZydX9q3+9iXvkyz87435Can2kKEIjMnq+Ww4dqsF2jA4XSDGP3sl/4+iDOj6G5w0bPXBde+8YHC8v2773r96yfOv5jl6iMTucxfhJVqkufRn4K4P3Ns1ROu2PTaV276iZ+oVk2LSgWYnD+LuEpTL+97dPaeO2e/+U3c9/CRv/9qffAgdLudiSkXyVvkkFcWp5/2dGjIdTpx/0YodJeTWReyG7/uuoU73g+dDiZrIcsi0VkDiYsaK1XcvbHJ2W/evvHFL4pLitJyM9x9MWcvajJb5O1qCre/6vULX7mpMz5ezOzR3m2j0Qqvg5G6Pez3r/j99zScaEmaWqafNeJmiWK1OtRePAB1QxCLtNxZ1UOtCyBP550iJM0VAAwRWKaNksVh7jZIzcSQUb2lFn8pOmBZsPh4OMTvpRyE0x2w9EqcFWMo4V+1tQhK8HBaOSKFwLZJRPPlACv9lFCABAwGKHnz6pJluNO0a3SGetOjEMl6Tl1TQBViothI+96liRep2ws0smUGwK5LxpmRhlTAUj364LG/sjy6Yws5lxUMQGwlhAjmMkzN9rY2vMbtsXIOV1biKyS4CvKuU3XCysrc/vtpcWnsnHM3vvI1W1/9yu727exSVhAw6vKwJARMhN63GVgiVeHs7C0/9oqjn79hdMcFkWtGRtwUYXxFjXK8LeaoKMZALjhi3+ZpDk0UB3Q4KVs1JaGUthj8+Md7U2sSs7S9LgxOtgxnDWIRcU+oNebKVQv791z04Q9tecGPAkFDK0SNb3/To/U427oMmiiD3Tln67rtmzf84A+Cw13Ayw/vf/Ctb3vkwx8YmlqH01MuNCuhmbjg/PZuAgYs9ryE7tRkZPz8Cx/pr3R8J5a6sS2EFkXzhiEOtrIPMmO19NA+EqvqFG51l1S7MmW6aV+VVeEfcOHmW098+L93zrsIlD9mDik6kGhvm0uWkcCNR3pk/6ZffEPjfVRxICnd40cTFsFLUnpSbqM+5rSrx+cnmVMOB3ZquUPKwtp1lgcg50emeuIMpUml9Y4V64a2G2n8N6eQ+E6jUlnE3E0zOWCF331vx2nrYZW9ZbvHupdrXOECAqpQLx3HpQtsr80TLD+4FzsdoEb2Lv307PdcMLHMmAfZx79qfKzWAzdRdjVW9iRT+riCXCqmkWWnw0jqZ8fOCQA7ZMAyu1gkMoWq2+2uWcveOR142XQxb1BkVKWcM1P+D5i7956YDzsAbBaX65mjyyePTz/3By/57Xc/ffeDT9t9/7m/9kudrVsdBRco9PtUE1ETHXqcRA9PDA3VAUPguuHx8Sd86hNP+MSnJi/ctXjkYIH9YFQot2x6jEHcoDXnj08mgOO5eWfyTtbpBgDN99OKJOalW26ZXL8ZmBIDxaG3kjA5RmZVo3R4nH147wW//VtbfuRHmjrKMUCVFO20Xeacpc2IEWjjEKoIEw8QaGjzpgv+4Peevv+RTa97VZg55vr9Chx3u5FwTQJIE2GiVBBLZJ++5qo61FFYm0CRAlmrDLRDl0IyYVtdx8g1f8et0byc9MIUQMgwQLmVZi0wmsc3PPyhD/gtW9B6uaocWbBM03S7XWrtySz367C05ZWvtsasYb9lYbE9CW07DLxtOtEVMbXkfcBlPzSvVSaNWS73CdmGACynS/pNxSttDA+J7VRMXIVBQJaulrp5uR0r1br7lxgsnr4poQ3KyPJGtnsR+wWlgWkeG2HOLmVPJ4aZm2/CKhqTOi3LNO8WiDJoLVW09tsl4pPZXPpJzwXZNvlhsXNggoNay2V2rImUy7mm4kKaUV1qhi+/vF3IlXeUGB84OIjR7h2qJabCtKKEIAeApXvu4YXF/snjI5ddtu2lb9j6whd01q0P8U1xSS8GPEQp9fY6lD4W9a4U8gFoqylKajKFZtX1z5i+/hmzX/7yrS9+SW96bYJRyCaX72/RIE8tuzZcBUY8cf9Dk4+7wEURTkngNb9P1Kqo+NNe1swX/663eSsvi3ajILetT5MCT8aCuJXjMxe97de2vvrVBNLSSUKQxKpao4SMzIUhstdUJkrAsGrq3P/0a1vf+AsPf+Qj7nM3tMkyeyZ1NcKyUJF3tNqw0fkODQ/j4hI5cIXNW4ZkaWvK2V1hqvcf5CRbozO9XByxzsQsvSdBaBDRyuHDBz/60e6a9SHmUSw6FPH8OSPPkqNZvDDPCzPXfP2W4c2bGDiIG61OEdpkKRB4yHsQqcoF5BdJ3wZUq+tczajEosJaLbcRK7l8FwbLS+2hqQVaDm1mWAWnpklo4iuovGIrorMQw79QhPD0TQlBWjF6s83/Jf3DYTkdLDoq6dcxBw5yles/tM91hznmEkJtSfqPDq0Ro4V45p+YSJ7OBTkH9jzqEsKu0EzTElXAP2YcRPGAU2LmuL+4PHTuDmMoJixq0ZbTWir10tHEBtLj9W2srHn2nruGLrno6fsevebGG7f/9Oth9ZpAMUC69PUksu0l7ZjtSvJCZVF35zSHSsOuqWuv3fb61zXLixAnDqi+CZjfr5zugtZs6AiXFtXiiGXuJaQTKQtC5CHWjzwKHUdLfW3dYkZKOSVPywxSOb79evPPvzEIAkmR7vrMOCsw5wFF8ic0xGz668RTriYmzv+Fn33iX3+izcIS4ClvXjk+x7vhkGn4kkuc0zo93TiUqksmcIO5VgpJ3ndgYT7JV8u+aMmn9tp1t0T5LIfe4b4PftCNjfuG1Os7DnfRfLWlbhVMfxu66nUve8nkBbsohS9ddKgX0Uj0Vw0edGCYHAfGR8dTxpjtiyJbXbTtL6FAKRNV46dMIYEcnLVzifYus0QLLGayUKzvogONWJipx49xelHpnfsXxZzTVxKi8BXRqhDmLLCSyb9s+QEbfk6VRuR/PfZnjla9oWRZkJYKOQMv5g/L+BLFVesUh+SDWYi6Rug1fWWSqhASvz69XnFclN41Iv1CTm2qwPXJY91161R3gNI4DothWgG3RMVDogyPqWn/vr9w+Sc+ceWnPokjVWgaAkLnrFDO4Coo4eoG/NLKjIXHIf0HlqSWqSGEzW/42WZpMbjUPnJojKuMTMjKPC6h6ckr0kdyJSmgdcWl1oVHnr3ttoAdlJ4fprRVk1vKzbEMOHHY60jLO9VvYEhRpXulq00N+PQHWcfacLjykNFjwxgoyPmyK9LHckWk8TlPPf6K/skFD6U7qwkUQ7JvleWjA/zY6nPz99wHlCXjdT5TuuPKt5EUSO09O/Knf94ZmqDKKVsqcRudtp8pLgUkHVgvHT2+5VWvDnUj9ThlrLJwfJiJQvslQfv0UqJlBwwwAo+2OCKqlZRABibekx4YMeTfVSoV6/fl7TrbX3FpSFSUO7IUoQTRUh4pKkDdPqWE432Px+lDunOReOY/VfKegRnzS8146pyD9bLc7M3/iL6Csjlnd9HGEzmH1/uHXCJC0wVGaqLyciwJkHEjl+dUcJR1o2AD3rR/OD9zbPTCi9CuqKjQIbdRiuthnQ0pGAqGRjY9+1npe6MyqIfCvpaQrS4uG0pQYqJU5Dj/d7JykWvD3vp16374uTElcQClKUb+JJtVcCppmEfWrEKDPahLn2G9owoVgPfzd93ue73Y8zOobSEOnEYZCpqLyJ+G+3V/70NFEyND8xCz5wcZ+Aq/Zf1Aziyj1CpH55l2FxEqeNF7y4O7Numpxi68uD7wUFRGc/qJIndow+sSDpGWg3P+5NdvdqWOIA+ekrYsZWW2CQsd+8z/rg8dZBF+Rpvjaysz/p/m8jHx4fU/9KyxSy/1zmWNInMpSVfjJI8jDSOkfE7MiwSyBICDDMvTjpusPmJ7vtajHEDcCq1TKGpc8Bz1M9m+1aIhoN3E4vHmHVyen5hv/IsFCE9j0x2zGlT6N4d5CUg8MdklWeFsZbTm/ul2Lu19CDkE74wRqwEK1TtdYfPRdISZi24YJxkhzLEHVX7CSGXJEtbqo2gOzQXUPQEgnQYeRvaIRFNXXA4GCMXiZ+UESh/RASQH2ksTESjoIti9sNyTkQJklp3dWu3s53s5kIUrbUXw1MRu5y46cZxMMiw1OeU1Is5moilD90yht21zMn41SjcbKF4elgvgYXEZfUWIKtiFILfaxm455Y8itYzDw7c96SlRYlVO2xV32e4OZulUsTaCrNqdrx7lBrb3Mhb0YrcKWiXldRDRdKuvuGKpXvFSwefoZHWUZLWIBSMCfdVbPnJEtCLlEcfvcJh7GFobxV8mdp1Df/4xt2otsgCOOd142bRS4BEl2vY3vatnj277N29IVB571/VNl64XtjmlE8iH1sZg1an8VqqYtVcqPQBBFBdUTdA2Qg4/AwW5PEhB+TrOnQRF+WDyYMMyX5eerSG/oQCpoecc806LXOpp5BIOsvAgTtrkS+RxU4na59zw1OguT65ZaZqTs8zk4iiiiPKZbIdY5GRA0n1R4CpQEmzKHC/lo+jmoeNJ7XFGxy4kzPs7QfZDTniYNnx2Vq+JCGn5IKmdWMosLhB2wjdUuiEpLkn+PlCpt4KZu6gSWmkIQ6bEZThMmSGbjDlbKRWxAQw4uX798syMqO0G0hEQatInsULjhodOx42NEkPJHcHcf0uLlToOVxbnvceYbsk0C7X4Th2zmFWxPTBE7I5NrBDd+crXgAfvtR3rXDRzE7kW4bdwNtGF3E9m6ceTJlMUUilGdgstZ6cyZWB2NHLBBUO+268b0FstUzCRlFUOihWW6eSHumFpETwXC0+WtOVOYLtINISsjx47/Im/cRyi0SRhLmnJclnUPQURvet0N2+buOqquBYDpcsPbAtUE84Mxy0SUMygZ/lLyqVxnr2n5VI8DlYCrSYBCozn8j1OBScpIjX5XBlZSueJWoyoLRzDIAAAwdTlgMF7/71xcU45TmPTHaw0AqtCFITAAz2nIqnNfF0RpUOAY3/zN1W3K52jgRCg0lhafSaf9JgoGcrBsjdL9BmLVyhjPFEs4xAK6HJpjWIQmnRdPd/dcS72Oul9TfuhKcuAlfVWb9rMQefaGg/kV7hwLtUYAgbM17eJNFjZjdYXwWmgQ0F7qIgTUew3pa0wzqNk0WuWqZThFGc8jG7dHJwhX+XAHEpkzwjAtNIH8ClKMWYKr1aAusUOLDDqTK2e/eKN/3Dp5Q+84x3N3Elud7JgPJ20k1mZaLeyfCm0jrKKGaAo1a2HxUXuEBM8j0OdoYsuDCt95GzLotVPgR+wc47f6KrO0n33CLul6FWUMzVN3pmwobp/0+OuqIaGIzjCFlA5IhF4iMkqnbzvjvPf+Y7UqSBz2NOEncv0x54IlJKDhchcGW1Yn4z1LEqQA1uhmDU/sDzJ4uMw15lp52QLhdZGLrpSaM+r4IbKdMdXpy3OnF61BiQb9XBO1bHsWjh50dlKyOIX0n505E8+BOihIQwJoRDbli4Nw9P3lD2/dA0kibKVGxa6UobsrBkknDfOG2w2EDPejlS4rt1l5a1xnemnPpXJeHFclGc6AklRRJMYzHME1PglE3QzzEzBLbVynCboLCdZMNcQi/GMdFr01SHJEhMMA1y9MMfeowh7OrkYE9Oz106rvqGdO320m3EApUlQezXOkB9xRrRSOynE5DrYZSCwjayk2HIimAgYXK9Hrrfn7b954/Ydc/fe67AKCRZCbAS9RL40eaQsIazxob1NDuwttjdcnzorMyRNRSSBPudVrw7UaGaKNkKWUtC+oQiNhLjw4B6SAszYhFbhI+siijaTeOB/fGz54KFqdIyTeg8o1VTf/VQBOG3ZLcydnLrmqZPPuJ7Ri6YyZv1ey+ozeGuw/CuSAoI8uBT2SBnkXOHcx053bHaSeeXOstxFuTCbAdnvoisw31r7ZbFryA+qmMpDYWX5PUaUbzlOZ8CKpVmmDptWcBpFqENI2iZjnUIJDUUG5ku27TNf+zr7KvNMmUUHQA3HBzhcsVZQASlrYkkGrO4GA6UDS09C09ecvCgyHwyPirnJhLD2R56HSFG+IbGwAS3p04Fixukxw8AeZVhsTcJzWqbdW7biLdfMaW9nIiCKFEeKBsngNL7o2o440hizwvHZzvR0RH2xM6ol276tiIv4Rrj+ysjOnS5yL/PeaHeKpBvo4y/5iXGitoKBnD6ruYmwCTUpaSvsVHUnF32H/aWRzVuGp9fd/JSnfPPFL9n7e79fHzuC3gEHl0aoKUwP4E4xP1CVCFLT92JPFyyYY8wwi5REEcPGl72M+/3kBwDKD2XppJeMKjBYMzKtHHq0/de2bgVK7txprUgKI6BOHy1ujv7Vn49tPyc9F621E5ca7MGiDs4RcLiqnvDJv/QJ5Jl97nPUlO/JzT7IkzhiPpWrY4s/D2BT04IgZ8gF2YYkIKF1MdhG4mAoY8txAbJ+p1RMQCq8hGQjzcHkWi/pX95oL4/TBhx17XnlM6P25ZGlk6xdUBQ5EUyj07bmFK/bFR5g9uTC/v3jF1wURdBItp/k5oeKw8soXVXgBCGQKBcuUS6c6JAaxFNgkGxakrpfKGhLcZOm2yX7hgdYWFz/7GdqxRdQigQopiNpWFSsMwXjsCx1EXgAx8UwLGlxajARF032UR9U+Bweud/0Hz20sPfB5vChlRMn65ljLtRUB1pYoqapT56k5aXQr7nphyYs3XZnNTrOSmwSioW+32R9m9iC56WVat0aWAnRx70oyHigRox8EqjGx6FpoNJyFNUOXCVlI0ZSdU8TQsMlJW6K9Sdjp9tbu2Hhtjtm//4rj/zaW4Yuv2zq+5++5YUv6+3YRo589IwBq9NI3ZSy8g5ggVEDSz90HK9ZSqKktxfoN65zlYeO535dpGsMmUmPNsaVR1k32Cd3chFXjQcyHkXKcQfI7hBg/pt3zHzlq701G4BC6jOgvrt5gbgUmrAi7teLO3/1V2B89JQ3aGDmrzm+/YlOVMEQdWUVmV6E9AIUIFCHaC9LGpRkPcjcDlMAKRv0E8WZtPg+eWdlOqqGLvHFj8Gx4OVIoNKx5vfOG/x2x+kmP+shlK3cUErjHofMBR9U5m2I+UqP3XIzAnrvKMoZ2HbrEFRtCzVopRtBlsFxfxnRJzEHbQW5NEJ2GhJYncXZ+NFxcRAmD3LtgRs3ImKSyftw6FE3Msy1SpoXFmE5Lefi+i2yIpTQMchNBpapIVFKSONuja5emfn6Tcf/4aZw5PDS7t3Lu/fOHThQAaP3hA4jGIK9q3yXouJrNFsnEMGu9pP90BCEgNZR0OGY4jExgz4d12Fl/MKLa24QO6iv8UATKQVcgsA0svO8/vJSb3gc48IxUhRkUySCgviiy52yWqd2/KuxCUZf7ztw8Pfe/8h/+Z3xp1973r/9d5PXXE0QnHMokC3E4r0CRarbjcy3dKDZY1DsaM9JMH31NUv372Y1X8RMkhOZKsWTyGSk3ReHhvZ/5MNbf+5n9IRB1x2INW8cjFCns+c//0Z39VpgxVKVHD/7Jkr7GHGv58eGN73yX4M+EDbARQYFaekq6PtTyyr772+JBFnX9JQ6rfwNhH/q8wZ/E0/9wfw3g3+g1ls4+ImnM07ZcaYClryNLFFXF4c9Dsj6s6KSkMiYfv7ue7tDIzl1dTGyB5Ptw2JG43KdAxiWTtLhI41PJhWU4J4xUGFA9iEqhjmBICSrTmLwibzpIrsXXUQDEUbrHaIQDVypLVU9wspSdFNvFLdh+THoGk4ZpBhf5g6BTeRlc3IJtuq9a5MgJvSO0PulpROf+Juvv+nfuv37ALmaXtOdWluNjBJXoxs2cd0AhtCwc+xiN4Ic+7ZUrGO2F/fIRhWFYzqaSjVXvJ1QgP1Tszv2lWnykkvIx3BFUIj/GP855SocgNf9wDPuqVdgbBVAkOo8b7YWxGO5L8xtKEzvRanAJAECsAtQVaO4Zmjpplv+4bprJx531bVf+wd0EEJ7SyLjGs1nWyz6yp6NKJU5m66JMoXKRUSUO49fduncXXc5rKR6jj1IkpkCQoGokpZjW1y6Qx//i00/+/o0h9XHLRlIYq14dri4fOwzn+9u3AyhFnga2qxRZiLxH564qXzn5L7d573l1yCBM1hIPcXA0sgiZ49vf5yxgGWLQFaXM6K7jarjY4llS8QTpGDRHD/eWbeeamsk51rAWBiyAVkahITOhwDPWFpIRuo00KmklLcyuCjl2L7OPtUo4FhU0FPFL2VbEvRIC9NpZ8k5F6icdqooCmQcOg/UK+Wq0w6AujxFNln7n8sPPnT0kx8/8Kd/MXf33d2h3li3F3Zd7CrnovtLf2k+bl8u8rel7Cbph0qQhPyREhNFGxWRy/40CyQiVehSO3ukfl1tWAvZ9lXxbafwdZPD+6rpzpq14Cpogg4o+ZSuF5okktzCXF9S0tUCDT+pCeLjWhgZmzzvkv6hR2+88KL1r3jFlp/8iZHt2+PjcMwBDYtmYaBIMWxihcoWNCpo1JOi3qZNvLyCI14dSUQZ03ZQu0sSpdm5XnXsazcl4RztbOpeVKyXL19zlZ+aBGpQzGKLQjAnmIwReVMvLHRGRrf9xKukx2HUv6xkIPTWdGvP3Lv5/9/jjN0UBLP+FG4KAJc9uVwXKruFIzf4/t2dqalIf40gR8wyNdogRaWIgnZK2tUzfeWVFNqUoaZADVEgoJpDQ22YCSEwhRqp4abxFEKg0K63ANymUdj+d8PcZjHMNTeBQ9MuKWrav2nToPQRimPMO7J2unK9P1CySC9XJvIi5w3IYc+eB9/ylr/ftuOWa6996F3vxtm58Y2belPTODxSIbk6xJtB3jvFHPqo6qWArDQPEjoPc5aik+I5naczozKraGQcx6CkAjc+7qqO7xhHg8uKgw160qa/HgB3/Ls3Lz3yoHwIKtZR4kfOVnIzwCbcCFkZGKWVBk7vHYWA1Bkew+7w4T/+0Fcff/Xut77dEWGE83FuO0HGtHPRZ2NbdwAZyY1EEOr+mqc+jepaMdgC9xPTJGIoWt6gdKuqN0IL883Bg3JLUt/AikNmx7zvD95H+/Z1hkfS7IFZaQ1GfmDFPUe6T1P3n3rHHdWqqchvL8omZTAkL5gka35aUEuPveNMRnFB44NAqIsK1+koX8DncclGAIFbuu9uUEtedUNCgmz6jjL3jzNuTE4QyP1m/PJL0v7nUHC/kR/skk1x/FMPCbEtW1l81YLMBOMOGf9/whOgl/aMRIyIe0chWijDVmJTIdWBQr7QxqiCntG7qJziPHt/24+96jMX7Nr/vj/uTEy51avdyEgbP6W3jDLojzFIlNgEmUpOHfSTQmRmvqOhjZPmXNlRBbCudIFbSrVbhb6zbq2gMkU2KT27nMKgiPVybMTwplf9a+wNLc+faH+7Vq8spWcULWDGwb4e27eijecxZdYSkcGxBwiNG+kNbdyy5z3v/uvR4YWH9vncC87E3PQYVNlZT9O6bpo4t4+90x06byeurHCnUnyIZMNKHxZh5zxhRMYoIjR/xz0GgU+qzr793ODYk4f9739ftWVnarY6WWk65o2nSSIsFNO0laVtr3h5d800tQVrcFzOgvEMdXwee8eZDFhmOGiuI1o3kO6XBFrbxKgEzi0+vA9Co9g4KSikIW/upCCfJOBLh/XiQrVlGxSNWDbKVuxIY6aI5tEKZaB9YqYlMxQ5ycLVQVMMgyworriEHsprVWjhJHogA3dSUlb3H3zv7/3jk6879sXPr7vksu7kFLdZhQzZQ5sNCKwGrAASzW1Iqj06bDZbZ8gQU/tm6SUpLlLLUScpgFyQlnrNxAUXkM0PraGDComWASdZ68YBPe3ee4ZWT7dVdRXbi1Ynl2xSLgJYTrcsyzJMaqYrmFd7G0Dremj1uomN277x/B+Zf3hfIyk42lJiRdcrUYqTIONATyo9WyLqeJqa9K4SQIDuA4K/YctcNUWMZG3fGZnf+wDbtcV7EWTsWy/cftfyw/uhXkm/o4D/FH0paUYq7rxdhysnTmz8qZ8KoXayMMqCgweLj7PHP3mc0Qwrb032fp8yw9C/iM+1CTw/zw03/RoVCoLF2IqtBsESOYpMbUG37qlPhcqxbcDSJhMQPCmGvPzuAXA35llxLj+4QF8U4B8dI1h/A2Bg+AlgjWjt3Rz9wo03Xvx9e3/9HfWx2d7EFPWbqBYHBdsZbaioUiwFXBoL6JZgJSRcOTvlDJVRZBIUQhlS1xjqJ/oR9OuR83aq19bgABp5cOYpUhZE6MbGr/jTP1tenI3qTJixpuWNFZmMDF3JyPLSzzihm3KYFruPtkANVPWGcan5x+c8Z+6rX1ccI5o7AxcXnm6Us9Ci0DhSoOma658euDEYcw7NihFAg8Glnn3TDG3csHLosPEZuaD9QNXZ/evvGJpe6xSThXb+IGjnbDbEwM6ve/7zRs/fiTJeHSADEp9NsL7b4wz2sJScwuZGWsDgoWibyquJrlrcuwc7HZ0EISEamSmp10J82E4QcpGyhUydTr20OHT+LpcrDuVwxo5N0hBinYwbc6zEoaJSSFnNUFGR4Hra3qbCLqve5qG+vplieGX9HO+q3b/1u7f84HOq7ujQ5CSLjGp0UZUJZxbZM0CAFX/KP5IJqcu0eKfvu8Gq7QQxWYEq6KxEdEvpm54M1SvV9CpwBZQa0Kzm9QmhkYsViQ5j5++6/N3vqY8eAK9lemosWWdRse4JuqFZFwpvuRzip9NK9DlUaU8ZP8auQICvXPfklYcfjqJiRubCQkILgTNOySmLwqV7FwelQzt3NMeOoUdxRgWJi6DMXxANLVAkFbmxCU9pFMPGU/Ap4s4uztzwKZc0axGygLltLWCj4fbjO4jbf+4XSTXCwbBgiXjhAM9Whd/dccYCVhTkNP4k53IKTAAv9zkj8p+YT37z9iS4YlAlrRfFfNMYvCLP2r573On43ppp9o5V7k+mV1JLCU9fOTKsnBeTk3HSaBVXEsqVjMJyUifNHENlEq3Ddigb8dovkvYWwjde8vKH3/GOke07uV4JKSDEbTjEJhtLswOESWztaRBtMRFu07k9sXX22WZ6aMqdzLnrbUxXkSuVFILyZIBDvz96/gVJ5zTXggAD9Dpg65ZLRQnQOFzzIz+4/T/8h+bEfGoSchC+omZT7ZsYbaBAK3mJ4dHC0jr69s0sKQkrSSmKUzOCr3pj23fc/bM/H5M2TZ7N3pC1u2CKXrIA07aWRjSw6qJLl48dFpBuaKQhFiATw5O/vK6ZCDxw7FE1g1xSbCR0QPS166+vJiaiSrQ8Hs0SQVTgVcUoYQFP7L537LJLDGQia8lSwUKh6uzxzx9nDNaAxR5jmbbm8vJg1Rc09i/A93Dxvnt9b1hrM81Zsse59j6EEZNeHxcI1j7pKRACJ+WWxMkwrQUr/HJtSsWnyveLKSkqUlc2zKzKb5ZJlitqQaftMilTKVWMKVk78ld/PX/LN7pT0yjK4YrIdvAtimaCHBWJf47afpRSBBflDZhX+hz6YaXfVsHpCpqoWF/Xvqqc9w69G52wp4oKUnWo4CFNV12cWxE3U49/vPoKmEUoawtKXaM4tagV+ADRPwdw55vf1J2c2Pfe9zTH5rvjoxw0EUxMBtZZvULhi5AuOD0UEIZJhqmNkiBEEq+tqYZGZ2+5+ehnPrP2Oc/GIKjSQdKy4Ay0YJTQaoDrNc/+gdijbCK2Ap3mwNYr1Kw1DYDi/WoaPzzikqZxBLZEbz068KGPLN13V3fLOUxBbCZYYRXaB5CWGyIRNcdP7vylX0JKyt3RZBv0PjIy8lnc1Xd/nEEclhztjiIVjyFJDXjpGEPC8XFAqPoHD1S9bpPSAIcKPhVEojmnyQsdc+k2BZk5NnTeOei9dKri66gTfXPbyeDzeFqYzAW0QSGIcOkBJzluNNWX+Hq7VOjJ+NECoFkgaV/NJ7feQEyLJ2/+sZePbj7HySlzDnfa5NKSUxvd0bW44SC4bs/geryytLD3YayXa3Sd6dWjF128+rKLq127Ji+8aPTc7TA5jXVdQbWyNHvoL/7X/j94n4OKnJC8rHKVci4hV4kELFJTNTmZAJZkOK3s6muUcZBaXGtTm0ts+emf3vq613/16quOf+MfJ7efy0NDXKcLjPbFKYQlGxuJJCIenU5CqML6PBMjwkGWjoOEEmcemlp35K8+seHZzw6QVTtA0KG6JWKhvRA/gUCRMSNDo1ddQXsPuMkpn3DnbE8As1+1QqJiD419P7RVpNzCNl6RwwMf+uDIueeF+WXwhUAiKnVe1nvEOwO4qoe97jm/+h+TARtLvCwMASHXx2eP73icMWoOZ9qRdnwUoD7ARRauQwoex796U/QKCMZ9oRxIpNIirSFExtD7xZlDI5dfRqopkrvM1n4yB5KcdcfoRyZ1nUpBxc4bl03pLST6EpARfmDz6BQTHRlZEDAg7Ptv7zrx2RsmNm6BYo6lqMyypktDO0STKIxF0/KJmeln/MCqqy5bWVxGh1tWrZ685qqJy69wVTeK7qKT+aHzLinvUg/XRRCGk2Qj3QNMjnzaUksveXy5fKfjxkawwujNWyWIh0ZhrXxtDoFWvmf0AKfiHMNVX/rKzKc/ffL2W7EfZm644eSePd2JceiNOgyspv2a8wgzhouJ4Sn0PgKXdTki5SgqNNLRG/52+fhMZ2KSo0+H9j4zXdqYc9pE0G559E694DfeecdLXu4oiLShXB+rrQKwWQekMrGpj3/1a5uJMBIhkmbIzJe+vHzvA9XUqiTmVwpkW/ad5CWTwkiYnbn0v/+hT6rPOtiRiytMWWSQe/b4Tgee4sl0uo4QgiY1BMbQw0KLqiCuCCJmdvaz5+7qrVln4Ezt2mv7RKGHWUwjCvwtPnj3M47P+PHxjDrirHpVeNDmMKqxBgeunxXQZF2oTJFT5YhMuRFSblShK+R/48fsfstbD7z3Pd3p9UGg0jpo1A5zQX4GI1tHgtHS4uzxTS94/q5f+dXujm3IjkMD0VOvrQpRUkeMKZx8lGuzEwrsO/7mF7ywue/Bpt9X5Zh8J1yK/nbzGaqRId644ZpP/jUkAiaVUlOQK2DWGwNFqIJsB5j61LHS8QDkAE7e/8C+9/7+4Y//VbOw2JucqnpDlOzS9b4hm3i9ZRhGoNYGvUZvFv1NVy/N73z729a//GU+TxFKExx9kqzIpmKsF+mL1efPOWdkeEKs1pX3rg9DEWXi8AueYWXu5FP37eFEEYvNzi9deaVbCRySsGRkUGB5ey3jaj8trCxPP+Vpl3zgfT7SJADyHvgtb0wiD56NWd/hOFM3yGAueb6b6yAsBzOi3kB8+NZbXK+jfxxbG2L1iDLQwQTezKqZ4IGorqbWdsanWNKrAidQ9FNMVSpr+mSFGcNyx2Yvpz48y5aqgyxNOozpZVIcqiQU8YEu9pT2/j+/7ddsCiwTIG3RRHRhvBgrakIcs1FUV23qhip+1oF9F7//j7rbtkQrV8KIeWbvKCrHQMNtcAoxAGBSnWk/P3qiweJtdxClVly683pqTgiBaNIsDqgOq3adF6+WfPThtEFu9rwHzCPIArmepFlQWfkk0CaK1TyO7Nx58e+86/q9ex/30Y/OH35k9p476nql/QXyZViywKSxyaSxUnorfUHnkH1FFVS9ztLuPd2qk0cT2ae0iMWixMaGYU8fHgDGd5wfzTqaBM6LyNOBbRRZPfNin6yu+7BSsydfeXZ48E/+pH/4SIpfcabI4FE1kLJ5GBNDYPK48NCDW37mda5NYPNVgkkJyj+jgCGfrQq/q+NMBSyyoZK4hQBoLmGNLHUpiQQKhMP//X/ExnJA09gkGaWAjY6FGpoWWWRoLa2MXXO1gHnQsJKch0WGXoWknUXaz8lwPXN2FIUuEMCR8ooAlCEmcy4xYgXDHTJh5CW2r/2D7/iN3vQ0UoOmViqUnDQaSn49JtfZ7vXkuFla7m1c98S/+7IbHXEUVC8UDcdqbf14PlFXnWwmGQFoTbNy7AiH2qS+2AaQSUcrXrDTYrieO+5WT8VIy1HyiU3IS2m7YNNcLJD9YDxOQ9TroCN+K6FzbVDgsOoZT3/24SMXf+R/TF1zdXP8MFAtiQwlUTy5PVxYEFuQAUNssQyGfTVSH3o0kYsj0tSQTlAA/UTKLFvBujTeoA7A+OMuq5smTTDFJsfokgCQ++WSY3rmhd27sWEKdTMzc88bfrYzPAqmNGyLQ/ZYWRsY/Xj5xOyGH3/F5NVPCOCSp46OAbK2X3qU4Jm/fdp19jj1OIMpKFqogXIVgv63acokUxB85C//CrtDWiYqvVhrBpnHc07dU2AJoX/ev/+/BHqnDssGVbJ9V/+joHmZhA8UQGZH5T4NUCRXyufgFOAM8yWNmUgpJpx/+OGH3/U71fBQ6t0p1FyTAeRyNgXJpoGhnjmy4YUvvOpzN3Q3buAmRj9OOWDRfUZNNg3PjTr0jK/ekb/6eNUd4VphCVj0opUVmDv86JaPHRvZtiOluGbaUn5Z/nfIl2+JqmZbAkkQNIBAM6O7Tfqvbmfri194xYc/fNWNN2580Y/WJ2fjvkANc8EVluTbsjgLgqn3n4pa8Dh/592pyoZCi1PTPlCsC2LeouRwiNzUYxeeH5aXksmhblKDCA6ncAn16168/fYqKk/sfdfv4PSqqtsxt1I21eYUuuXP2pDtnR8+d8cVH/yg6hw5lRRksDPTxE5T2bPHdz7OWEkI4uKk74Bgf1nlLjHlCAn1wsyz87RwohoaEkW+pHElarMxhSgAeqBJWpuE9etV1zwhMlN9BARpPZBPRSddrBVokTSgs24aOlXiBVQoDuQXKJcd5eJKr74YUCB6vvWHf6gaGo0O+aTjNKsbHWhrXWsuqKOe5fpnPvOi3/6v3Om2sccbLpILGRvtt2QzItSCLUq6V/6et74Nu1WQaWqugYVVmaJtckOPn18vLXU2bg7yGASGypjr6azjqo2qgZmJwNtcLtDib0ZLWJu6toVo6DhAGj5v5653vv3qG244uXc3YiWVuViX5gzJJqeaixiaLp7P7An9KWlKcpbZKjpbxRmpCnW7F009/vGhbqQPqsTThMRTAIeB4KKST7e7cGA/uA746tDH/md3ZIpSdBWAQinLYPtbu2yXT86s/7GXJ79ez1HoIkK50KN17Sz91n35bAPrOx9n7B5xkWEx5Mcqq0z0S4ylOnvXHQ0gu4q1eclgYn+oJBx99QUI3X6K63SakeGIJCBWcQHt1CthNp+VSM4BFzBKTcZyfsbm5aYTxpwqyedkZ9iEewB01MzcfOvSXfd0JsblFTa1QtJroQLNFT+9i53m6LFt//5NTSDvXbSkUT4Res7RwooGMpyiXRI03Dx65ORdd/qhMZ/csQo3TtkqUkoaTCssAMDkrp1JriCp7SjPWsRU5SvIXDs5Dyw4etQwJxY2Q8HyVJy3Fv+Vj40t53zT0MglFz7pc5/rzxzGxCNmGyHnlWMhKEHjyLFTshXV/YT8RbWNRltKmVojAiC5SZR0tLkZ27WLQ8BOxVTkh5hYlPkyBUQFvhoeqWdnCWnxrnv6x05k06/0zwJUCDnmIlRd592Wn3wlNyH2LVRxJym7aR4KYLROeQRn4kV8jB1nKmAlGfZIUNUBm4FjdGYmHeC4FZ+8+ebe2LBjzqZ2STUf1ecKi0CjWD/03c4Fu6r4clNU4YNctRVT5vSR31olllw+iagEeaXrpjkQq8Aye2Qj/yfyrjvw/j/q7bqYiNT6QRmCLnd2xTtPqwPswLrnPHPkssuSU7EIPkg4C4pOgKKoTk4dmLOnqLj+wDv/88ja9c7FyZVJl0iYsZ6y3NP2o5dX6sr1ztkuYgUCkC3kHOw+4cDdzJNEwZaCsT5T89ksilzatCiwyLJEpHiAySdf+33vfc/Svt2YjCdAe5bG3FQL7wQcS4CRdDq1i8mKlIW5qYZCgtDKt5yoyJiH0Xd5bBSHOogVmcaegiDkOjE3BBjYD3VX9jwEgA++93dHVq9poJH4RBn9b7MDsRlHt/jw3nN/5Zex13Wu0rw1L8JM4MmTqLP9q+/2OGMlISuiUoU+SukRVcCyriutPPLw2NYdlNE3qI1x6WcyD/jYyhSImskLL5DXNhqw2PLj3MS1yCRLGcrmFOQkDPHbLBvOgdauTeuG3DSJSZSHR//i477XY1LPcSEvgu34nH8vXpjvzD9w38TTrvchWVSb+BuDKUzrd2vMcGxtPkodFz78sb84/NE/605OEUXXiSwdJ7cb7JUnSBBRWllee9VVloJoAx0KOASUsyz9KC5edMgFssge5GlGwdVW3mVKDh16oLUveH5n84awvFQ0+bCgfzv9UoVakJzj0OppMIgfDwhFlDsiDypYM+ljJpp60pOciAcV0ho5vEHeUmPcWj46Aw0c/LOPMTsjV1vzwLLSWPK1/9LMnZy49rotr30tsCsBgVj2BvTGKAyxfDnOHv/ccebIz7JxMxcxRhn3kLuWsp4W799Lvudsb8sfkx6s0zhBULQ56roZ3rIZJGFxOpFjLnz9pZViOlJldyu/0qYeilkgId0gNuswzFGDpZSRi4wmw3R8rgKC5ZUojqShAO1lFEVDFrOz9Acu9Ovhiy4AJO+Scq+9PMaH1YlZOmcDKFHi7DAtLdzxyldVE1MQyBVAH7nR1p+OhMGId3COwQVe94znYu6fWwtaylF2uS2VX2nJ/risi+RmSh5W+HCB8ablh3ziIUaGwqprn8xNX/UoMGv2gIUecztOaqfgwPe2bKXYMU/MZlT4AtqAMD/cPNGUQOjbRGfi4kvq44cU4eIkXhOfsi2YAlh98PDBt77DuU70NXNmuybRFVnV2ZLUd7Uyd/yaT30ikhAt2qOxm7V/aZmdri0+23T/ro4z2MMSWHWh+4NZBUgTgKT36HD29tuAHEUlBALNR9Q2EpGM3q7eEPHP6yUYGY0gAIcFlCKvFEEQWKdA337tGms/W50uU0UoZLWcPymgGa3gNKwPJpdcxJmbv87OkXggSZzKGQCbfjiw6VjFkml49RpwVWAngAXOchY5GlhBrKli/Ktw/Ks3fXb1ht7mLYW6TFIrsLc/luZOeC+pd0MIITSbX/yjIPN2nYlp51Heq8Sy1GeZOmk8ACA1Y2MN8sxQ9tegGGamN1Q8uZFm5vTTXGrLOYG5ChCeGbInZ6wKm9DvbdmU5Ng5qDAHiQVTvE0O7X7JRTDaUJgqBuxs2rx8YgZ8pU3SFHNUcs2Atpx4nRTmTjzwkQ90J6baUAvZK0siFaEmUfHZNctbX/Nq9M6sLtPfktIfybpz8rCI+dtlsmePf+I4cxmWNmCtvW1cVigCSxqFEdczM2liFomnQlRBa4lzAS4A28axaeqhbedQ3cTNTVw/Med00RI8sf91k9PNW3sLKK0S6eJK8908TRV0aJlHXl2Z5dp+QuUX7r4Hu0MAgUSxK/uCszRrspqBkIHbCg6a5T5F7QZtrufNuZAuzCO1VA6ih+Nf+NI/Pu95EzvOQ9+NJBzUHy1rjFxXqnFtVCcP1Lt4p8j55qI5o1BQf8VEX1IeZnBfk09JHy9tbCz7XWLYnsxF5YFEUjg1dOSLX3DDIy69zlI+o0hXqGOXA405sUps5udGdu4MdR0BuCZFATl50e6/hTrUXmoKewSw7vqnh5UViKaNijLjbFKGxerkOP7tdFy3hwJmCTLp1p4+iwx4fMTON4tzO//TW0KoIViWnB6aUs9FLSkzwtAKzLPHd3GcuUlqRrID6siWKTMX5P1tf6g/M8POY1PLyN6ZEoLT3FsqBHGN0H42OxzZuDFQ9oOmCJcg9UeNq4u0Mkr8fyfvn69iQefsPdasySUprihX59gzuWiY4FyyyVOKkF1aKhx9c+IEdrqQPhHVOdd8tXTdyt2ROSc1lV/Z/1BbJEE2fkOb+YPZ06UpU/IXYldh/577bnrec4fXbaibRhs3FoiV/1vGI8kV23vsAWG446qqaC4ausjudqR4M7X5j91hTpLXzvQQDajuDBZFRdvazjxmmy6JPCMf/uxn6/lF3+uygmONguAKGUFWMXxx/mn6q576FGiCPAW2ZMfqOXGl1pkHZFRV8m9GHN6x3Xc71NR2c3U/yUwmJWNwrubiD1i41ofPaoHdPkqqm80veWlnfBy9N60ZuQxQCr7eFaNPABap/9njOx1nbEqoRLwi0ZJ3hnNFI6t7ec+DVdVBSoLGpUuzDBvld9jG0OpnWzejl1zc6VRp2bmIGXZRWMELD42kVRoCUCw2iRy1yT5SEGFOSuAkrfRKxCizC0knMBVFou5JolApcO8kX8wUUsETpb0QOS/FKDvPRWLJrKa8w+u3zX/tJjWE1/4rq3iDVaZanxIH59zut739i1dfPbJpKxB0vOLZ43upKvKghYreTdRiJOoFjO3cBegTpS4dWFbLyTOPYGH3gyfvvJt9tEflwAgBxIwjFdBSonOBitQkzYjN9iyDC8kB8pH3vHvi3PMpBOE3iaQNl7qfoHUXJCc2hw3T2K7zBObFWQLUXI5Yi/lU53IGkGvbM8aayWueSEtLCkUW0Q4jaOs/LRdngeaCcbG4RBwLXRt9feLY+p/4ifaWNvqsC9g05j6I9jtAkRRwmt1GH8PHmVJrUJ8+Hd4nzQDUVABMsKj9t5mbvo5VlTTd06xPxloonnCZ8AxG22rXQmd49Jbn/ivsL7vYB1FhNhJnryRNEr/DcwJe64JxTuXu4uE8i9qgLCIfawZMLsSY/P6qpWOHnrF3H0cnG7R5D6rZeFyDniPuBrMcg54ualEs2UpsJnFvatWeP/iD9T/5kyPnbk+Kd0JC5jyrUwYOeHRz37jtgf/4K3O33TG8+VxHDTl2bUnlCwudpBJjhG95HpZERaZbmLzySt8W4ewMx2idJ/k6B54PffRPdv/Ou8e2nrPpJ1+54YeePXTervZbPFAT7edttupEjMreTc4T/KT6E0NMB5H8Xa95zYk77q1Ghr3J5usIV1kDGUiX8mwi9ggbf+i57cd6LwM+ttQz/zOnmFAwbqz35JAb2vXWt3/zxS8UsmUR31P1LzNpRZDCAMoz63qhbQLxCKG/6vufMX7lFTYAHOTZ6+SkAOJqj9eaWmdj1nc+ziQ1xx6wKwd3iut1moATN8eOYW8oUpnLTDq/D+hs7GctmQiy7vRwcRm5ogCuzw59W7lBp/I97zoI3rtu5brtv3tfVfHPq46reh6rjhv2bsT7Ed8Z8r5TVT3nu77Tqzq9TrfnukN+aMh3O77b9d0hXw1Xo+NrLrsMvMsNbTal5DY79ENDQdr/gKdOFZ3+K6ptV1KZY+ovDk9N3/Oqn0wuPS4xGJUakMBRjgmaNjF58O3v/MrVj5u7577O6IgPdZutEFFkFIOMzlJBXVLA4/8jNBy5q5CWF/3a1cLGzixhezMhYcsdcThyYnTzOQj+gbf++hcvvOh/r9+47yN/FpZq772vYpSMxmoYqJjpaZsbdYhXN0CEHe/A3/3a1x7+278ZGu5VdIpjqCr4yIlIxceRceWaun9yduK6p3lOBomYGAZQ1FIOc5gq56tSk6YZH7FDWvXkJ4aVPjoP7CW+6WxTXQiKcUkqgfUcoeiaWUcKAJd237/1p15HYsnBzjEWHiCDo2fMHT292rO4hu/yOIOKowhmSykP2DqpWcgsTaxmZ51PFvM5mxCsadqGgrmImx6TDHRCf9lKEa6lFc5JJBIN957UT6zmijiEvK8hFjaipLyNBICOxqzRg6u/sv7fvD6BGJxNeQTbANQQj09wQ9hTswS2LxAfRdmxtZiQtIsx0vr3/e+d5130y7+8/pWvFH9jMtECIEY6eOCut7z1+Kc+NXruxZDIv067VrHXHtMyKmZcoO8Kq84TpJefgcLC4sjO89o4YgmJg6KDLSqlDHjs5psq78Pc3NiGjbRpa1iY2/3mX7zv594wds6OqWc+vbdl26bn/lBn23bw3TZFFYJSSKWZjzV4+7p3O0sPPbz/j/9o//v+ENB3x1bFua9opmoSo+JUmpeQNv3aV39kuJ49sfElLwgOlEqPxuKTPFYzNUrXqcaNyQYawQVqc18gDF3f27CuvYEUEj4l4UAFAJIK8eRnwigjSlBlXC0SrMBGgqWFE2v+1fOnvv9pIlkkgbTIlLkYQ6Wn75xNEdk2lrPHdzrOlB5WE4K68KrSZtqUrD8u2x4Eam65/vub47Ms74+th+QHg7bdpm2OIBOT2fJrwx0UfaAixzYDHy43cftfp6pd0i2Xdi2bnqhzvpmffcru+8h3tOGQpQvaYnSlnv3qTbe9/Mc7YxNt5aY1Dp8iJ2DyBipoIe5aDhB9Mz8X+iuj518w+fjH+bXT7CucW1g+eHDms5+mZehMjGLVYZNGx1yAccEH5+LGFB4eehPjI2iOH33i179abdmIvlvUUlY9chokOsLPbdg0vH5j6PdT81nDv5MtYWmhWVxgJj801Fk1OXLueUPbtvfGJxoXA83y8tLRo/O337W476GOx2p8GrsdaIIGULQQbkPMEgIj9XDsxtP87NqXvvSC//LO4sUvJcWMk2PoCpmnImdQqMTGhny3uuvnfu7YDZ+T0UfRo7ByzsIfsjigCL1G8QppeunBNcw4PnT1zV/riPa/3PnYBcyYUFZEmCSObGK6OmiNfbrT+RI+Fo8z1sOKCS9JuuO4ZDHIHi7oGe/cyv5H3PBIQgppD8MpJy0FMJdoeOgdyIyI0hCaVNc3tlbEsQG0ZYZ5zdrgTOm76oGXYpIz4S0Azs0J3eEdNIcPYa/rGwpaZHEGnrbF6KrHXQp17bsdpibnOBryxH1Add5kZBcnV04MAUM1Mtobn+aTiyc++3f17DFYXq5WTbuhXndqXVhZ8Rh9/aXaEe9izOABCdxlFGPTDlTOUxp8scPu1m1Q2jboG8ramyYKXBMQU934lGu4KM8X75QjIkDXG8HeKHQd+g76amn/4ZUHHiIOomNT+XaB+Wpk7aYQ6vaLQoOYtKdTmspCddeIkqYVyInQFbt2HIBo/pH917zpTaxUPijhvzqT1XyNhTtfEpjEsyQRNJGbZnj7OWF5xfeGMSlqc5a4ti5ajIgkd9WyoOJWt/cvBKgXNrzu1T0nTgHE9nAg54EAxifMyBRQKEeSgTx7fBfHGZNIVoFa7a1D0flM2zxLXArQzC10e0OymaIaEciGm5KHINuU5O4sBHttI8S/Q8qLQ1xi2BQidHTORWrElDkrJuIsSZ3WsfETyLELdV88ABOr2SkUJ0nkOAeTUzA6yq5iqjEPhdigrqCB1XosOhtLp9l+YugvcRPfs9FxHJtkpqauk2yLuSboFs1Qxie7tcwwKE1oW36K3I5CtXodO6hcFWxIiKI4bVUYslvYvRs7HQghOJHQkIzc6QAuZcP9AFAHUSs2xy1q4x0EqJfa7DHtPKZaZsKekPlUyc9PZPykCU3sfP/wgcd/8MPddWspzXJMcUc2ARavI0shGVRbO0+rpePkCMkBNVNXPv7Bfr8aHopuSIRFlZczMhic0Rr+QxZYPMsurpxcPuc1r6YQonl5anNoq5VzaQ456S2pP+mmuqKIP3v8c8eZk5fB/IyNMCVvVnqMjmVeDNjxCgtPOnWcn6c8W5cBPzpsy94o+pVWINo0WVUsJQrRoMxCDl/MkNX8QCIBg8Lkkep+cEldgFCNssDMqpLXHdPGH38ZzR3D4gxy18qwGmzWFmkMmmRABYqI6Hz7diev/WB0aCwh3PEjS0carDyvNML8wfI9cdK8BtXybEOrm7ricq+nAzZ6zWpbcu/nbrlZ4Fga90VyJunn6+KJDWvn0WpGdklnEb1Af1l7l5gBYmxAXWNMlephamVI87M7/u9fWveKHwuiOqYTO5QNx+4uG9gf87ZiwH3FcwmEfvLaa+tQO6ywvKtgN8oK+QJqVi6s9DPe9Y8d2/aGn8GJcYBO1rvJD78kZULRrrIztFVx2l69x/ZxBoGjxp5KQxfMwshCQUmDQta8SqxMwdtc25l1gfatDFCpL5eDcv5iVuFQ1Dm6RFKh6EkxfypWLB8s1ptp/ARZpC7mUmFhYXjHeZAkj1nXInIGDsTqbsuLXrS47yEAF5DSx7HOBeXy5NZgW+ugvtsql4JRtZScQpoim89xUjZOxQpjxIW3/xsYA3j2C/ffdcG7frNZmtPKR6lpSbiJNUC4JLOCwfnRiy8GhqAhyqWRmwBvpYr0UC08tK87NOS8RyyY4sosjBC1qG7tIBtT+LYyZ07urynTkJEoiVKFWvo7kO+UOx3HoaroGKFugK5aofrcN/0iheDSLMLkFNj4jU5omQ6yqL+uQCwVdmzK7BxVvjc2zt7H+pVzJioSbhY/WFenNCcQ2XPKqB0wLR87tPMXfyF6sjFmVRInWbUrNlNOj0O35cRidCwLLgv/nz3+uePMcQk5T0QcW93FwtgHGw3HNyYj/yKuUWAstmpSCmJ2JrmznH44153KG8zdr7wIiJlYSYmgMyCCQoaNBc2phqwxvWkXNBFtfP7zqKkhm5wL5ceqyMAwdtml4896zsr8CRcUTGnkvHjtbOkMQYb7kFSdCciakPkKVowyFJAjcgpvjOwdksf5Q4+c+463TT75qVTXAnaTCMU5Z0mxjlB0Thy44W7ANAcEsYdVbZes++sZZk9wd4hY5BTVIF4jl6oUWHIo91IrOmMZakTQG8uqQJzuESXdak6W1KgI0tDvz+7bfeX//NPAHKMRDiYqtnEoADRp/GmJmBB8ZNBTtjyyfW6eafyiixLvEkpJLkxWcVlbIZFdVRoi+gS5OHFAWpk5ctl7fh8nxxx6ImS21j+ZO5LcKxSHs9z3JCsIv61KyNnj2x9nUA/L5tUZAjQAJ4zPP5Brgh8eK06k7P+AFZRQ2PoVzPbiYRvMK/20vi36VZag5z/DrPdm+D3QZoskf+Id1/S3/8wbIp9DPS0YMtMX9bVFvPYTnxjdtCk50xkyP8+pGBS6wXlYCsl2n8UAQZl7LIQX1sm68E3kFap48eijV/7pR89/05uX7r4Lur0QggLdIcOy9VUUfqZD8FW9spRss9Fmc5yL93TChDBz001cRWonhIzeNdNChlObPSi89IL6OTD2c2CCe9mV2pyu41wlNeeQl+ZHLr3kh47PTj7lyaJgH/2RVdqLB4SNsXz3zSpQc2+5q8CDm83ENVfVczMxVcK8pGS1MWrHAU0L0RL3GGsa4lVPeerGn3kdtpmuhOvyruTZpH2zTsZZhUzilplMKfgMzesfY8eZlEjOjYC07zIXjUXZGonm773PdzpKAuO8d4vslJrCs8GbTDMByvYAayambaXcl8BSki/3FKQaBQKj2aCiZ5x1bh1SRAF2d57jq07hpmFXpjszOnIYvLv0wx+ZO3oYquTAWeSFkPKqNEQSxmyOmXpGpp6VDFbkAiL6Vm4F+nD8WDU9fdXffHLqWc9qEE/eeiu299ANQr5xsJmS0kfyjKFpXPHssXhhdfjY5nVz99zjoj+IQQ8QB3BeAIUMlpTuLH3I9GnSgIfc1tRfx/xBKtbD0V21H+pDj6x98fMf/7/+kirqGNvQ+gvZNGngYRQGhZkVbXh5tKWnae/kVVcvHDwQ2fF62wSDw2JKDtbgKvJGKe2wf/zorv/ym9gEAmuApAIVnH2fpVNgLUpdoPoW6G096/H1XR1n3vk5myQXHIg47HEBKuePfeGLkZFDKYdP1Lz0iroI6Iv7n2cIyZDBQbbpVaYES3sZo1yKdEXEWlhxNuXovv06V0y9AjlnBYOqm6axVbuUqmr99U8X+Sl777Q9k1rJcVYva3B41znPfmTfp1dN9latHx4fj8WOD9iemE/2LxTlBkjETSKFlg3/heDYpw4TAISoEOyJaoeI3p+89+5VT3nKk+/6RipygWpf+bm776lGx9pzoKCNNio2d5E2SMOo/tyxrlj8kPa3uOj0RBt3gKWbb2vrsDT88imHzDW0Cknlqp4V6IF2Sbr9gCt1zFwC0rZ3sHFQJUZ50ux3c3vvv+wDH9r4Yy8NIZVMnsiwsBrai3w5a0BaMWazQgCLUCBAUFQ2T5s/bnj2c7pD3f7Coqu8q6pkHKAD5YEUjbPsRCzskZcPHdz6xl8Y3bHdYH0kqxpyEfH/svcnYJdV1Z0wvtY+5977DjUzFRRUoYgoQqmACGiIhA5iaJUEQSDOJN0ZNMZ5aI2KAedINArGVsGpFVBwAjQio8gg8xwokKkYah7e6d6z9/o/d+81nbfoaD//vDzf97X3eSiq3uHec/bZew2/9Vu/JaPcyEuLWtQr8SBby5xl/p6H9dtec5YSahAkCkrqbSTPy8q33XrwxBpqGh7WVsCIANJSOjRAMZU/iinL1OSkPjmpIm+Wk2T1IyJuIiyTxBLnRzxtPBOWh/8P+bczL1Amb6kKV8YbAjZQUexPdZ72tLqAMqKsheCYjiomT+UmKup2jly/cd5z957pTybAQf7VQqBO5UcTz6Iqpy2pzBXw1C1uuqU8ASrFELpxYqJevuuzvv71A3/+83LLTMYn2nrbLfXQQSehh0bmvhaZe5U/HZ68arBufbVkiUpAoM9EeOGGv/no975HVBMJ+JZHzFPickUxvMxOEQAJ1KDosDAQSXyNcwpsBSFFjJhSKsOqw/SGtaMHPn+/n1y44/HHDXPbgmYm7YLkqgyB9fOQApSUTFQGDYSA1n9uZBjlrqMQl738KOpPhdJHow/fF+14n4lYWN6hqd8MpqZ2O+mNXvGUw1qDDJVVU5aFMQ4nYIvGdgXwyfPvX//Baw5bc0g7gNHvJBHMZH9IG26+EZoBFHpPoYMCUhm3lUA9Nar4SszDA/NMAdViye/P82ISyZB83Q2lNSZwhzLTc/IYdTEZvgdVSKXUJEo4NROb2Nll5wSNOXM0aIxENFx4RXxwU7d3wE9+ct+HT37kq2fW8+dTDusKE4hpN/mG3ET2YoCGb5ejAayrKvZnmqmt/Zn+4gP2e9rbPr3kiP9C1nPExbGIuOW6GzqLtyuiEblRe3itlPII0mHOG7lnJw2jt/7k5PyVz8uXGYamDfQKtKlg+Of9552TpiexqqtOtzM2Clilkh4OFzll/mcIrrrm+J8c7gShc9p4+8gk4uHbVlUzPdNMbJqcntr+RS/a66z/ueSAA0Rzwcp/5T1TYXBBQbtbAoKcbKLmmYqnebJw8j8/XJuAGGnRQQc89osrAKxsE7SbSlvKCB0En9WQNq9/8fXXjOy6DHnaoDRRCNeuBGTGV85/0cYG2fuW1zJY8nsM63d4zZnBKqQZkXnjKB0T41IZGyqGY8O118C6jdlHpVRiLKwDpQBQZZ5fE7IMeQ7ZI8Uslju87jT8PiuU86MOQ5dNWjbPb1LMYsjzYkr+UMjxPHucNzn3HFPJQ4e/WBFQrJBijIijO+00mE6duqIilCeTREXETtCozLfMwUgubBHs+dGPPHHRRVt+fe340/fsjM6LcSbjWNaoHyL75ZRpkjGEGqvQ7cxsXjP1yMODBhcfftgfnn8ezRsPKUaiCkOT1zcPqAeM2Nx5Z39qoj85SSlCCkgRqqJ6AQidoU1LecwXxRSqGGCK4rw9nwGZ8h2tjqnhC4+4Ofzf7xqsXr3qne985Efnb31oqjsyPrrDjmHhIqiqlBpsEsY4DLEC1VyZtKHO0vc5dC9C78w+oBOg14F+M7n6/qlNW7p1Z8UHPrj3+99LnQ6lyI+GsinERrq3tI0F+LGqH0rGkxeWH3kWrRDLtQ6scNrw2YQK7/znL4Sqy+ktgoxMAZ5jKBNSxJRz3rfsz45esPe+ORJlz6N9iCWv58S+oKO5A7GMWdPmRBAwlv8RgvBlf//6La+56iUcHnNwnHLBNpjUFzjSSRRCitDhgYLFlEAWXqqA2ti9hNPMkB8e/MBMTht/yA5ZRdWBedcp++bAEBZm34gKgiROORgxS/qd0myRUhWqIoTs+aXWzlaG7YP24EJWIacGQ0jD0/fohRdu/NlPHz77+zRM7kLd6dWjI3m8TU7jqKF+fzAzHSjHQqnpLVu+08uOHDvwhbv8yRHU7WQADwKIylzu464S5nZNqJAaok7VyZeVc7aI5cBoKKKc/KHtHsTUqVNRwsmNRn4/CDJEQ1+BkTKRtf/ww49ceEH/oYen77l304039DduyOtXQcAOdjDQMGIKufYfqlDnCbIxI8ypoUEzTPkhNYMGMXQWzV9w6B8sWLly8f77zXvBAVV3pAJssshXYsHP0p9DLWK/KzJLACXlQFK8XayTskYF2RbwDBS7h5gmbr31lwccOP+Zz6bYlPmUHMiTpXE63puLCgGbtWtXnve9JQe9kKqqtAYUS8rdhi7c8tpqRdRHozQymw6FHJN4SuLvcfff8pozg9U0cqRdbY8ExbAmCkkN5Uv5D2vsc5snST+rGjBrZNYCOc8h5kyE0LI9kVpXxo3UjyTmVyKi0ifQjghw8wbaD7iDLna1NXNQEC6CDJbl7RifWLP+hus333Vn2ro5RQopB5RVVY/OG1u6dORZzxrb+9mdhQtiyuY+kohNMXOccRG0zJZXVmIBBXgBDJy2+jrDdf7i7V7tZkgPVmqBQKEqSFZR3u+v2zT9yENb77s3bZ2aWfM4xhRn+hXAgLI9DWGYr46MVPMXdJcuG12+49iee3XmjcfydIlwtsQZamRkIVMOdEB56tbr6Laaf1waS7VzRtse7HKG/7/1r/926y+uSFUGEQK4bkJzZcrfKulAaFJvzxX7/eTH2iSBsm3B9MekNR5ty8/eNM4X61pj7n7+Tzp//599zaXBYlK4hFUMNgl02eogKd9MxAPyuKaExulTKmmStjBp5iNRC+QUggNvdlpB+rq4zc35buvkkv5p8keXcnpIwkSUqtGsn7IYsFVTYNp6UsHMnAjHJiSgKmDNrOzElOhc3EyQYqwCc+gLu5Z4BATHHmxWSYCZ5CjmtqygmF8qbIj28S0SOpy4UCF/2R7wrcggHE6UgCbxpBjCRDGlMDRMVS5jhjypP1HVkfUrMewwFGsi4TDfT3ncc10UhRFDismr5LU4W63lhfYgLOfpZv2YNYD5O0K5CbGFw6y5+reFOyxavttMf1AX5RgAWascs/NTo2KiE0DdqSbuuPOZZ/3PZSecWIUQSacYZjkbvg3m44g1dvSbWcBbjt3BCIBZAef3Buu3veas+dl04bIOSeB0iRRU9QrkXNIJDsZ2AlomU6TCD0kphEHITYZlStu/kg+KwQk5eyRrlxezkEnZFmIxqw80OVD3n5jUid7SWvwi9oLT30Q69p2nb4U6C8YlIhpw7jqohwkVt7zVNTJ3lExUi0TUFPh+2VfrgEBp2iSVf/FHVg6u6xJwoLW+tSjqtBUcQIOCYi5CKOLuGLKRqobZbC4iNEVmCzAMjZNUzaQRps6argFrsfsi0WXG1MSmPAQgBQAinEW8av3fHoRi7p5CQ0pDKX+NBLD5Zxf3xnrNoAlD60XShcVd37p4Mv1jeLEzmzf39t1n1+OO41A6E1PKGzux1W2uc1uTa3i8ZAzJN/H//vUfveYQw/KxuuVKLuxn50KMvLifAwebJnNT6FyUgKyucdDBHYitPAjsPS1fcrF6q4kifzOQDIrBApMhhzSgIaF4YnJABTipAYsHQWE7YupNHrrJyQDqtFWHwbTqdly2sIx2mwyUrWqwm7XkhnWTA3MSPAw02/a2X+26Oyn0mP8pgWsORANpyk+pjD0q9JSQGCUsJX7igYzugdnYWx4hCS6ECuYEOIpumzTnIADAR1aGwWNAMfvSkVnV9dV/eNjgsTWBea7GKdA8W9cplRFKAQdN/9A77gAEbz1dWCuObfblzcZiwfC42ZHg7yOs3/qauzFf4psDY9JaPnE8gvKTXPox7QWbeko8BJjJnGiF7sBSwxzza1opvGG2Nq5pl4SPbBhp+Q7qqJbSIFxokLMzEEzyjtz4k9kHqAwbR15szceE0mFdBgbxIJ3AVXpmoobSdo16bW4Xq+4NmX0XVrl0uZSPFBXmco2oggfaHJRZiUUGAhRZBCO8goeJQC5MTbmo3emio0jQlVk6GXvMBFBGDnP3YnAfESTJ1PsTVXaZ8mjSCKXBW58jOJJKkL+2UETUNvPCRC8zT3UsJoag8x42XnjZzB23V6XTQHTwbRMJsFB2T0UEDaWp6WWvOTGEovfNPdUelW09dXAwRvtS9SFDBUp4t1FFT/ai9Hu6g73muErI2JW5coJWqKXApIr9s95agZaRVdG0/07V8PTXpfBsaiuA4tJhG4dsL4eNMv+CRBRJYFCPBWucA0mPNxn04tQ/1b3zReZ0wUZwALZTBYDZIQMP3lBLK9qcBKpgSpbX0axQDLQmiNu4emih2hzh8BNgJMtBdCojpU3sOTzkxrsn2zbo3xncmjsIoEWI8rF2iQLBly3AjTHRz/jffKxtLAIfWZuqadZZJ5y4595fPvd5Y7sux6qeFa8WgQxiTUj+VsqCGdNrVx9y4/W9XXaFEAQObcd1GtNve30KfdI2KaN8MVGeFiARVuYa8vYZxl2/Z8DLa64irKoKUJDlnDREJuroKAmrL0syoFxvbrbjtAJL3798AR3yIaCAkqoJNRkkdLICztNxL4fCZtqjDSzERepqzWqBNiNz5qakarV4hhVJcAikqaFCrkCzzGa5fkkc9AS4AYbcgykDqGUhxHyK2JehNuR6kme1s5AdMtX/0lZuMvCwvIKw99uNiQmsL4kUQytIoFryJ0Oa7Ty7JTC4DSVGJPthwln92+3HAhawOQWP/OPJP4+y8XJ42DS3/flr5q94RggVmOAZSo+66a6idk4HGGzdtMufn9DbbTnWtVPuUbfFPgNn3Z2H2vixgUz3sjgMkLuo+JZTirEBnndXcujfR1j2mkM9rOAngPJkS/VJwe9g1FSGkzjSSFo06BLqDrLWVAQZW1qm8FhmiNBmPXtXb1GAmj6XbvGUXtllKK3KSvkrCSha2iqJBJr0AQhRVva0vL0lq2A7F8R06hZ2fApTPi2LlcxOa3oawMZ7gY+zNMxj3F8uEXXF3YeRtGoWOdMi7OmNcZ5RK8+LqDWjqxAmUXUNUXeXPtAA4IY1yy5xWaqHzFyeJY9C5a7MiqFLv0DzRNL6L4p4BHG+eu8pH59a/QRRw5tF82gzi7bO7OlimH7soaf9/dsrUhkiX8xA8YPcvuP4b6jvlj1NfgTBNWdIn04QMx9jiiTkeUHW0vDrMcaUYooxNjHFJsYm/9fERGkODu//c19zC/KFEKpQhRAsIeSXPC12/AS+bu16tEC11TSikYEUhXElTpbb8eRf+stgnysyWVjiBN0Y7cCCyEBwM3iWqdiEC5vilAlLrPWEwY2P5TeUXv38bglcrEBAbqKUDGYlRX8lk5Cap0A9ACLlgC5ukr0rps4iUT3EpBFYmbYoFiZfeI6SUikOELpgjRkkLJiT1Fbw+qgNRbCVtogv929SAhfnggu25BL5ixywiR1KEvYkXVC9SRPHN8vKqv5gQpE5dI6Tk/d+4CMP/ssX6/kLUpJbI1KCFHGzEotrFwYrIk1sWPP0j5zSfdqKTE9OeqPkOg7ZlpsnImsO473NtEAGpHIfghpuvbPSFClurxS1ZUNI0Ghgh0Xm/xe95grDmvXKQ3SsfyGIPwq651GYEE9W3iUlBdlBBl9EfjLIhpyXo23IiYoXccqg7lnPDKdMQib1Ey30uoQCG6zQJcwvrRHq58oBbFU73Q3o39GadxSt0loEbosfmQFFewOQJEcnKLh4czZu5uiXwTEbUAm+NGt50C9zqY0YIZUcFWWbO7TPC872zH7uDg9yvDkgsIFEVn5hix4KQ4D5EsTy75gAt95ww+2vf+P0lq3dkTGiVIUgMB+6bhxfYparjc2856/c99yzMSYew0HkN1sh46J0QaAPn1tApQbKFNSIgYsnZ+2BJ9nW/stKicDwfxl76ym6VRQvyKwiDgGQnCxfSA6dAfMefqZC4NDa4UTiktHgMZ3QFVwJEWR2qWVlKpBiSFZp6SmIA5PBALnxMbQySRAmIio936UnyBrmevdyMzibkEP8HPSHJKYKfK35vTW7FiuKLu3jwxz8/keXWMpVkKeBC3LHn1vUii1PYVEYMZIhFwINTCKLvCzf5Dwf0WHLUkJsZ16FFidwokPIUHrPTUYCXfTGC6DKkMPLa5qqQqIZKi30AVMOhBI1VVUNAB/+2MevOejF1AzGxkZCUWoV9WuoxAXoPmA95Kx9CvX0xo27/dVfYb9JaEJGds2ZxAFQaC9S8dTA2/L7IoIMPNJEKuaMeil66zgrag/9aCZDvyyG/084m//vej1FERaJ1BSlllwaKPXGXJEDlPga2xUZ74uwhXFKwoC+E1WolzpM1EVZGkZ556rvAQ79klKOAB3O8bm/FbCiZKfuyDpn7IMIP9odZv+0/wuqzMQs8g5pT5paplbDEkhQR6jxjFURoRX3yLQOVFEYnL3COOtDW79vcUkrAHN3ZY1ZFt7SLK4laOhr4zQY4DG6m1iwJmEdrth33x2OOXaXl/3JghcegCE0WYgBMEzfdffq7533yJlnpo2bOguXZFpDlN/lai/5CWFcb84l6sQT3nrP2uP5538/L3yY1fZDhD6Zl1ZZUORNMjhwcTq7aZy9CWxR/b4iV5UCayGjWUVphn6p/cltjldrM6O0S6AOFkFfsuAfDai1C212KN8ONgwEtOys8+b0O6iQIkCLDqDxfxG//j95zb2AX36JxD5GiOIm0fdckXLFNXZA1TrRLapv58Ryy3dIDoRuDd4JCQ2wRh4PYPaQ0Ld4+WRLUiFeeGRaguWEElww0UEVN+0EWi2fG/7kJvTThLzpfrzU/smReFD5Q+DiKuDmIwa1ha+qY0FLxpBkL5HsP2zn0mYT88BB5lPojFN9K9uG+b+ALaMJvgUFniRPLyvEz0ygec24lRzSeqCFcp7kOnFW2o8YgQb3/6a/buOab3xz9RlfoqaBsZHx7XeM/f70I6tDb6QaHa1Gx+uFC7N2F0m2zs0W4j4CKxuiUXkhywmmyYmFL3gBZbS+NEOQsJgRZgmxWy4ICO1vgVUaWkbEashaTQByTfTYzr1Z7oZcZYZtbeKmM7bs4Hp13fFy8B6xwLy0vrmp5ChdI0Wv0TaADInNbx9ld3DVutQ5C0BnbtwSa7lfclhL/l4q76s6QLY+paFqW3P2FBms1ovANc5zTdn0HQmtRd6FP21XJCG9bgSE9ulw8MisCIaBzIDq++SqhuZHZEoVjhEiRp4Ly0pVMHuH+mPJUirikMpzEf8SdAX43eWuWomiHGP5j/25ulrp8c6aCDIDlNxvSGMR2gh+cQYkM0a5WzKgWwGUe5Z2IoPC2wQiabDirCzprEVTphZFDXARYNmYMevSyPy+sui8XZMk1yUqjuUuMNQhJJQwUQKcThXWXf2rqupA3ess7gWoqArUH/7gyNJlkJr8Fk0m6IOWMIe7LzDzjsRAMD4GopxK1ExNw5JFu735b4f3m7hQojkcgD1csOIwqBIbSu9GWVgdceZH2DmPIONIZGcEVKFe9Lx7sN9XLoTafNDaKGnAJsmmWcXZQZ/8mGMx2jAoZEvYUvzXIoI6XbCRxIpstvZD+VLL56iuZzLzpq0UjnIz6zW3BquJ0bWtKVjF9t/4Lq0UprQstwpeGo6V+VEoo03kgRYDlLtPtu3m9+9t70Wg8gvmxLQb1UPuqIB68GxkMWtU+oq4VdFNs+C/cstMgXYjSoOKwtIa0wcp+4F3yM4k8xRideBUYajrMhAdlZSRjCOFMau3FnCpdErzCFpQ8BhjLgwqOlL0D8ucC2BRLdBtXyoUyEGJTkVGTZjEDQRdPwTHAc/Puq67+fGm0Am8kkXkLMwGmMugnTzfq1CpSN40YGoShI0PPRBGRiueqp1C1gIq0E+qKlTwWwjIgjlquyhb/+QM5/B+63pyy/oj7r8LQg2UXBgMrqGKuK1ak0muAWCCxJz7/KWsCZ3I+0dV0CpyiIX2k1RPnMhlhIEfGZJl/6iISJL8IQTvzAl8LC32i8nBMqcnX7OAa7mDmykmKH2VQRmAwJuQd01GVVNisxzY5qKaT7GNwXACdGZaWkSK/hnhrCTW3dfs19waLA45NaEFVzxz0R8/pdRK8MpL8S620UKU0TSOBBeQTM8qNS7Zm7VoHDWnIIqf+nJJkIXJEj1oJyHfBGu9+Bu0SEK7/yBZoslDDcsuFXl6YM/PQaNBW07hCfXOE39GJLj66qvOO/98RB6qWCg5ivkmJkmkvOdTYIXCbCoixZS2bt167LHHvvSlL5VEw2qR0pys+S8B2ERaoZC4g5zIAAxOnVl/n8CCzZTio6tXf/jkj8wbG2fFiKGJ4XgtoKlpD8OfmGJKidI+z3nOW97ydxQTMOE7gfRix0fXVN0upUHxztzEzm4smY927aLZwyQjapKw+FJT9CgiUNyw/rmf/1xVh8g8A7EVhsQktgiCLSRwHfL6PFOBytq4osNsyQInTTeK+eLwhX82GfmO2x/b9W49CRr/aCVeZ1q7FShi15mQrRwZPq8F57N830MWaspACd7EY6AI25cgVlLpbEL0Vc0DNoWoEupoxsBUBLZ5zXFKaLPHNZnWqfFFr4TdVBknLOzLkFKDIt6hvfd6fnWCsCX0ElY7HGH4/5SMYVqK3PK4LcJCw480YiPPWNQn14JUoEgMc26OJDUmzHLhpCxRArV9RAbMAxibgiRqIVQg1zJd3rq2FJSPXKfu/Pzii7/61a92Ol2l56IWqSQy27a8kZtUKkCoQn3lFZfffffdWb4+aBHRInHercJHVWAQXbWVl8eZa7/ReS/yM6ZE1/761z847/xut8fRGbqyq+z4JPgjEQ0Gza67LGMJRjMakGLCGjZfd31uzCxQDtrwHlQPbYyMABAlZtaWB96mw0g0lJ0Rp2eWvPTwHf78xBTlwnzerz7YeRV71K5QbD4PrVuJOHqQ/lpjyhC4tSVJCdEBtuoedQ863oi1POnm1YPmviMFLUfAkLcjuwbwqIhuR9sSQpo2YqOI3jPAwU2zXoQRtTcCHA6YwM9lRGjxW54sxJpjWoOOzJV5c+iSrFyIqPL4+CwdXlecqlDhl4i2iNIQ0PaBkA7UXhG4lK/s0nroR5oYB1WFVQeruk4EDUUIlAVNZVZAMZQ2DZBzKl6uYFs1MbEdudpfYWwaStDp1HWnqqqhqWpiP5SZNObseTMgI9soOQXYsBpeKY+rIRtwtG+U8ciaH05MTna73fJ2CR04AYIg8DRT7mfSpUspxZj6zcyatWtvufXWwuaxU+TcHbYgEtd+4ncwuJgwI0S8TNKxUEpOhFDV4eGHH05Z/YtKcJUSUYplVsjwq3mQCAmHNqd4u+222yDFOljdYpi/1YgJJlf9ex5tWokhEdCANx8FUL5GYDQbrDNc5jzraOeQep3BxnX7/OsZNVEV1FoJXX+Y6jolUbQ1cvYMFCywDSDxXFAAgDNTRGZ9oEUWVs0r0jrQoorIxSfxhXz2LflG690wwMVpQfCwb0MtFZ+Rp1pclHx0kWbj/FZ+mnFVM/6BO+pkQJE7r+DmtIlhCJrLWCBFs8HSbV9zzcPSMJw4rjBxf8zbc3DOd8/eYYcdut1uXXWX7bLL2972thtu/HWZBoPcZwqtZmCOlfNM3ySVN9J5SfyhWRGPPv2pT736+ON7o+OjI6Mjvd7zn7vyg+//wOWXXRaGoR2Jjwis2OnTQ6RWUx7/nwW9yuO+7NJLTz3l1Gc+c8+R8ur1XnzIiz/zyc889NBDQNp0Z95DCES8DKBLU2ImCeaDErptUr/kOsRxWYwRgO66865QBQFAoagLSyCHUgUS8j/mqdA8tKbgDKHb6331K1+hVIYkc6QvuRLxGKPyTwSXpKBfKLB8osRFyath8RUlwpiwqtatXVN3OqqaSu4Cdc8ko8cjpbjvypVFctksQobmqs2bwmCQAaiSkBWDmkgcZOGRCq3FYpDEmC9qe1Fe4ZRif+Lf73ze2f+LqpooRE6pSMs7lJIvh3J1iBgfdGCGWzOfAnJfaMl6kusTtXdNYKY/pwjBNmTx4H73ALLuIQkblVcTjGAgZ0QGG5XuXI+S6HvxYyMSqQHZnGTEPdkRhSysEhggT1LrZtJ45M6Qu2y9DbQWFi4k6TZ/MhRrbnlYheDukWBV/Dz5Iyf/+Mc/ufvuuxYvXjwYNErPCTna2rRx8+te+9oddtjhg//wD6ClC7J1NX1gEAyL8c6hjz71lH/csmXrl7/8r/PnL0ixEY48BcKYrdniJUte97rXvvr443dfsTs8ac0ZHD1Fv5CRkssuu/y6a6/91Kc+1e31KFKiKPzzYWBYdeqpickXv+iQ/fbf/w9f8ocvfvEfBM0S2kiCYyHNtote04DAQZ2o1WMIVbX9Dtv1uiPZMpeaUVGSI0tsLTrUd+OUQzhpNDk5eeGFFx70woMy7hGEtJZDFa8LBaKO6gBCa0EQHBG3+UR+qAXQq8Lhh77knlWrssEVsCooRcVUBsuSdOp6/fp1GzdvqoYBdwUOJgGiBz/26d984fOdBQvJZSKu0cYhp8a0E0xOUyW+i5HpDY8t+/PjVrzzXZ2ddxQP6dIvxgcw6ahe7lMSuD24er0+TFKCTsgCQyTVMTTTqorehpUba242N4t8WVsmZcCTbC236SSn9M3yBuHJNEx7uKhlYNf5ZOUGaHWZkP2B2+RwfPaJ0Z3U/hnZMHb0WiEHL11VVf4t59ZgxSZaAl+2fMYCN27cuPvuTx8fH2vR2LUilr9UhfDoY49umdg60h0BHQVf4giUo0UOsJI3+uhHPnzm1785PTUpI1XKp2caUshzePJHTE9Nbdy08b777lu+fLkSTNEqUW5QtdU0IYRwyMEH33f/A8ODJqVyXelC6y5zAHsjvTe8/g0fPvnDkASyJfA0sfK8gvItUUIULTiDf37ywIY3nijSlk1bn7bHipGxUZ6JFihwklAStyDsGDECyDB0VSZCSpkDgU444cRPf/afUtOEEBxVGwXtZbCPPCBCHkwWyhyvl87kYvtRhMtSSqGuxsfnLVq0KEadGOaE0FWukSOXNDY+3uv2br3ttk5VcXhYMqoUI+K/7bZ8XjWKoyP2dPK0Dt7swkUjpqyBgp9ckSth7fBEpKmHHtzpz/50n6+dOahiFQMvv5U+c4mE5wxSwQmSswniIgzrQIOvSPEmgllKu2DOkjRCJdCPkm2RzBzp6jr9ReH6yhCh8hyC6Taz4aQWBOnUVJnmQy2fje4aQc2clLaVlR1QesJIsWUAh6+RqFZyUTSUWSjA3NwskKjFVptEKY0ZswzWnLfmWAJftkrCSy69bMXy3eeNjVnwwCmRnOThCU9NbHbeZemfHn10TDEJRy25mNOd6MS9pUCbN2087XP/PDU1yZEsqUPIP5047SOKI6OjCxYsOOXUU0sgLXG1OHjtQ+YonI/gX/zFX95z770EKWhKICaLwdhU+lxwZnL6zK997fJLLxPKlL0vWQlQVZi58TVJLkRadXRxJQf02Z+f/f2zQ1UV2XhUQXSJUEjqM87sijAZyGDZUo4O4cxvnDU9NVXEmJw0DAjeTowSMyRe7tGlhkSa2ZZ1CPLlsjARQ4JhbDs5NT38+Jh8nhS0xEQGkBXPGwfx+fs9HxEiudQjG2icGuATa7DXLRmi5J1MpJADigKX67OVvKnkxcP1iJNrnlj21jc/+4zTB5hCDLyEAdUoJ2tcVENsGB6nNWSqXI7dqR8tR9IpRwJZ1yYhy9oSI35GIylWndQ1KhsqzxInRbPkcctCJU1+ZY8GtASccz6e90KScLbuCVzzO1gPKam+Sa5TlNHEdptydeC5hNJRF0gLVyp5UFLOrB+QLAQgH3HZa24NluxE1OE5KaVPfepT88bHNZRVz2FkTAF3mybeeP0Nl19+eWAFEkIfllqnnuGbxxzzqtHRMa1WW0u9/MnAOoREaXRk5PvnnnvJpZdA6d83Kqrgm6SsrKEduegnF/zg/PPrqg4tVkV5dNICKL2SGKpB05z+xS9q4udwWrIpEKC6MgJTFazPqTAQ6wBKhSb/zqc/9cmUuDhTCnBkVGZwpTcUrjUpwMHxeDGPMVITn7tyX6KYfA5FAn0L8s/ZFIIqDaCeIPtsMKsnDJ6hwcmO6Kyvfa3udRlNkZ5BLU4K4sWmJdTV+g3r9nrWs0SNlSQPGqb9m26+OaYY6m4myDFDLdfZiaxsQNii6WuAyDPpB5vXhnmjL7z80md89FTsdXNuGoxBJUF9cLQDACGMyEIB+COGlhxRGyFiDrEYIgZA1A+B6Z6RkHxl9oen6ujscWC73qJG6ENoiXmTGA9LCQkUMVJaqFXrzDzKF8TpkrRcFOdFFhyX9XUGhqx5FWw6Xgtk55xJi/5IrRC+nVzk19waLBEKUO8crrji8l9ecYVYsDbIglrIBStP1NVpp/2T8e3QAT32NFiqMQS87rpfE6XAEkOInmhHsmOVSB/C+PwFV155JSBIJcRx6EEoVrn7OBG84pV/2h3pQXAVRGTutc7h4vIYMmfugot+mvsn/XwKkCIhOEU+JiWg1IWkcFmyTDLlpvwWoQr33Xd/XVfI4sTF5gV9d5ICrbBekKQ/SvQOeB0xhNHx8XtXrfrhD37sCA0JUYdtuzAPDUwFsIo96zLLoBn+h2qx5H1dhepb3/qOaF6bxYOKeSsyf4MfcwhhYmpy56VLU/Kt38M3qLHadPtt3c4YYJ5cPXTMlCHgpMFacd4YU8ishWHQElLmJOdxRp1667/f1TnokEN+9avxvZ6FKZa7CxhJAGzUSyIr3ILji2hQHqRREtlKafJK9lvlMQTbJNruIZVHoY3KogaxaEXzmXc9vwUIH9aOT/BnREt0ZBRVeVSzjymyMIFTHef9bc6ttOALoOk+TFvXBc6RLaTy177ozj0UoN9COzjI5BPQfPWpjrA41pT4eDAz87Uzz5w/f0HR5LNRhCSxr/nYcsyGucglv7hk1b33RJnwrEUSkbKCUpkCgIcefmhsbMQhe6RzH5IV3UjBMCQY9Kcff/zxgLXINTG2JJG9UHPzgFMMFJuBQilUSpFs12TeuDi4VOqJAQO36rfss85j0V0fzKtpZEjWnmvKSJhiXP3wI0TU6XTLsCjiGgvoHvWJaonXuFItiAtKnyIQNE2zeOGiH/zwBxBaga+UpJxDSQL8MymLXIgBIOAEkMwVAbaJiYYR06+vvzYEH3ZwPlIseUpiY4VWiAQHHHCAJLCycvkj4qOrO0uWDM3LcGPEkqemodXCsuvVIRBhggYjBaoIQjO1dfKJx8d23fkFF//8oB98jyo+W1w700wERe4WlH0CYoEzI9LdegLF7SyY4/dS88y4pQUxYvrIeEzavSK1Or4GcumjC5wzzIZkzx0YK+P6q6yZhA3tAKfNTSGp9IltBQ9z6a8IGOgvx8m4uaKIwSsJqE1ecGexwAtlvyYuLoKRBp/iCAsIFKckorpTXXjBBVVgTpYgtcIddIEoH9d8Tjvd7omveY0c74TQKpT4tP6tb/37qtMBfhaooIPgktDeRpxyX3TRT4t2nTt5nlTIeXun7uyw/XY6soHazEN5PBz/kpCn5o3PS85BS3bnu4elKOOBD7RAzB0Ccb8h/PKqq4ioqqr2PWo+ZbW7cu9mF/lRSAApFa/uSO/cc85Z/chjMROjHJfLAgRN13SAmZtoJD9N9nfLLvP1rLr33sFg0OuNtJibeQg3+TMuwc3k1CQB7LtyZeCJQ3ICIzSQNt15ByJNb9mUpqfjoD/0z1WNnS52A9Y1dHqh06mrLiaifr+ZmJresH5qw2Pjz9t7j1NPPuyxR553wYULD/0DHDR5NGRhsUkAAu0bQttr3JqgcYqSGMgEgtB11ljGWH6ABb6RXD+axDCKfxmdBUnSRnBdT4JFaGcXuVZNQ9qgHUnp9Vguiy7r0+QNW2w+cAkN2bOdVRG04A9aOaFAJK3GphIEaLcLWdpAFTrrm2bHVuU1x0x3i/yHF1LX9cTWiXphB7XxICndmbSOpkDp8I86hAHecO2vhcwWHDaosrv8/r+4+Ofz5s1PrJZphFOynch8dXEuQ/O+du3anNk1RbMArFCcH5JmMJR63dGZ/ozxt7NbDeh0QDyzGJlTLruHpCTOyXC5kWHwYfRiAKOFO0FPcBS/fFTuv+9+6cjMfXWklHoT6wJwQnTMR6YyCAcTOcgsl7wodHudr3/9rPe/7z1NQ3kuPkc/kqmX7FT45iaowhdYJtu6hEPLHayZcfPNN5d265SSYcpCJrZyl3wnxrRi+fKSdCSHQxXFuv2/+a3+9Mya8350z6kfaR64f2p6uhl6/Q5CU8upyRXDEDqd7Q9/ybM//umR5z4HC2u2SaHUHEIAitmY5JaITG/VaKSMRiuJS+KylXIw7PSjsh31OMqZRjHLArrngNjxyYxakT8rCaiFQUkAzFRJEixJjRC05Fj6FLXrU/yjKUvkUEwYKyWgY9XmVMQquJEVtQRC/DuuXQCK0G8gMFBP40bbt4HswnwnnVQ3NVkGJyzJ05ET+Fo5PEl89VSoNVhjoOLZpKqbvnENZG2CQYYEuZsrVbnUC16Sin9YJ54moOl+f1TkNVyTu+ZK+XjlsfHoZGVwmFFoM4hwTwIonFxoqFUVsAq5OcwoKEzMATubxXagS6yGrjdFQJvA4UcIUQpaKRfAo9x8+WC3jO53t2zdsmjxokwRd+AASp2sVL8SFx6M48M8BdNtslwT0ujo2I9/9KP3vue9GeTWMUW8eXNSiZop+C4eqXAnhZyV78M4c17n++6/vwohNlFcr3JROajCBK7QP8ym3/DGk4YrH3ylT9isSN3RkV1OeNXOf35sIIiTE1OrH51+9DGYnmkmp0KnW80brZcsmb/nHjDS4+0WKaWYmX756ea+raD1rLI82a9IZpaUK6yBUrIZRuIL7MzafiPpoFRGlMZJxnwQjhSCi+Q99QkEH1ecnt1waQcwerz2ECXufSb9YXajFvyDUesKvRaJdYUouF4f9BRZuRJ9CugJw7JDNZ0UqrguK6tjgDp/26YkuKiQNNotVbNfc26wEBX9hZhSXYWqqgdNA+7WENusI8fkKUvwyv96NLZXB1xNr2z8KsDrX//6n/z4J4OYHD3FpSmyzzIrJ5fwMxr8rGftFQCb/JNB4mIB5jWMGhrSrVu3lC481ksmbQ8msvY9X52HlO+0DL2XEIHAtdDpfFAjwZDlpVoqUYJL6V65+aabF8xfPDW1tZTKLTFB0K0dzEeI+ExBNXMWhp4BmKOB2DR33HHHxz7x8fe99z3aqs9BDUqKIlRGORag5DjEkKxqgkp7IMCKsMH4wAMPLFmyJFEscSy6CIvvMYBOVEDCmemZN//t31ShTLIISZrIMyGryKoVIReKCDg2NvqMPUb32IMDuwA+4QGpHTKuXcZyB2ypTQv5FaQk4wRa0AI8DSyllclIlM6RiY9GS6i1/MEP1xYPXD+iE63xe4CcChA5eh2Y3BtJ8i+90ejeWNy1BnQgS++jPWp9tiPiOljdYDbQDSbXiv6iXcRXWMjJos/yIwndhaJlV7rln4TqPuc8LFLOWh5W+OoTTkhNU7Q8sBQ8UGJgshqbFjYIYHJy8rzzzk0scRjAjejiOyxOIuKXzjhjZnoa8iA3fj4yt8XqfVymL0erClgf86pjIUDAWctuUDMC1J2qSf21a9eSPmbMTXPyvvw5yHoMELius3nrVolRoAWQeOlAxsODj0J9UdwS66KsgnDTjTdqIC2XU9iiai7yyE93Xcq5KYmdvTFy6QowjI6NffADH2j6gxJOIZDTweDdHkL7/AYh7LQEnSBI+Tu3HA/9zw3X3zQ6Ni8ylS7wvNfAqtQSsPJ1VVUVKS1avIgNRkrFxIVCUiIzJMLgtjQMWM1aHQAatFQuOBOPbUnJDpelcVpcBgGEdC/JYyMZQgAWGqMPtlCgMRGwJKvCFdE9hZhLCkpqoIBdrNqr8gO8t5RMgPoUbSdpRRF5mJRAIXaXTE4hKZMoRmb5LbjIUMNgvnchQcqHEDqcCm1Fcre5Xl2rJlGiaGzxXwjd4CiEbcuZc8/DglZdImDY//n7bZmYYA9MvnMNwbVYyteGm/N5K59HEAITXklSXpzVdURIEdJMfxCQYmm0Fz5jsmhWeF9sQ4ZndWpqMjVR3J90XFkkDHmwJVR5rUJ5q8R8mMRsJvUlEu/kG4uQyrC9Uu+Ruo+USSQy46xTto7RBozNaqB3FooJ69atbaKMeCLlBRGXXLjjuaDJxewkAjtKCXzToCwF5lWuqi/965fL5CA0equ02pafTZr4FP0sc7MyGl+AFkkeMYTbbr8lZyylaSERQxrZFmUkIJkcynCp9977OVjY+ZybSf0zsQpL+elCI8q1QkBeYiSn4gRaamCgqajQkNy3HDFN4fL6aMlac2LQpBxMeMMwO/KQI/gtJAtlaX3J1oiHaUuRCVsRjvs0MLpEgaxQGZnlPvSttagi145qWto3gGpz0CAMifaSMqiFvwdmFyV5cXUcQmlU5E1BunZB9nJSWU67FGvTtNhN6y5sHWajWHPNwxKrnO8lIPy3v/7rl7/85ZoISK3N7h5kjEnB7WITz/neOUODIgkRL37JNIV+wPfV0F/+5V9kZxb8OrgqCv+/7DUi2rply5ve9CYMlTCiwJMiQXpHy2YeUDPdnyYwZ2FhurgrdAe7rup3vPPtIlelzgisVczduPMmWiPm82j1maxe8PDDj3R7o4OmX8IE8vPlmXNLfn+ygeFLZEOh2QtoVAMYY7Pz0mWfPe2zYq0E2Gud/FkURdAgpJyV5CtguSemaZrJyYmY0uTMRECeNI8OsimxctCgJ/c5vPiQQ3IZNLqeBi6+msPW+5aYMRMbqJ2rAGv6CAShNsF8OOlHA9iESHsqaKk1OK6TYjolanEPUj7CDpyMIpPUkEMn0ghQvQih5zPZcZZGAsfs1EkW0vZsphPs2sg3DVkmPmuBQGyd+7o3W7LSsyN/2Ztsz3zMoVYMDZTTN/TWv13pUnsGODvImmseFhoSVZ5nbE76i5Mef+KxQpQMOButFC/NGeErXvnyZcuW5bFMSdnQ5flIjiuSyvm7n/zUp5tBU45m4AK8of7MzOQ/cXJq4n3ve9+yZcuyqImj+gCY/r4E8sOTNqDTv3j65OQUUSRByiTA5gzXyiIh7Lbbbu9///tBQXawJ2G9YnzP9phRjxfqWTSMPDbpyiuvwFDYAEqusuRIazbAbFS5yEB2MkAzz/bjAhw0M+vXb/j2t79Ndoit0C197ORshfPuZaFmvWVOnn955ZWdukZp9hG5AjCnK2Ypc/Zppt9fussuwzsMNT87sI8jTcvMC8nnJVHw0V8RjTlvWEGMBUgNz3kQffLBHTlqqfm2s1jNzMmRIFqgdMtzk+KOLvEhsmPtvfKsswRgbUIE2xxo3ixmTkGfuVFdNYHVYq0Gh6j4CYkNNoKDit6TCx1BzJS8h7aHyOdYEspfLT+MuuBgOCb4Wtzs6AqeCnkZAie7l6/mj15yWEr0+BOPJ8rtyOI/W6YLaXpqemrL1Fe+8lWRl9EJTOjdWFGIkl0RIMXVq1c/tvaJXMYti5FVgnMFN0lskctEtHbt+ve+773ACI/a96xoaw0HGosM7+OE41/99re/bcvmrZnliCYZJ76vBEf9/szjj60+5aP/iKEChpPKFaP6Nwitp4rcFII2rstbFMbuaGSkd//992fsPJS9gUolztAQG8KgnyYgCp9xZpBKbUtjfDnMBONjvR/84PwAgRI3kgQ7JfnjAvejogUbPImsAIdy7Ditrer6hhtvIip1xkIlRqnkFuDGjlMoWmgIe+2112AwkM9A7W4nR7AGXyEDidyQpLUIzULZ7hFwydB+4I9kml8wap8AbeUMBR/5cCeQ2n8Cx15SSEm+Xm4g6bcdKg32DuhDw8BFcADGRsWys+tFdLEMe2EfjGpGiEYANqtnQZqsSkAfOSGnIrrFULn4TmJBJ57L7WgioWsky+FGpMnu4LKTPiVn6HRfzzIoT0nzM8mzFGeDlM4999z+zEynZtNAiVjcauhhUxPjYYe9ZPPEpqaJ5sw0xXX1A7JhccXSBazwnO+cvXjxYh4jWnqpSV3ucKUmJiZPOfWUULHCUBGMlSSDq/bqyHQdE2JM8N/++3//i5Pe1DQNtLQukNPuLPP1vOc+9+Zbbvkvf3w4+qwenEsSoAHsG5y5I81CQjT6pCKgunnzpsxxTzzcJA3zLtYpSsKZTiT9vSAca+YjMCqBQq3CVoBXLM5FF/30gQd/Yx18ZLBrG3oEatFWwKgAxoPHOoSZ6ekqVCwCpQX9fFUJDUvScdoppv3328+4qqRpEe+WlKSlT5w7Knij0Bu6mL2wrOz9CMkHuGRkIzEcLnGRrEosZpnujUmWgDTjtjRMQlsjw1oiLrfPbFivbmu5pOPnOTxHiXDgAyx9JChXpL0UqPTM1N5xdjFyi6RZJ4EWXITHDjy9W39elpzf0YG/CbTvw540zm5IZGMaDCrU6gIViRMDH8A9qScLvP6TXpHBbCBro7eRZjHF7377u+9537un8m4GoialZjD4o8MO+9znP798xYpQ2vDERyhVTZcawAUG/qv58265+aZ3vvNd11x7bafTSVkRnFKamJg86U1v/PRnPjM+Ps7S17J+7VYF6VXgQQP+I6GIC/71X//N97/3vUG/X5qsELEZDA550Yve9a53veSww9CLAYFdoMAopnrleTGgE7DbvqU89GbQdEdHXnLoH65ataoZRD6oIvXsZ262CtpgQ6C4Ek++CcZsl/5ufzBApAcefHik1wvIMng8B0wBKhZlL4slXYTb1HZijN1u/cpXHH3d9dfHJrWIpkKP0PykrEav233siccnt05moikCeLWf9krO+l/5EeGQsMcXEossIyBWlCJWZfJ80gFkWSk6A8hJEX5IlKpcfQ0Ygiv2JeKhJ7JDAli/jjw1jdrJgDdiq0NB+iWoiKs72lR5kyDuJlTDZ5ArPRBCHv6g9DrE2Ywl0U52iD03h1Ny5VUs1SjwTEVwms0aQlmoQC5D0FxIRIS0yAUmVof+iTnFZD25fsG8TJetXVU/tXpYAGAkIo1wpDFnGDIEqnKvGaXhxVGKTaS6Kq11KQgM2qI/yh+SasoPaXpZ1iClhmIn1FBVQ9ORQp7ilZomhiq4J6W8HY05HJKh3bxkoEVh6AyPH0Cny1y2ogrTn+l3uh1fRpdcwfOw3C6RJ13IHCqoBkxLSY5FAynFKnSXLF40b/54jNGBGPrzrXBHie+2eKUyldBBDi481aOP+MRjj/7rV7/6+te9NqvUUwWqGku2q9mfq4BoK0vJiRbFFDt1Z/mKFTEmiE2TFHTK552HgIqmbMYqx+ePDfrNqvvuHZoIcFUQ0m3NIjvIjFbQ4IMEOSeuUiETiwkyUSwM/0cpYJnnRjFRNcxCKyWHbIPstV5Z4CIN4iBgVWX5sKGliqDlrQpN7EccDT/n4Imj0s0ZKSJUmZaPwlaVJy7nnELKI6t5+kekfGQSVTVmJVbQdh7EWeFPTt8TCoTHVpHnfWTWaTCngYUymPnIZU8l1tIRYyPrpmMAoBS4QmBriCKpppBwmhVpqLUqg6a0RcONTZSfGL5J3TZYc96aA1q7EHKsAtPDp5v7zWNMIVQYIDWN11FU4y2SvqmV5qoBIQLFwkCOYV6+e4WpTwAAgABJREFUmuqUgNJgGCZQjHHoJ4fRnC6bxn7gIEkicXma6reDl7wNy0y/pj/ATLko9bHu0FqBKWtILTcJe5yctSKm1CO4dkM+xlLnJEtVIUAIFUzNTI2Nj4oVFe9o4K3xDNQN2jkk43yK/XLdgkLjTom232HHC37849e/9jXFEc8+RuX9eDOS6FkrJM/XkogChqZp1j6xdv6CBYBk9QNuUpEUjDtWKEJqBs2BBx5AgJUGGd4QmidJ5pO9MkkSYEwMa3kGKeMDmCJgyHYqAOLU5Nbbbr991apVjz/2+NatWxJBEwcbNm7csG59fzCoQxgZHR0dG5s3Nj42byxgGBsff86zn73yuSuX7rxLJrYQpkAUc/Eza/a3y2RoYQn5qAeFoVEPNw8mqpBHkdjAf1LC4fA7jIMiQYWUjwxkPcoiLyHdGxYacH2pVAq0hw0ZTOYtydZFG050BiNBqKoMMUNVZiAUQndKVRUg1PzAbHgYU2dCyC0WWvCQhFfUaO0PnXGkfAErVPITm51nPCWtOZJs6cnTcC/wZYbc+plB7BACtzeR4bAKJ+osUZcJcNyK7UBR75T5clU2dUnQRkdPDzDbHoFmZgYs2I2IPwhCtMeqNNWEAhSy7iuVmMFACxSbrfA76GxNj46gA098/JT/FlO85pe/Gh0ZS8NthI3ro9Td3DrbMtlHdv5sJrMOitUeNQU+QlVdcMEFDzzw4PLddgtVUNALxW8CWlTb9pw81U4N6JVXXNntdYEk/y6bMZAMNhTUKYdFAXHDpk17PXvvbFBIRxyRGns25Oj3ktFDU5Iacgb0YslkKdRVauJ11113yaWXbtmy5dabb/7Vr67eunVLt9frdrv5V4e2ptPrhFJXAMCqpsyiz6rtsd/vs7IzYtM0/UF/56U7HXbYYU/b/WnHHnvcM/faS1GE4KbxsdK0mnkSf8ryoOmP/ujwm264fqY/aPLwtbIRYmQDhGVsn6p25o8YJiKRtmzd2qlIGTPqx4NjXoGGv+gZkQIqaYNUWcCSPlNExOOOf/UFP/pxYrZhvthCk+QOx2KnhsFmCKHEU6EOSxYvWbVqVbdTg5RlAGfHGHrkWiG9yyAdtvAk4e5cj/kCcCVwd6jEXetQMs4qUq4kBU1yGDPM3oADLFT9Ox3njallCREEegooytGScRBjr1hUhQl5VoQUSELpJZUcnVC9RQKerEOgzb924gyaKHcxdEnJt9S04DY9WQaKWomGR8ajMu3k8odrc96536vrAIkitPosQHwnktx+tp4haRdMsEhFIRNBGBWaqkNoMogzaAajo6NfP/OsD330w2kQQyjlWFKnrwrdhuvIRdhXshX67tlnZ5OXV6uqICZx+IZN8bHKry2bNy9evAS0eCTddh5bUdOfnUeO5HhLhTJ/B1Kq6rrqDq3FzTfdfOKJJ955553DG+x0Fi5Y0K17ixcunj9vYZOaOOgT5o5sgeTyOFYMMMjKyJhwmLV1Ot1uHXLdAMfmVZ2hiwo/u+jf1q1f9+GPfGR0dOz888474qVHxOErQ28Jy/yY0lyQ8x8S+DIHVNn8HHDAAXfdddfCRd2cqCIHOKHKaWwsXa7ZLrBIxjAVC7hx/cbHH3ts12XLGSQJ27TZcv7gFzF47kbZt0G7DDGUOmjTT6FTXXTBRTvutFMekUglzuWYImuEZdeTSvNJQUIw4ObNW/7iL0/q9UbkaSVkmY3yAYEDPRTuGZqykPL7hRIhbVrb4FVza7AILRKVqFOhFsfKlzB++LPJEYsURxKZCjvwZvWMd+JwIcGNwIt96MQAiVdRuEymrJ6M46KhnFxFKooEfG8ases+kTp6ppCVcM4IcYYt8d3PSs5br/Z3UtkbWQ/7pz/9sUy3Rp784tZWZkeVi0yBwqAZxNiMjIwUdm3QSFHH2pHAwfldmsS06RCq7mjv/B+c9w8f+hD34yRqux+1U1ZaKPdIfIgyUkx44QUXDu1BXScqfeD6JBJpzMsUeapz7nPQCw+MTaxqYaOReWgFbGS3S2zIFcOMjgd8fN3j3/rmNy+77LKLfvqzkW6nruulOy2thmlOosyjm5yeYEpRRsryZ4Hlx8id8HmRKsloCsc/xUFuZ88dsUu23y7FODPTP/roo4844oiPfOTD++y7L3EPE2NYfHCLYnGRMifuEliwYMH6desWLdmuzC6CVowsQbGe2/y3lKju1Pfce8/SnXauO1XZmrb4YEvloCMBwMi5EtvcWOrpAFR3O9/+1rc6nXpqph/sFOsFeECRctqOCTFO97ds2fL6170h71aWBCRTHOUjkuw3yUiC+UeSDBAvx8gpprZec810t43M5skzY+RPNmDMtpJf1nJD69L59kkL0NZUrqCd7m59IvLcEJx5AWfkyCE+Eo656gWA6KfoVQRePjejCfWH2zmSlacBRM3g/2whc5KREga8/e57QggywzKA3828E2Wps5bL+g0b/u4tb5mantEENFmZHfg+0RYElLkFGJvmwQcfetvb31oMfuVu1BgDADCLly2vmAURZmamH3n04ZFeFzhCDXKOyPrywVC9yelpADjgBS/ggf76MWgEfrK2NHWFbCNTSmeedeb4+Ogznv70U0459fpfX7/Dku3G5s3v9noENGhyR5MdalFQEeVY05oja1ooP6yfKykjRw/Z0OBIb2T+ggW/uubqAw866BWveOV1115LICOcoeVONBbN8qe0cuXKQdMEfRotvgXKEWWkNUe5ofSDXX3NNb2RLjOWDDhDTyl3ca+ddSVx6QstiRke2M9+9rTR8XlQZkdq0AOeFkXM+uOpsGlyevLqa67efffdrZ+T7Cq4SNJqIdDwXi6TpF1Pq5zktEj0JPwHp+T//xex1wQb5witeN6dZ27cVsoPgIYAAhWC5XVYCnu811DWgM0cx5eoNHdGPZQ6aE9RmAs6t431SdWcYXGPGNDZOh78IcbQt21QIcMGMwMyj5GDYNuav/Mr5DJMwCcefwwAOp26PE/+eLlJqZkyYlnJVj/uhBOJYko8AYfPqDIMra0RpWUK2bUgdOrO5z//xcmpiWGiA34wtcMXqH0/8qjLIXzgwQcpDeO1/LuVeI0yD1Zoh/KemMku2223XV3XAStxb6bmymeNWvB/MPbs0Hw8+NBDu+22fP78Bb2RTkxNEptacGvbDjyTIYiVl8ZAoaq20nkqbaStBNzkiuUgBgxLlmz/62uvO+SQQzasX1+KSADalh2CK/oXz7Vyn+fUdT3LrVpLBgbJkAwPzYB4mJqcLnUEBCflkinkoVyZdWC1DbwcEee+i+0GDOHW22675957KEUhcQSpaCp+6bZuoXslPOaYY15wwAuYTV3UvGROZOAbMcffsgZM9eWjx3113OviAhY7CnP6QsC2O1WuX9utmkdgXhyCiDXo9EkZeCMM4Vycd/1TFiIQT9chUZhl1hOJbD5/mlgl1kHj6+S10zmoksAKsxUlnkbHb7d4kDHiRBoMiHwUcuccEdLvHGOlMk1kaAYJbrnlFgKqqzpRUn11skIk6HogUYShlSJIoyPd7XbYsdfrAo9SJemVspCFQVkdYpRTCATodDu9kc7pXzw9QOEoudxMGsyK8bSOWXuoQ7N9+623puHuL1pLUbvGkpAIlWKYZ0oOz/xxr341xYROExNRgDlw2oFiSzIhjfuqC099ut+PVPSrg/ofEhUpfleyc0xiw6URUzcC7x4sY2hROZQpb9IkBXC+qoxQN6EK22+//Z+87Kj1mzbplKP8iUn1Acsc0gpx6c67VqHqD/rI3e+WO4K0AwF5eQrEQN2R3v2/uS9SytLhJF3GvO2TDLNpxVq64wgc5dasFhE1g3jE4Yd3Oh0iVXhPqILeszdtORkRKzzxhBNjjJUIjWkZlM+ZC7SUvm18akGLbcC5bMltT8kcp4TCAAJlYHEbjKTCqOGXxYdGESoUCNLx6bM4Y85JWM+xxDsabkiZuFQ5TCAU0aWn/IYmqoIa1Omqkvcs2ApxLc5tAZ/+toKGJEVc53d6lentVLhLVXXLLbd2qjpmfNhpxLAh1jkTIi6ETTNAgJ133vmzn/7smrVrgMW8aHZiTlaxBGt2yZlHoiWLt//85//lgQceSHGAlkAiL1igdsgohKBQJBPCHXfdOX/hwhi1XGHe1UdiJVCsKpyZnnrve9+XQXqNIW0aELXE6xXaUpyGG37qUAWnHs9MJWq1QaOeJYEs0Qjq8qCMeytBBrl2LBBeRpIRIlAkSakK9ar7V+2+fMU3vvlNnfWE5fsu0UAM3W79spf9SRMbUoK9E2shbULQUXRFPTTBpb+4JMYYuDHNuM0Cvep+Cy4G1r/owpVzFkpA8+73vHtqpt/r9tj1ZLOVh4CQBh3lofBcr0RVVcfYHH744SGoXCqyaIA5HLISs8UcrdOMRl7T1pXWkdObmduXDl8spkoAXyv4YBn+wZIGZSRNQI15LHHLxRPtjGy92AejJMaCV6EMcs+KbY4pAWRwEwgzDJWpoKJooFoIpp+kBwBZEa7A4iVhCgX+bKNlDLR4c5t+t5QwMxwz3SMntGvWrluwYGFKEasgYTqnV6J+IQyeXMJsmqY3b6zT7b38FS/vdUem+1PF73LyLVkVFvCHlLJEVoOjFAeDiYmJs75+VshVAtI74CMQ+DC2G+NK9klAD/zmwcULFsTUaLpJHgmxHVj0bToQwtKlSxU9Kupv2nfiDK019mHZPklDGczK9ITOi2COiexXHEE8aAJof7r6p3Dekzb/kcwIKsgEaRJRbqOYV+rU3YWLFpx00kkpUUNcOClQBhTaZDZCkdJf/c1fF2FIZ8V5UwctNWlHX+7/SJA2btzYb/pZ3kuRU7SGQLVPJPMDcda769/ysLd+ExC//KUz5s8bL7C5iYwZiMXQCuQx3MU9bN686Y1velPmiwp9O8nBt1oT2kn1QLG9hLRLjBi5ZqXWa44xLE+6LE02aoFKaJiD1yhZT8yPVfPHJIVE8nds/FD+S5J/eFiJE8AIDLJmhlxKMnzHcnu26DSr4c+cqFJqtINLMozhBTeZcVWFqi7DX0XEhbbtCHT7JP2uK8h6vYWVDXffdefY+ChIeuHPNKj8meR8CSICvuSQP8hBerzk0kvjzABEDA8EOiAOKoszINK0nZdieAZGR0bP/s53U5LbEsOT7C51lqa0MuRaHALccfttuabfyp9JsGKwQTJMi3vRwS9ipKzW6NV5dlX/5QZRLjcRSXm0gAkx6oaXGMpodOayuMaZJC1pIRYkfG0yHiMpX5fpM5DsbNlkEu6KjE1auHDRV/7nV6o8O8l11mltZLi+hx76B4N+H7GyCgIrudt+5pvggRmQInV7vfPP/1GKERWYJ9VfkuRRMHyeXm37W//GIGLdqc8+93vd0ZH+oAHwHSWgW403NgJnqtnRTUxMvvq44xB09A+1wiJVfE9SbUL3VNo/LwADkLQ+bPuaW1qDkTQtCnYXVzxUgB/95IIHH3xwyeJF++9/wDP23JNPzKzY3BEHZVqpNHsHFy0Bu8/S+FtVYdV9qy655JI1TzyxePHi/3LEHz9jjz1LD7GnXLZdgZo8AaWg1e4JuWpHcZi6I4Vzzj33jttvx4A77LD9y478kxUrVoBZN71w1cQJrkH9d1rBPA6Xl/Kqq64aGx0XAEoDSeOPGg8t79NE6X984IOFtbbf85939J/96UUXXRSEOqYuFASOJZEQF1NSggmMqVn9+GN//5a3fPaf/9k6cNghIrjUVEn5ZaR+AXGXLNkuoMX4WhN2/Lz8pgn7/Zn9D9gfa4z9GMSblrhZR8OXAXHye6ynougiAnY7nSY2iEon1lYwfcLSXqcgFVpzntamaBZxQoekSCFLfxCddyPf2IU0MtL70hmnn3TSG6u6Q46QIaWakCj16s6ihQsj5QH8EqZoX77COtayUiZiYjjjC6cfd+wxIFOlQXUAkuF/KhgDbTvieNl8Uk7/wr+MjYymjH6h0B3toOnZ4psbLuCWzZu/f955K/fZJ79HkOzP2hPAqD26QyUXF0wGTfpe59E4Kdf2a66JozwSpUzoLsNSQhFkyAt61FFHXXzxz3dfsXtm0+Jg0F/96KPbbbd4zZp1MUGVu+fkKJDSQSV6NMRFJv+WRCQkiiFUu++++yOPPrzLzruEcngg/OOpH3v8sUeX7brr7bfdNjY+jjl8kM7h5AB4SJoKtvpoWRycYnPrrbftv/9+CxYuXLJ4cX8wqDJL/+Mf++Qjjzz81r9762c+85mKiTzloZWzHQC9SMjvsH58XNljb9m0qdvrCZwpSaryWdo9eSGEqampgw85qDjgGOPRr3zlD3/4w5FujzTBKlUyOY6oeZCw2FiKO8aR7si/fPGL73jHO5btuhwwhbabFPRF06WUuzggDWbqTp2aiLm5PZVkHy1s4Fo9sZDEzMxg/vwFEEvDCmnbecqYWCphAqdtwiVTRKDYlpSJmzFqC7mTgSvjTRDNgiHH+TEwydO6eYveQ76pgktpA38B6RPIIAi1D2JcXEAYE911193URKpr9F1YUjQpDuI5++5zy823lMyPZwi4yRHcE8nNPbwdEOnGm29QPZfWuCmusJE+WJn3K5FSUL2H4bpGgq1bN1933fXj46PDDLyqQMqmYD1jYs8lNw5VOPjgg4866ijEqsD+LF1U+Iq6IQsltfSvohAXckrPMaaM3HUFdBk0vE2W8hSMqmd/mLQMhcMU6n99+3/tu88+v7rqVzsv3XliYmJyanpyarKJaaeddpqa7h/+R4f/4uKfxxSBWjUOGSYqorCo9Rn13kMzf/LJH33ta1+zadPGpTst7ff7U9PT09P9yemplOKyXZZNT0296lWvuuLyy4vtzIsqMpxckpSEkMcHl4oae4o777jjlFNOOfLIly5dunR8bGxycrJpmplBMzU93TSDXZftetbXz3rjm95w8SWXogowMvlRoh8dMvfbXijtPAlxw6aNI6OjsWmoVOyCaqSSl96RsIcCVuNj47Iywwzt5a94ZVVV3VwDEkAD2XWA1Wg0XaJSpMx2pu5UY6OjX//mN3nTJi23kmMzWyCdAJpmcP/9D1QYcuJMrIKOtqi6S/gB5z6PFStWRIpluwbtKXKqvwQttRV+D5JvIG7cuDHZ+mbQh8rsjpRfMaWmkIiqblXVoa7qqpMqxG4n/ytgXVedTjdgBVQpEx90cVB61Yll8jPtRFNyqUSXvU6pN9I7+R9PSTHJ3VJO3VSMe/gs9tpzr8QTwssotXLtgpYBl824GyTfT683Mj09tX7t2tgkIFWHAan7snJ24R14chmyimzRZIspjzY49A/+sNOty9kUEkY5Acllh9Ljk0/y1NTU6173umzpnbY02cwoYgFe0p3P5lQiNI8YoTxE0uxyVuKUX3NeJfQpVzHYax5fc/LJJ7/1rW/dtGnTvPnzUoqokHle5/Gxebffcfvxxx//Dx/8gGQ/iLZ3pWSje1JWNP8/vuGNb/jcaZ/9xSWXjI6Nxpzhl98vzX6DwaAK1a233PrGN7zh5JNPvuuuu0BjbmC5b0OhzB+WDlFateq+d7zj7V/4ly9UocotZjJGPbt/AOg3/W6395OLLjzmz4499WOnhuCkOZSh8bsh7qCbL2uMX/OrqyBYztE68kpZd6KjdRUOfOGBgBhjU7ZgFcKb//bN6zdurKuqbH/SuSWEOpdYoCxrT8pZYVqy3XafG6aElKQ3IIuuWIeup3jkptnqqquu4uolZzLgKnts78yNY4gxHXzwwSlSKp1qqJtfD7eeOnQnQEBMTAHxvt/cL5qP4M5DyaJCv98fxDgxMbFx4yYEXLbLLge/6JA/PfqYVx177MuOOuqol//XI4546d7P3rvbqdesXbN16+ZB03Q6rHoqA5XZ92RHIhOPk6ExYpP5YVQhfO5zp4Uq6KUYH5DNHey0dKd+fzAMdUpDgU4PcuENGPc5w951DYTXXnudyH2ImKs9Awm+WpK3mKRMIP6NvvGNb9xx5x29kZF8CisBcQVyYW9hARECdjrd3XZbdsIJxytbDdzcZrc90cRI2XmS4gnqBNCRjJAcrLXNQZn75mf3Kjd0+pdO/8IXTu91e7xtCXXoIxdGMnu4rquzzvz6li1bT/vsP5OfGyWBomrNWHpA6cpfXnXhhReMjI6l4cPXNjdhoon9SUDTMzOnn3EGJfrQhz6k3tt1JzviS7n4zMc77lWveuSxx+o6ECMZWkxh/auSftdYhRo+9vFPvOiQg1986GEqxAQmrPU72Sy2mRViSrfccqu0s4PlHQpjgVKKOMqZmp7ad999Q84NC0WBIPzdW//+k5/85HR/ulN3DWXQgrK07WaojbzCHxL0+/2mSV8644y/ffPfkOAmZNrgaFdMCRJ0uvVDDz/UqSuNgoU9aLkemlQAVFVoBv0Vuy/XCogv1xpc5vAYvmrrVRqm3XfdeRdCVXZWJ4SpmRlKcWZmZo899jj00EOfvsfT93v+/iuf99zFCxeqXAwKlp8vKRBGDHXAsOree7979nd+cfHFV1999djYWKfbKxU0XhxSz6ksCUG7DWHEXm9k48aNlBsM+edczwsizszMPGvvZ1NKVd1JomrAsA6poTassAT8aXhG6htuuOGoo/5rIUwkzMCffIhGu9iiFsnW4Sc13B6nnXbajjstHfRnslJHLDzVXJu1vK1Q1XJDeaqwWv3Iw6ef/oNQFEsoMRXIfZDub92oeu2+hgXGV7J9ZGcjzY6p5pzWIDhMYJNRhdP+6bQ6BDnkAE4xoDRAZzpwKAp/3/rmN0sFX9WvSZNp/q2gAF9V1Yf/0WGqoWSrA0GtnR7RstlO++w/PfroavLsNltaxVNzCoaweeuWh1c/XEl6jQYWKEolYDKGqtuZv2DBlVdeJbis8A7advA/foVSiaHQH/T7g0G30wMjb4DWgUDn22imlydKLFq4KDLdMWCoK4QlixeeeeZXmv5AHo2EPGraQTgPwt/RwxVCmD9/3ne++53UDPMrxtHR8ROLtBKW0UIJidavXxuqiueKiWoAkEuwpNcdAbp1vWDefKB8pczNAOVu2AMFK4IEpqSUhD23tmFYv3YtUaqrmlJa/ejqTRs3vOq449av23DLLbd+4Qtf+Pu/f9vBBx08f948ilSQyoABq9DJAkdVhXkgdIWQ4mCwYsXy//G+/3HxxZfcefedE5OTExMTFbPSA5iJJnCqz1otUktedyol/Vm9EXT5qA71/s/fD7NejIjPF6a6UgpRUyo544FiXLxk0ZbNm1njUrS10bDP0qXMTLlix4JCYAUvS/G+++697777CmUvT77jW9OuAGyN3Br+e3pm+unPfPof//EfCyKAfML5bIFCoobVg+cFkVwrKlUcHAFQfq2CbZCTuTdYXGvKfUkpfvoTn6jq2vjpmhqXWjxpZx57sE7d+dnFP08JYtKAAlQgkn+ZDxgN+v1FixYNzRMr8oAykMGge01Ehrus7va+9rWvUSTH+ipvyDg2CYUhDuILDzyw2+mq3VNUjdBSVXQdaCmms88+m8j1s2oe87/BsFKmMCR55a9FYq5HqnsdHeUodaGM0iaJMIWoHocfDtvvsD1Fqopcd97VkdLxJ5z49D32sDm94CArfRZgaYSKQqRE/f7gxhtuvOnmm7idk+sSrS5OtsnDfR/uvvueqqqF9y9+wYHu4inY1z9772fn6CyUB5o0LLVWOaFXKh6IvtAXU4yTU9PT01PrN6w/8sgjf/ijH83M9M/44umdXh3joBk0QNTpduoQqnI0iSeyRUoIIauFsFOr6qquq0hN0/R3XbbbbbfffsLxx23YsD6UCazJ9jeYpqDa1Dxmo5RoUnmypAuLcuPILeJx2S7L+jMzpUu0xE8K0yV9QPziCDYlGh0Zvf2OO2NiK57yHPKyIjJNvrR9QOHmJ1DV7LxJYqxC/d3vnlPX9TAjyd+Jqt7Ng5MgSe4ugn+hqurLLrmsqipwdfRUKvMoQsuA+i3ZVIZ0qrChjpJx4m4ansVtPfvcGyxusoEUoa7rj3/8E71eD3z3pY8e1YFq8hDgPe9+T+XfjlyY5b+c4PDDD8/aRr4RXbNJbLUnSNbd7dTr1q0rwgkiEsEJNQp8xl8N4ZGHH2lidGRodAEvofP8AtHTAw8+mEk15Fk6UPTqtnllElocOszE0Kp2zXTqjrDyVKpWiUGu4M2+lAqV9AUvOLBJTT4tsah2VVg1KR5zzDFZc1XiA1AYnLRlUoyKMKykaDQ6NnbQwQdt2rBR3aSZHrXihYePcP2vry+qKpqQg0feBCQrK93vz+y3/375U6Kkg4HhY2Ol4rYdBdLVMTzmq+67b//99/vExz/+xBOPf+2rXznyyJeqvn2ZfFQeRcp+gCzkBmvXNbHMYkrLTEzcffmKL55+xjnnnLN169aiqwnA/edA6KgR4BvMQ9FG07qXclIkRctVuRCqsGjRol6nawQznrVqdPSy3QJneSWAoptuvqmwDoV6wR8RbcahWyQVGsiRbVVVkxMTn/n0Z7qdLlrsZSA4kDHuScDjmX7/3e9+19KdlgLbGQWrWJBaAjP+dTeh3rqe9AOcErw/EWTNB+3XUzBIVZQFQPVzUoUqehwADUj0s4NLoQsx3HH7HYXdp3ljG8Hg/I+QfvnLX8pXSEoyEv2yXhk/UM42KMSUbrn51rKFdfD88Jshueh2GJhUnbD9Dtvl52rUIwL/MDjZ0/AWCcbHxqWB1TYTAT55hFXu3rropEpITVVXnaqbYlKKEHFrKQpNDQUT5IyiaZrlK5YH4BHhhVWbKEHkOR/cLoSSKYCRHhHcW8p9DY9fFUZGRmKM//rlL4u8DtoTkGYmzG2BRDQxuTWTi4h7eEE1wDTfKbcwPDzrN6yfNz4/d3gEISRY8AQATm+4rL6WspiCTYnG58876+tn/fe/+qtur5eFjxl90ExJkhV+SoW7IeXrspxGDtCejFACSsSXvezIffbZBy1KLxpqxFi0zF52oIS2DaGr0jP/VpY4EMFzV64s/NJQ+hrKPQafPApSLh5l0DRr164DFngL1HpcMkJCp6RKzlAwtDwTBF/+ildwPRFavDirjehzyt/q1N2JLVve8ua3pFwXQfEgRohnP4jcqYr6LYaUq8AHQifwFj8RLMLnDfKkOO9TkBJKjRRZ5Ia0GQndOF9dEgjq6koe2R3pXX/jjcJ/cdwUsHfLQokFP82xLu+QnNez6xFeoLRnSbcHrrp/1fCEccuhHz/ikr5YAMjKiXeUoVDuIGlRGTkjIChF4sS0M8XFnpwTp1mPwXqFnVRi8k2bN2XGDFqISZYpoIxR0UBkMBgsWrSQx2+RA/0x7P+CA6ZnZrKgucurWy2/TJF015SjxmFq3CzbeZef/uynkVt0W/mjlKWHv3H5ZZd1mfMlg7cBLRLVrwhiOzPdX7brshQ5FyaZvsb3Z+1xuo5qVvKFJ6i7nZ12XLrrsl0pQqeqpPfdd6sQ+LiDKZCOuWiNI7yxeCcC7yFK+Oevec3atWvrqsrTYZK0zXGd1bKcsitYTcfmMLaPBknlP+27cuWWrVtBgmjGEZIfmUruJgqnOHU69ZaNm4b5CyVNDjTibg0DSw5DyhqFN13/66uu+mW31xE+rDPT4q+YvCqbZ7o/ffTRr6w7NSNQsnr8DJQFoQrDIMdcWgV1f6l8kGssRAvYhYA36zW3BsvqrDnSDWJFE3PNQW6ohAZBmx7kkTDy+ujqR0B7SSRws18uKxPcPxNawwd7AQ7QMmE6sA3PPikbuhDIX47uZynJl7ChTCuRn9M/7dEQ+NqvaGRkLquZQdwmALYFY5uHlvWGQkdKcOUVV8QyiF2hMNSOE3nSiW1CFep58+dlel5FKXm0IGA48qUv3WXZsm53ROyrI/0j6K5y+5fUiBJQ0zTXX3/D7bfcUjTnmNreytCHN/7Rj54iv4veLLr/8RsGPvVw0AtfSM6hG/vKEg/+BHIeq9BF0KbfIiOUs7NHfcRmv/U9g7QrSQuJxM7epAPGFF91zDEFoOSuHWoF/AFUqCe/a9K9lNBfgm6ZfLEBcfluu61bv64ozaPdo0Wj3saWdYspdXu9a665Jr9f4I3lo31zN7b0chDiBRdduGTRQhROjMtB7DecFACkFDeuW/+Pp5wSMjlb1lAfDHKUpy8/LdUnFXJ7ZG11QNDqOGnT7NwJebJj85/2KhWzkg2QmOlQhImoFa4COByaTzlf7GDQ32///RgFZ46sREh2pHgMKahkGraq/HY2pE6Tx6UO/7Fs52E2HnP4VxV6s4pfCaKFhBWFmf6AqFU/AaNdK5/JBfGIKTWgpGrdf9vqksmCoe4o+ejh36vhiq1adW/FGYuUz8oiVXwd2qWaC+TVnnvsWWhioXSUa6tWGN7g8a8+bs3jj1VQseIOd3FLNYszzdYgdbYKecjMSK/33bPPzTroRVJacj1kTTys68svv3J4wcHY7W5KvSafvO0HzQAAn/HMPUMZvFJuMffYBnTxo8zJkPdgi4Q28TiZNKAPrSQhK9LRzBsno3OrpkL+BQtWi7w70zwJqzrsuOOOdV0N+n0w0dkMs2W0gAvxBW8iChKpo12Tq/JyqQmbJh5w0AtDhrGZ1imlN9IOR0m5uMxXFibR7bffjqGiDFZqvU2MmyqdsHgXiq/LbWIBsC541v+PvTeBt6yq7oTX2ufce997NUMVUAWCzINIAQoYFUEEcVYUlcEhYBC0HT7UGIMTRgIdo7YKNCpijBGHTssojiQRjEkUhahQYERNK1BUUVVQVW+695691/e7e6/pvCq7W78uTH+/dxKpqjece84e1l7rv/7rv5ClugJq11YtRZKAtD/b/68f/+Te++w9CqJDlY2zijKQnKESj0q+2faeMbbM+UK/3nXsXYnqnGtHE0ezFS0PNApeod/vS81akOBA+ctsfygZ6oZICyYWrFy5B+bGXyC5E9n7oA5XwHDUE4+uyvLiql4CQaUl+YhJRiOxbxFOOvmZUpYBEVQzCiTHQuXhh02zfv06H9Rme5JsbF2wSllGhBJu3Top7gozRzNHP9H/gulukWl5kI0bN8z2+yNXKcgrKTBZyItJDvEsNIpAez92L+S2HtKwszx0zoideupLhyk2qWF/Tpts8gOCrjGwxkF5H+QQu9vrfvGLn0vZPofCXeL5HgU0sUlTk1sJYlV3WWYmgWURwUIoqTrEfr9f16Hb6ZItCsksqWNAIKEFn1QShxq4JX4gUavTIkoTZeuDhCjZPaaPu1Evv1T4EplrGUKdd1cEzuxVRZ8T9BCVxrCIGCWoSBmDbqI2u5OPECdMScpY4eMPeVzmZA2SKx8WUWUzpZwpyF8LCN1O5+GHH64Kf664c6hRTQFzycIWdf8hhYCf/exnkyYhUyIFyHwYkyAw9wL23XefV7/qFYUyLVGj0CaMnS9IBo8hCQdAt6POHacdobX9nfHY3rXDW9Xr5wbEYX9w7rnnNk3T5quYtUWGFoXZlBfHO/70HYkao76QI0eSQ18gff+2f5mamUQR5RDUUM5gX0ovA9sMh3VVDwdDzvqglLbISaUjFAI+8QlHdutaBpMc0ijFpQKOKUN71e6rQB11cyLxN+k1iMlT1LvktOKVV16ZW7YA6+SQ7yginYXIKme3bpnae599snBSbBE7BZQ48KADP/zBj07PzApF0bnjCGCIJ6pQPdpOodjELVsmP3/155omtqtH+Abf+973YmzquuJfaBUfCx2B8fKRiWxi86xnnkxJVTIABOp2wVx7SXtdAGTITQF6bIUVZH2HLS53aXaBI9B9jGb9kMvdcpYih2JNk4lsGOwu+oauv3J5qBib0u/PTzCoDATvjlB3O0/6g6cwH4qSWlXJMiVNgqiwSALodLt3rVnTxJSCHNFqtdDkZ8vESfZ85J1deeWVDz64jiMWB7BCK9LLEGo25pNT0xdffEnVqRP5WSAXqdIc/yn/M5TVGjTt5zAHtW/qbwvOSTb67WtHGyyL8DOdvz71JafOzMxEkvIihn0M6MsDqDWHo/c9++zXQBR6ZkvkmIwekc+bRDi5dYqsApi/5Yp6eSERE1TSYNB/1rNOzlyhVumo8g5QvGkiuvXWf5yZnc4S+SjIuK54EMXfwA2ZQqiq6szTzgyZajgX+tp+UCguskab+TWrqvqvl1+R3UFkwdpgtg9dCAmCRmze8kin2wF0mIB9/shBQIA3vukNdRXquoMcUatBsXu6wEtAoSyCiCH0et2vfuWrQVwemZbcqieEu+9aU7JnhI4awpYKRTZXKuNHoXp41dmv4QBGPBeuQNSTx48g8RlXTjW/G8hSncGwqGI92MJIsATMG8Us4Zw7JknRYYzNoGn6g2Y4HA4G/cFwOGxGX2yGMzMzANDt1Kj6ktzeg4e4MrpYToonGuuNhWAgKyokhfyYmCOOP37bW/jHoGVpgDQZJUF1XgSBoK47d9xxR0qxU4JFMn4C+z08RNyBrmy3qgpXferTixYt0gWPxlNPfPopGwjSWLc7PjF24onPCKYkDc5rKCNc8fKSbypuoi4AoiLIYG5ZVh9Cx63j5DVux83awQbLUUFKyuVJT3rSua89t0ak3LXcJNwdtil4BTWUJiYmFi1aGCokcnCtLDkLW0oIk+JNN32FTwg2WwRSAGYNbIqTFqDT7b3uda876qijA5qcY3kKMaNM2SxYR90JBx54cOkbLCUP/IqsVowgjZARUtyydeshhx5CMdfWoB8Uo59sb8D4OYtsXOEbrn1wbTf3cdDSFhXekkiLz6rie8UY99xzLyrptkim8jN68cR+Gqazzj67PzsrOR7DBRMwe4zkzfjozqssUaBc+PSVr94UOlWG/xxIlg3HuvXrFy5cHLlG2rtChWfkSGbc/x6ffvyxGKQBIp9BaLA6WCJSRyvxyaeeriEmjsjDC0a8w/KDKWa6WxObRNkQxViI8qEanTQpxdn+zJbJrb/+9f0/u/dnP/u3n/74Jz++/Y5//eHt//rfv/zlpolY1QSpkoxDbhMmS1kfs4xySvvvu1+itJ2dQcKhynb7pBNPGgz6LJLLHWaMN0qGyZaRHq3wpmnWrX0wJmJep2SsXYWxYEKaeEb460//1T33rMky/VI7r/kNUrdRGpETTk3PvPmNb8ol90K4x7lzkUs/7TnJfIP8IkljVQJXjC2wYkhobYXY0m8vKtzxnZ/BPPrisl9yycWTU5PXXXudKygD0xvi16fBsNmyecuDDzxg30CYywcgaNHYEU488cQzzzjjb77wuU6oEs3hG5a6EZ7S6emZ81736j+/6M8TieuGSYWqNEUdgFv9lRTcd7/7ndf80TlfvemriC4UI3W95Q0CzkzNXvCnf3rKS05h+AaQ+1O7hO82l5Qn8iOXGY53/mhNjGlifGLI0TT7O4GkeQLJKVY+PJ/STzjyyKKlkt0ptjfZrcweTVU1TfO2t77t45/4xJLukkJWLIQgsA5gUMRCHKIgdMrcN318bHzTxkeWLVuqUXFxNgjSz/7tZ8uWLJntz+gDktp2VJ9NvkRpfHx86ZJl0vquHQKinTPYWlqu0K18rQihsf/J+FSWooeRTUqpU1dE1Kk7/an+d//pn356zz0bNm3cunVy/bp169atve/X92/cuGHzli2JqK47AaGq6rquDDorbxFpxYoVKUUgjODod07bzx4+b8JzzjuXddwtztGoke1bilh3691X7bF1y2Yn1sXQn2+Lx6EvFhZB7E2Mf/WrN73whc/PdcuSVE1gsQiW3t0pZIX7O++885zzzt1pp51yEWVQGR4ReHe5xGyIxycmYHbm/Le8NfNRRaGLHAKhlaJgrFNFTcTRQh9sIkhugrSqUANY8ky4OdeOFvBTcpKwDhCw6lxxxWWLFy6++oufp5HrTcEl5UtaZtBv3vimN7zvwvdlMRAjCxTuRjm0A2llLNpSQPjQBz/4xKOPfsUZZ+y+ao8YB1K8i+oqAcDs7Ozll1768tNPq0dnKQmCiWITRXvBrahsIEJAuPJTn/rC579w3rmvXbhwsXDIuI9lWUhVFR772L2/+91/bOLoBI6ci9ITF2UutxmuTHLP7V3LF9jGfu+2H+Q4F10tN2jvDNIu72VwKDVxGBD33/+AoFCbii/wWGFuhlzvttuuhz3+0PvuXxubmJMdbFJddEgZ32EPTbRK2bsb6/VOecmL/+Hvbi6UQM4ZZbf0+z+8LeYToHKL0IVzpbjWWIf77bdf6RJRWV6t9Gx2hw24Iif5m7ajJzRHMkAoPkfxg2JM3W6nojToD//84j//4Af+crY/W25S1Z2dli6qO73xiXGK1JuY2HV8PDWZDFaUS6H0TCq6gRQThA5o+bM4CUFWADdaBsMwqqaZfdELXsDVpAmkDAlJ+jwWxmnG6Ktjjj765r/7luY7rP5SNDTAU3pyz/oKw1VXfur5z39eVZGBBdyoGaWVK6q/ds211/W6nRIgowDiWOTbrNg8Z/gTdqqwbt3at5z/1t54h3u7IOjZ4Ilx0rxbarZM+R6MGl4mvgAu3NaPKQ+BDBOCJPSQRzkkNL1WkpYgpbgqhYs/cMmuu+wyNTkFIlQUiUqV1vTU7OGHrz7jtDNj7uAbLI9PxutX757kq7KYE9EZp5/2/du+/8jmTf1Bk6nOxctNdafCkCa3bnnbW956xpmvqEJVOIp5OJPm3uRJySclyyfGlDDRmWec9p/e8IbZ2ZnYNFVVGAWjOKKuqpmZ6cWLF1900Z/FmALQKM5gtDfTvClIdmU7ISEfcOjyunle169bOzYxNnLgkwPi2nX0iYd79KT9/hAx9MZ6+RxO8iY8Rqz4FTg1ePrpZ87MTFOKFFwOg0MDtDRdMjoU+/wYhrH5x1u/86Mf/2S0mZUtjdipq/UPPogxipwOK9egQbNBk70lbFm9+jCoas2plEA+mWts7gaPlcOmON3kYgjxhkYzUFH4zq23nP+Wtxx66OOW7rTs0o99rDfW22WXXVauXLX77rvvssuKUHVThOnJqcnpqdmZmdnZ/iDGWDoVYcBQZTUeKs20i5BBqfTLExDAtKYLK056hed3rSrs92d3XrFL0QVk4yONs50WRS5TBtz/wANn+0PSYElCL1T5KEE6ysrMvc3hlu98G0Dki3gIStMgi1CrXNKZCK668pPLli4fbULOXwUBFz2zl/Paw9gM+oNXvuLM1LCAPU9a0pYAmlEuT1foXGT4PygMwtIqCfxH8WJyaZmRM0LqzLevR0deBhnJ08A2W/3bvv99gHDnmh+/733v/+k99+y6y64HHXzQq1/96qOPPiZRVB9CUjDa6oikKxMIJ1bniG02NfHI1U94+OFHAOCGG67/1x/95KH16xYsXHjE6sOf98IXLFqwUDItgnlk9lRCB+g7F0g2iggGZxfi4osuuuSSS+Kw+eSVn1z7wAPDplmwYMETnvCE5z7veXEUuAVO8EjrAZ43ZGWVXGm7vZGyyivSzPu99967Yqfl/cEgN2UXD80WlgIUxZEdWf8nHHVUSuUAUAYbqLUpc1FjaCi98Y3/6d3veVev2ytMSGiVaasWsCsWsjEZ3Wr58uX/5cMf/sxnPsOa3YBN08zMznbqzqBpsLKEadnwTtNGgurR6IdVu+9Rh9Ak9k2SylO3K0NBhTRJoxYUeFf9t1Tm8svXfPnKT1757W/fMrFgogphrDex05Klw6KenIUKmoZh6qLeEYywSTa2o/9U4IhZDsBxzEz5U8MpqR2G3XffwzLhhO2HBzl5RmfZIA4PW31YWeqSEydpKqcfIWGCgOpjY+NbNm9et3btylWrMAT1zPnndZ1kA/HJKz4xPT0dwuh0LYYetfeI7KcCDpTluXXr1m9+41v7HXBA0ZKI6oKY7zNHoZxcuI4WNvk17iE8SeeAtH7XfQC+lkl/eXupw/9jV2zi3DnlunarBK0CDkbxCFQj7z1mmbUqZoNlJWTJokvAOWCGX0OOsZ3/GTCkIs6U1R6qKmu5IiYiaIF6Il/HjFa02AW3+RSBRzCECkIsKSWiqmCSRWMPg+sHoA/U+kIuqW1dKZ/qMDdywv322TdU1eTk1gxOSVPB4EAgTmxy1fXMzMwVl1/+stNPq0IoHpi8lHpJit2Ovveud73riksv702ME4zewp8B5tBo+yMlfVCh81RbNm++56d3r1y5quyrpmluveXWl7385Z1uHSDomnQmT72AHFYg1nV11tl/9L4L39POpOiCTmqPfyP+J+qumOCXv/zF5z5/9dWfu/rB9esWLlyYNVNLsVZIKZacYMGAJaoJ0oNens9UxdEeARyaimY/wYJWm2DpXTw6RZ//ghdceeWVVDh9qFVA29IoIaZm2I+7rdx18aLFQ5GlF59ToR3BTPM2SinVnc6DD679q6s+feaZZ7DBIl8Jwj/exFjV1b777D07M8ga4kEnVJ9H2rsycBub5tRTT73s8sukApP134CbWlB7L6LmZRSxZGFWcMtJzilBYEEeWFtLodVAANV1y6na4Y1UweU/lZHJxAVpLlCHUNWhYFQE0BTYR+nxnq+vsUF7GDgy0I3AcUJxi1OVcWisWDkru28JrMQ4iAOCKAwnxxFD5bajcOq5Iy9BQzEfRqFT1UzfT7FwBuWUztmcZCQgscG/ccSUhFG2eF1Vax9YOxz0teVg+ZFA4vGBUHPy4weEGJsTTz6RtRtNTVoQLHEthUxIL3vZaZMzU3VRTTFudkB1zMqECfUyGL98NKTdbudTV32qruus8Ut1Vf3krjtxNOyVuqyOylX6XGkhSOFfj+wkJ9oIHD1ca2Nx7mIlmR7RoRotpNFhV73p/PP/88UX94eDBRMTOeRPRW10dIcsruacoEKQT6YjliQoBklBkHdkwZH42IaTDixIBCuQEyL0+4PddtsNVRPeQJIEmuARlkcV6omJsVHgU9dGHiBbgULlRFGQgawom3rd3s/u/RkhN39DnNPEGsq7f+XGm7Zu2RIzNU+AFS08oMJo4IKCDK4Ph8M/fvsfs6pFUWbXxBILuEPpFSKqEqWqJYFWfITEe8rcLjEMouTALblF1MTKm1y5i147mtZAyuclD0Ikn9sh84yF+lGKvJPLSpMht9amnZzf3i4tTUwykHS8EtakHUf2hvkBkn9eTVjwV0A/XYKegudooYHxMfJIu3bFMjlu+5H+znb9BE6Rc51t5hze+7N/G5sY6w+HeSHoZskKLIXibl4HZwBCFZbvtELqhfWwEh9UU4ASIa5efdh7L7xw85YtmY0UlTTO44Is+SV/KpLIx8nY+PgN191454/vKrSnKoRNGzdUVQeDjgLTULRSXVgTI+MXUxoO+gFCjDKJovuCFtbIXVDYEAXSLISADET+3c03X/hn73v2s0/+l3/5551X7NKf7VNrYA21NskmXX5KaXFdR8kWrJxf4oAk4dpmpS/RinDHDf94ooD42D33Gg6jEZ+1rkoRkswzKaB9TOn4448nOX601Re7yYk9Ny5sg1LF3CxasvjX991HMZJeYONeJOQR6LLLLg11J5+1bGWS8DOTl1HOYMJgMDjhhBP2fMxjSnBIRo8A2ZRlZye13UJmD9ImXVanG27bEQJ9WJuepJGIY6m0rx1PHLXwxsQ5deGAi5OsxkooRWhEWvkBZcUyVUejG86S+0FFI2IKz7zEDHY8y/CAPqMEzvqpBhqiVoyYCWpxTctPosEVcgdjukjn/m2Dc/4l+dn8i1R3Otdcdz2yEi2fb9IkyrrCiBHIar8BV68+HKuQYjLiEZqmhE16vmUVRr7Nu9/1rhe/5CUxRpbhAQC1UM7HBz2AQfDVbHvuu//+o446cv369bnZfFizZk231y0ekzq8LfQ8czpRSmIGw+HCBQuq3FdGH4wPj5LBdePMh7OFjSPH/IILLnjxKad88hNX3n7HHZ2q08QYZN5dt2o314ZWkZoRC9sZO7LpR/0hRWEZQQpalSB6BcV1KLEkNik++9nPpuJ3yzKSDpoOzcmDHHDk5h577FMf2vhQcdEYIdBgVbsuye8EqAJCr9v71je/yTUwpdrWsXXLs59wwom3/eC2/PdKSaxc5sr/Lyc5wmy//5g99/zCFz6fHdKgr00+zAHywKajOSaLUbhHvzvUUZQcdEpV5QJhW6xnzrWDDVYobXnBxdSglbp+7iWus0hQNwpK3/2WFwnyu6rQJ2X+yIWbQIoHcl04caMQyX7p0LGUkMdN9LzBJCeBiw8B0G97RDuFgwGp9sphDoKIvwE55OUYhGtfVdXU1slO3REWvUvVITcQFaomRwMxpgP3P6Coy0Ow5sFAFkI5GY3s/GcqwUte/JLByI8zc09cdoyyp42HHwTeyT4lLhgf6w+Gn/3c34wMJcV/+d5t3AE5BRVf5uw9Mn9HKkI4xNhrr73rEGTjlkEodcosMaFaM6jZfnmalSt3/chHPrpo0aKYYi0McW2HVYpW2jATykiEURhV+MtcSKOSNk4ZwwAHQZKlRkn+grzjhKZOWQKsqsOgP7vbyt1Chu05QOOuKioFjzIwUPpDH3TgwYPBoAolZcIvK+5MWb2SZMZUkNemiRs2PIQhxESIFVdi8G0xpfS1r3/9n/7pu2NjvYrl+rXzpFJ5ZOVn5HdqavKWW27tdTsoSo+gxiSQN4T8d9G8Cj7+V1ERduYDbxVStjAPlxQrgHMbWqkGb1F25EUaHfv6VCDr92vpH0eSRWmFmrT8i4nXIptIejxq1gg9qs1JV864MgAiRFypEUh6SkcABSskmyppARR7SOTivGQvxHeVA78EUsk7Z0U4i9CHvL/BYlmgHLJcFdx1152dTk0xFQ1aBObJOxqBnfGYu47vutsumS2KGT1LczxrRn+9h55STPTc5z13rNfr1h1xJpFhMhGNVB4Nx+g57I55nmb6sytX7X7DDTeUFbxly5YiJ0BBwbvCU8hNbCWWKT8cQoixOfjgA6M2GI5yTKtrExM7qHyjstHCYDB74oknTs/MLl26xEYhlMfXsFPkpTRDx6qelDBREyPFUGXZwJFD1Mz2Zwf9fn8wGA76g5nZmenpqemp6ZmZ6Znp2ZnpQX9WBqU4+Eno5BYoF5pRZuRUixctGXmaFWcgs0eptQPGvy+AQ8rn7xFHHllXNQnyYNW1rh4kqaOVz5QY+2Nj4xse2gAUgaJo95V4DUPA6667btHixdJQgIF4LmJI6uLkvE9MMcaXvezlixZOpCz4lQhaSaPy9Kh4SFkcid1G8ydc0Y4ceYIjGNinP122DQO1pavF9kLCR4PWYAwEtCaSEuZLeGGesfhFyIXILdIr+RR2kEgzzCViqjMAxueQrLrGqMa9pYAaGoCnTYIcR+ULluPQFiGkoas9FzBuyKg46ISVDy4A3W84KpB7wIx2QzX6kJv/7u8nFkyg73zhgxBXEZPTLjA7GCxevCS6MNUn1rxcDIBxSvPghLe+9W0XXnjhkiWLucZfFpnyr8jpsUiOsYxTlVLz4x//5Lvf+e5xxx0Lo1WfQlFH5ubq5Ep9zfDTKOyt+jOz++63v66F4tYZKVwpmrk7tHZdmZ6ZfsYJJ9x778/HF0yQ6wGNRUVI+SSCPFD+ZZG9L24lzgxnh8NBbIZHHf2kw45YvWLn5RPj44/Zc8899thj5W4rFy5e2O31KMbclXZ2bKz3+tf9p1u/c2sUZbQgnrqnGyjlrArhmCc9iQis3gqD8VaM8cFqBiErue2++8qlS5bOzM506k6oUOQFk7F5JF1Yzo0ye1VV/fM//9Ozn/vcmhMX7E8Pm2bt2ge++IUvLFq8OKWkA1xsbZCqRimDgG63s2HTpvdf9GcNUF1SS4oms2ZMchsJpZv5NuEcGUoN4DgybiOUUzC5XybLY6vAQ+t6FAyWpEOk1FXfB6zCSEpgBL7ScEyjbJ5macxXGuSK9aM2RQFVCyD3Ahc6T2EYC6EicHF/ceUEp0GLJUULT07GEDREEL+erLRUy38lt8vLTwnAbpMCbF8iGRV5CKOTssIqDpumGVLkLg8l7nC8AoPr0Dn4++y9dxz0q6oG0NCobGFOtqGqGZYqesKYnYLXve68Cy74Uz5ysbJ6THHRHbshZXkVLF0TihJ5t+7+/bf/4UlP+YPATEuepsAaHAw8FdXmzHgY3b9Tdbu93siLlFNcWMIgYRPlMDEkSbwkSk0Td1q6dGJiou70csdTUeWSPFXh5xvshKBdy0KoQ6jWr1vbxHjo4w/78jXX7LP3vrVUL8cYmxhzC4mkncyAoFPXCxct/tnPf865OiqpfZBjwJZFEiizaeLjDj2kDigWl8lN7PYFZJFQZN2eNLJXI7/2Va985ZWf/nQmOqSqKApBBRil2ANASKVlMkP2+f7t7rtPefGLS8P7IpVFCN1OffXn/qbb7SZhzOQRCklom+LU8HZoYnrh81+wx6o9QlYfzApF4hNlRicJx0GXrAtxyutJZKguQkk+e2jZMy/y5CR3S3E5tpOaejS65iAo29vl1sz74ZfU9driL8mI8M2Snsya8rZEpDlPIAV8JHlBNGgLmXYOCohrOKh6SEnk5eVgtBkpOrnWp6I8szoPanSzKryKfXEPCjtK/icDxtFPonj9jTd16g7XgSojj1u0UG424cJsETY54MADHYNCBkTrnyXOTpyLzFBTXiAT4xNv/n/ePD0zlT8mCRKo4yi+H/Pqi9lMxQZWoer1On93882/+uX/yLKZIL2QWHCFuHmbHFVlBtLIKKxefXj5u/h+4pSjwiTiaBR2YajOfs05Y+MTY+MTo40QI09RUB4PobT+0KCknGAp0uTWLQsWjH3kIx998MEH7/jX2/d57GORmpiaZjgcNpESVSFUdd3p1nVd9+pu7gPd7Y1PAMAvf/Fzzvo74yq1nCRyYVDaBj2y+eGx3hiESrKLOoLCiW+t2lEInZ89/eFrzipHY4UoLVkT+yuEptqlaoABO93uI1u2BBHZIUkDpERf+MIXu71x3lBazC7pI8+fD4Dr16/7w7NeHTKttMCgro8b22IL6HIBrokG6K2sZiLnIiFjqorAJMYHWSmJrMulRJyy6B5t0F2AXsefAkueMSSHlgtsw/BI9hVZHwlbESV/DrqqpPKbekexMi5J2mK0g484JTlLIoRivFfTg8Mg8Vlyvwj6zPp+7YFwON72iqRAA+eUzdDoeA/vffe7NOQzCIlskNgFEn3KgGEw6B900MGZMmovyuhY65lEt7O4qYFTDx/64If2euxjmfhKyYGrYvZduQKRKlRk0Z1EP/3pPU8/4em93hi5DCNK1sV2mjwbhjAcDJ7whCOrUPERZGCJVkb5MygS0bXXXnfDDddNTCxIaRSscRcJsMNALAGKkcgFo0izM9NPfeqTv/a1r9999z2vPfe1y5Yu44q2rBKBoXSBKFgAaRpIpV4e2bx5drYfs1QFuRQMWy95XQ5PsZqZmdl3n31Tiu7AUMElV1vG65e5TIT4uEMel1ITihBxSttsKj1DZUkRdjqdNXetaYYN40uZ8FEhnnPua++77/7RkapL3DkE2kS+PNvWya0f/MsPnnjiSSVBjJDkxA1uo4FzrZIh4ySFkaBbDvQjFX9FHzwKECcnMRr0RbBdnHcHd81RVitXLgueM1ogWIohQrEQIWVCXCXLO7gtj4JCuSQDGJWGQMVnjLefjcpoMZeyr5hi5L4oIXusStBi0XUxAqKzDMq/C8pEkPdQzYcC5I88f+k8QjGUlnySnrO0YtasZ2nB7aQ/yoDJH9n4IK655+4Qcp8R6VcaBFCjwIFT1nrmHVrlGtxut0Yk66y4zfRTe4ZQM2BIQ0gve+mps/2ZcjSQ42lwcxngtqhq6njx5pbIIdSD4ZD5G7abSfRl0a3M0VWHasvWzUsWLylEXmbMWTsZAUr4/B+NYN2p/uTtb1u8cFGW4peJ47dLaJXSbMlHP5Nzfxs3bvyDJ//BNddec/STjikTVPiZ4neDNK3g23ETpdGzpFIueuMNN/Z6vdikCltQcRkf/TMpYgWw+vDVZWmUVIAguSBpIJR6OpRyVohpZJT32/8ALHqeQW2EgqmiVhjyh6Uc4QHdfc8a6WWJVTWarl/9+tef++xnu70u+UfMCziImpjYdqhCtWr3VW944xuyqHXGTIKejKSZRJTFQAwfq0sJQtgymDR7vam0heXlONo3vIOZFKBLkVzXVg8eu2tHSyRL0QtIOoLxiWS6PnkS61BjVcXcRVRQUR8TywnKeQ4h1imnSXnumsXL1iM2xRUa7f7RDKYcPuQpFn+Dq/zL3cG8vPLExFk2PlJTWVWJEuf98o/FlKampvOMhO4o6IjqHZC6CTkxmITqmn5zSMglIyned/99RNQb66mqo0bU3B9TvW4hLkOoVq5alVVoagGNLBUPbZ9dsqagKaXRAhnGM858ZTMcUFARRb59Enp2kRmQUXM6Y2A9C9SfI02y8vyhHb55bU9NTy/beRmlBiEyxJOkhFSfOe+OAnW/9fzzH9qwcfR3Ed8gyclq6al1ryAGm7ZObjn/rW/94pe+FGPk2ixo5a2hBVGgInfZhRyZvETpM1f91cjrRIoyJcE5BFLvzA9Rkp777L13kAhZ97s9HeorkhZQFjj3mGOOyRh51MMt6dLk7GJOIwYuE0+J1j64Lsamys7AML/hX111VbfbC9LoQJKk2eUsyVMx8DHG2f7sm9/05qqudHWSRRcaXnCwklRyiaORzAJkv93QlcSuXRLEpbwJuleRugtQqoBt+Ec9JBQcW86r1uwGhB//6EdPP+HpOy3fedmyZTvvtGzFip332H2Pc1577q9+9StKqRWrgfmTzizrKay2Gov7HRA+8IEPjI2P7bzTzsuXL1+1ctUuy3dZsXznRQsXPftZz/rFz385OhCyPJBVWJOj8/LNBcoSpUqQqGxmeuqZJz2z1+su32n5Xo95zP4H7L/LLrvuvNNOdbf3hje8IfH0GcqoAyKJku24WC6kGP3xja99w16VEwyUdGp9f0R5uJjiE594VBa4D+BRTbVtIM6R6nLZSGJJge+9157HH/d0VAeLD0x1ttAUFNCeTCm6aN2t9caS6XXKWCXwrqqKCA57/ONLWyVw4gx+3kFyNtddf/1HPvaxifFxPqBR0XQdQMmiuUBlZnbq8suv+M8XX7JgfIEQ6NAl52WlStsU//TlTCok2O/+83frugY7+TXZg6FsTA5BR4u33+8vmFjQGx9znHZAcE6FVqzoPYSmQnFk6fr92exkkbLObPdIVlrjs5Gpqqp77723oGkYY4zNpZdetnTpUkopBHQl024DiZZ9d6y3bOmSc1772hKYuFXrsBFlReBcEKTIuaIp0BVHgYLry+9lty3WImDuGxoNVdKgtO0m2eEGS9A/8oto9FZ1Farq5JNOunvNPeO9brfb6/bGut1xgPT1r930xKOeeNH7LwqhEu6Tc9RtQJToQazyIWN8911r6qq+7PLLl++0dGxsrNfrhYBVp+50OksWL/3Jj+984hOfcNnHLk0pZt+4GE9hVIp+LxTGZyn0EhpiQYruvOsnu+26211r7l68aHEh1yGFuup0x8aW7bzsKzfcuMceq5pcvCoTI9NPxuff9tK0RJYhhvsfuH/BeG+0VUjuQRxQBmT4lFHaPKaRMDZx/wP2Q01GQXvzo6gQcfm5zn6hpclTYnXSM0968MEHq6qjyREizZGSgL0teoT9A8VwOf+F0Pkw7CSPfiLmapIDDjpIFZO9LW8x6jNm8PWvf3P5ihWlM3QlVWyCXHsImzmglDAvrPFXvvoVKaYqt/iWHSj2ggzjxxbS60/FcPeaNTHFoigtRZ2gBjyBqhHnNZKP5ycefZTCDmCxk8Z1+ppBHcoMWmCTmsNXrw5BC2x18ckMSF9ssdFUGo5c9VefGQ4jZfmXr37ta4lSvz8jy4dcS2uy8Dz3A1+/dv0ZZ5zZzbtSYC0ZB0VOpJLdKO5Stjj6/GRno4Q8reQhgtMyVWsrKtclr27TB2gHrbt2OOgueKTQiPKwzsxOn3LKi3fbbbeq162qUvta2nSNwnEiGut1P/7xK9773vc414kdae2HRoZcCKScw4+rr776qcceu3SnnbN6iHS4whIVVlCNDpWJBRM33PiV91900WDQT9Io1RcSsz+bdEdIkEFw6cc+9rSnHb9oyRIA6nQ6WGWPX+RkAoYmxmaYdt111Ve+elNJXJXqmQTayGd7RQdlotSXJtjw0ENLly1T7kxpOErK2eSFogUCUAE0zaDX7VUsvAmugEXQbKOWEJhor8g5cfwaX/mqV4WqGg76GjFKZKZtgqSUDaWLDWnM0irX07KY0tGKyZzEnvBwMASAXZYvz+m/lMCnnJz4ZE42Vghf/vJ/79TdCNGnL0pLwlZoJxTOUOHGTevf9OY3lsa9JXeOVZAfVndXCWeyJclBBDlhesstt1aZfi7bf2TxSRaerFBOZRZ36UlHHdM+nDTdKzxp/oSk3xdFZDz08Y+nFBmUEAlvkt6uyp9JZsJGe+OWf/j7kN+uM9a54YYbSvtrsF8Cz47WJxgdrnV13uvOa5oUi6y2HlEEUBG4p01kxp5boiTXlkiWsUA0YnO4SRKTwkFjDZB3IqkTVWIqbacf3g6Wl8n55tZrVOGOO+546pOfsmTJUjLHltCVsiO3KaFOt3Psscd+7rN/U/QZVQCs0Aqliz8TBRlGJ1q2ZMn4xAJEblRYbolkjTWV+d7vD9745je+513vLvQuKeWR53Klb3wCpHTjV2965SteMTGxQJ8T3LHOj59XXSQY9Pv/8O1/WH3YagAH8ogzEurtyMuwrDNiTOlJxxyzaeOGqenpkGWlpP7DR5Ss5kFsEFMzbC792KWnn3Y6BMsG6S8RteI5t5rc03MbrPTP3/2nk5/1rMWLl4AQZFuLR7hlQTnKNsnUGnU+AsQbseBo9OX+bH/B+Pj/uO9X2SsMInav9e8WmaUUv/71b7zqVa+qQzU6HqoqmAY4eqeIyH1AShs3bFj70Lqli5dWIbSOpfIepBbLAQ/2XcbI7r9/7ZFPeEKv12viUH1L8m1IsgEpxNTsiqSZ6enbvvf9fQ/YL4RWG/b2FBSz2qI3FLMQQr1k8eLFixcNm4isJQSt4mAdI4FdBsPB1OSWqalpAlzz4zufetzTFi5cQFrcbal2CdCJq3emJrfc9oPb991vnyDuIijS7rXnvLKvFDUH1I1om8XYAMoMkPGSGFbvmsBS8XKCKISJULdVmHa0vIzIf4CsrJRuuvHGnXdeUVoxGzcLQ+KKPlCvvBkOv/G1r2VEsCF2e4ljfTYYeUyEk9Y0w9ede+7EggXZ05GAW1FnyfoVuBIQOt3qQx/8UOK+RYQadOoR5ty7EjieftrLFy5cqDWiQYvQeIZzIB5KX8qwYNGiG6+/3lL4xSkO8szbHy/ORtYV3rXmrmHKydUAqGIvCB5H0qoTKITFRI8/9PGRUtA8tAWgKrGMtK2hkhdNJTBL8JSnPu3AAw/IFSskpQPSwxOML09aP6tYElptgmocFWJAyP/j+cvBbKir4084PiVnJlAVCvgqFixU4fY7fphFzbCqau5rxBG20LoBlX1Ytk1/0D/goIOWLVlWdQIFzbGSe+kyJuS/TA7FIqSqqi5873sDYBNN5JGMKaaDJ64aUoWhGQ733ncfxSVRKj75xLJVxfCgtJUsY1PHJu2/3/69zhgGJ2bI2WegFjjCa6FT1cMYJye31lV14kknV8yyDoKnSL2kTCQJ/fmPzjnngH33hziyPymSgS2A3MhWPQOlwxQFXWvfCy04lYKVc2kNKWhjHjKmpCLPxSIGhfFaQJleO15eBrSYbWSafn3ffZ+/+osxDvntUJNGOT2bvevELYZG3+2NjX/841eUnm6if5BbxJGCctaWstMb++KXvsQSS66K13gpWg+Qz/IA1dhY779ecfkoeCw7i3S527rPoxcI8ZOfvHLBxCLOHLuWvBJ85amRCkjAkcG99rrrRQ5EJW8AfkP1M4pgWGpoOIgIoRkMSkLQUik8rp5MAyUwq0M9bIb77ruvZiiF7FF+jDSjF9h/bz9D/hRsRm5eyNo2Z555Zr8/EFl1kkhJ/U+NmDyAnexwlTSYcp7JYh4pvUjpuc99flHiEoIpoVJybDFjSulnP713LOdMI0ObvP0TJuv6k6wcJJczhic/+cmjKYu5g4JbmvanCHuBY0aqzlZK9KfvuOBL/+2/5TRzJC0cLAOfQEq01JFkFrsB4gItC0aCgmHo7+aO0YiVgfijNz7iiMNn+rPMB9ZYKKkTWswUKljU7XWR8J6777nl1ls3b314fGw8n6BJ/DBJvJRim9I4FdPk1ORLTj01QswAH2EBOGRwiBtHgQKf/J18jmqOz6w82J72WZ0SjPOpJCKkpEaCZ4yMF75dBOtRkZch6VOGKcb3ve/9D218SCjLScMJQ+M9zZ8oxfie91748KaHyW1YyY8gvwKPJn3sox9buHAR03Ohxf0Xt9OSLZRlirvd7j1331NXNbUDJDUIrN4NaThoXv/611UVg1WMHQXWjyA96czQjfbTr379a1bbkKhfSlm342GRPmdKd955Zy8rtEAIggNKAZgaYhuxVLyVlGhiwUQGWpKMIh/6lhVHB6Lo8CgNgRv9hSbG17/+Dc1wWHe7jNYGXZ4k2xAd45vdeaVe8EDqiCpNQpZxRjNnX/CiFxbPB90Gl4mTcoJMYvv6N75edDJRjoeijK5lssj5Hebll5rCRYsXj35r5KNV0PKf3cgT+bWis5FSeu6zn3PFFR/PLfwSGwoEpc5LfImSv9XcD+6yYnnuWqHLzpl4qQGgcjajknxkp6cIgPvst+8jD2+qAys0oC0S7jKohkgq7ilg+Idv3/KZT//V0iVLyn2DtDtAR2eEIo4bqtjQic848Zijj6kyP1Gqy8xutj108c+B0CDZdn8CW0gCOLmD1htCoBZeqaBi/lIu3MqD0qQU5Wqa+CgI+CEXweTI+G+//Le9Xo/4+DQEwFUbqEPOEX+K8V3veY80mZDEm9lfkesheutbzteWV6hEKwVQ0UGOxBYkpvTNb30zY2Rm0L3zUnI0RNAd6/R6HQGuypQkKcrT4gx+QK0Rzgl49Ixtv3S3vcqTJcTbbvs+znG2SfNYbCBRzWS+aW9sbP/9948xIlYpacrLOeYK+QrrXhwTF9Yi907p1J1ut3POOX/0yKaNXPARvWgOUGukZIwJXDZEi5HEgFXKByjpF1y4YOFYrwfabcL5OX45pDgKVWemp7PGcSHgutXg2ehFD0py7SnFH/3oDl4l2Yth/QcJ4YqhEqVOkGpyLB7nBRe88/Y7bh+bGIciKxEkiYNaoGLzSpYUHv3fkUcemY839chQKUvM9ODyZ2z5uvn2mfWP++y972AwlDWrwIVMH8o4IosaNbFZtGDBD3/wg+uvv77T7bIQq/LHSd3Ccg6n4XC4aeNDf37xn4P2v9SkECdGyIXLLVc9a1Xy/OhBaF6RUOfI9Ov0a7aM0YqofXZI0T51Rcw47HCJZCV1E2GnW6dGPUzvWSnzQoOwsiSxNI360uc+m4snVGt0OwUwsfTeSawDpeUq/ATM9UAny8Jj9dD69dSkYk8toBaMoRAIcuoEl++0HNhjlDor3b1ZKVyaphjFgtnY2KYwwf+E2TC6RRXwwXXrspskmg+ASskLZlzKMcY579jEww8/opwN2mk1yAYUHSZQDENT5WIDUScCCxkR4eWnnz4z289y+2TGjPcllUy02GzhY6kyqZ4WYsKCFHFzIjyEvffZBwPyYR1KsKqCSvx0hUjbNFHo1RK56YEsTiRq0h7YDtV159ZbbslRWhIXEb1p1LRPiVgymDDyLnO37cuvuuqqKtS2CUXXp6hkozmoaIs9P0+C9Ji99sqiNWxZi1OuveTEXObfjqLSLSd4QkoUDzzwgKquKgOtCm+//F5xzwL6fYTYm5i4+eZvjY31YkqmBc2aYuDKj0f2d2Zm5pKLL9l/vwMKE10UxxyRjQPvALoCg3hAHpAqQZ+dx0Z5QfQgHxG6habZZf3BACqR4NpRSK2FU3LbYZeToi2dbzN4FMl8dnT+OTv/qjXJRwriIBaSPGtOC4qlHGwpc1NjLV14kzgYmesrTCjx5/gmAZtmqBEg8B342OCuiDlMyxliaXYAnmyuzbRAThclk+f+I8YxID2Zk1hYvbiXVH7uhzdu6vXGqxzMSIstftekQEQx4SLm9vCmDXvuuUfx9bkDzBx5DLDuVOLEJhcPERcgS5CIhEccecQRRz5hcmoysBi77wSN6IJ0KehNWv7LWVk0bzfxKcDvkVLaZ5+9gTTF3qYKkqb5i0bdkFd/ShblO98EFSK0MlvqdXtV1bnyU58Y+TJJR5HcOS5UBG42F7MGfzz99NPf+afv7HTq3LFCnHkB1ohKOlAnReu7efqaYbN40SKp9kZHygeJWIWSgcKXt1OjKJzgwQcdXFd1fzgQj5MxQAkr+HMLclc+P1KaWLCw1LyRuq3ac6scgfygdMThR7z5Lednkge1KeaCJKFBCCQpPFBmu0VGHCt7V1HdEuEDkUVPzjnXJqpipPgQ4GLePC8I5vnt6FpCJaBltY9IKcbAfdAEfAR1dRVeQCsMzd97xgknxSwyK4UmwSgHXPpDpfRXCLl6xGNBRomL/bUXHAiPgZYsXlJ1a+2rBBox8AIa/VJVBQR6+JGHqVWrbqxh5QDz+cRFwoQhpKbhJ7OVAGyxiDXtyn/B/Ae65TvfGblmZfsj2pqQk1h9g4JUVgEnJydXrVxVfP+QmwCjDi2501UxQNBEkUZz5nAopv2973+/1+2GqlZ3iYtW7GVy1Y6oAlMwsWD+LvGJqm5IKWJrmuaA/fYPVRUcyohu5nWNB4RutzccDtFXxNvbKHFCTJZ8tYnN8uUrzj//rbf+4y3ZtY8i6eX8o7z/Ym6oE6pw01dvOujAg771rW8tXLQolEL3Cs2f5WyGJIDI+amoS5maplm5clWp1vCxs6QMmfPaYr3aVZ4v9MZ6u+y6S5MrvbhCQNv25GLzUMJ8x3Op5nQeURKnvGkgqXNAPOEZJ4ycWtTOYFb3xqOuU6iOVGpxydwn2MObQoZOhdMNNwqieLqWSCUDEhynSzBw2vEeVijzGgoAUMUUV+yyW2Ebo2VkUAJ/ZtUI35mNQIzpLz/wF5wW5ZBdRJ5AJI/D6BMOPPAADOh9dABDUjLOj4nZEWJgMKw+/PAgnGGtLJZY26DgYcKpqSll+OqesGYy8huFVZbd9dDEJlISARLutgMoKshQVIzthCpp5G7dufdn9+ZwspojOghFB5SKjbAi36JhesQRR1LKnXWpMbo+qO5AEUdHWcHMVWBXv8yDcA7Eb8IK6Kyzz4pxyKX5FtGhEpqDtF82ay4BHUlRszhaQr5JMBwOx8d7WYc+axVC5QbXan3yS2M9io5Gl0UZQi0kSwoX2gVK2DmyNxEGy5YtO+nEE7958zdDPfr14SD/X+bKZMGxYYDQ7XbXr1u/7777v+iFLxoOh1XdodgUmmtwHKYcDjK5A7lI34oNJPZLiLjffvtFSlyTgD6M4KR2KBwbcVlQ3Cbl+8cmvuKVr6w0GYEinSA4nEYKqMPPgBa2uHYWUUksRjgzO71ixc6dbodJYkHKKDDY3sHWM3NAyz9m5x8qpMMzEwRWQ7BcYUC0Ug17OHXT9fwIYLQfp6NPEovuwMs1CkijCADorD981dTkFBWKbmCP0AmmsIIPOAr7wQcffOAhB4VROJbcyZ0xJ2UZ53LZH9z+w0G/L64sCKChQbwo9SX1fEe/e9QTn5goBvS6zaCurC7GgGnx4sVBJQs0+gPppQPcw0VOndGzTW7dWpVTjfuiFKts1bcAandZEyc2qYnDLFTLpeAubcoWHZkdxTlFDKWpOhx8yMHA2zwkK7BGde2LQq+kQUijEKEAERemEknroTRo4tOf/vSZmdmm6BSTcxQ1OiZVuEZNehV/jNsLg8t/Z882xiYg7nfAgU0T5avyXAK2Sqw48gKGTbNqt90y2FKBZPpz/tb88WQfQaQCqQlTTDvttPPLTn3p6sNWf+QjH1mzZk2WauhUddXpdH7+i1989KMffc1rXrP//vtv3Lhh191WNSnmxGQBH0ubNjs1VGibWnCLPXVVdVKKe+21F8QEyi02Lr7rgp2s/wJJE+VRrBnYg33VK14xGA7F31cjnkheGp3bLLGeSX+TI+75REa3W/c6vbP+8KyUo0idbPbPzOEt46z9oiQn4bxY9sKSqzwXBF8Wt+xXv1VamwvAXDJhA2vCPVkJIjwaTHcA7a8IiA+uffA5z37Og2sfKF0CLQUqhfGgNZH5DWJsvvilLx133HGa90V7Px6ewOtl9PenPPkP/v1//MqIVM4f118kBaKI+sP+5z//hWeeeNLoeUrXf+eZWUPVfJt7f/HzJz/pyb1uV/ceiiSIumZKySkm4vAjjrjpKzeq8ZR1VdZeajWzls4Qg37/F//+y6c++SmdXAIJbbdccggm4RkoRKDBoL940eJf/vIXufAbkVtRtXvVeIBIEqkWNrbDkjJvWQBz9JcjDj9i04bNQ+qDMIBldPQGkgILqG1KSXN3FvAzEhEpDfqDO+7411WrdqtygV7IUqJzgiN99UTxjW984/XXXkdcABOcWyOWE3R/ohehLU84clcJZvvTRNgMB4moGTZ1rjAFgt5YD4vSXirHgjCw0VAx9tRJm2nzAKYsKSSS0VTV9YYNG7Zu2VJ36m2mT5eJAbCswQrWv5urJ9PomXfaacnY+ERBq/gg4G2CBqtZBA3k6iFAK1CtPzyEgJs2bfrQhz/8+vPO044FoMVJyowEJZ7zDQuvk2w7zdmSbt3Yi2q3EARB8gQ8MCCL7ZB5hnMWKwi/7Tcpi/8fulCS7tJzEVeu3O2UU140NjEhoQhIukUkdbEQ3VhqatDvH3/8cZrhC+Ayi+UjjPs0+u9r/uiPOp1OG2bSXKV6o8ZGOeTgg08++WSQfHVbsAnN4UWAKuyzz965S0MnueyyxFIios+migIGiulJxxzDUZ8EQxxowRxqXGktO5roTrf3w9tvZ2HaJOoGck5K7R6iI84WKbUXvuj5KWcYQcNncNQ9c/QDp3mKSylZZrZq6ovzuZydYUqnvuxlD21cW9JeGdgJWhGoDn7hKBaSqKSVuALDVWOX45aqqiq9pADqwB1MycfaCpsU17cK1R6rdu/P9GHkYQmLgJ9b8CiPp5uDUDZJIIqJUqfbGxsbW7h4ybJly3bZdbelS5b2emPdsS5iRa3NrgwMMyJsoG0kWalPzHLJVlKn7qQmhqoahQWlwtTzuXP6QqAFRBUsRRXJK4YxFd9t9WGHYzDUgBSA4wBYWJiWJMV2to7LulC05/qz/aZJr33tORJpBPXwfFNUdaMQKlm2alS1lA5dBzaZXTBkgOE6h2hwWYItSQIL5k0eQYw/6NuVPx8NAT+ljxV8+d3vefefvOPtgdsYSWs6ZLSPUipC2SnFs89+9fqHHgKJKTKH3FXY6tklCSoMePZrzr7kP18yMzvdHw4UPLQUjHiqIYTHPOYx55537rXXXMs5x0g+SCNyrkP5V4Ia6/vuv/9P/uTt/dlZZi9azjVwdWoOmpoYIzVXf+Hqd7/nPeQoLEL1ZrOJaO9RBLQppaoKv/j5z8mXnzqeO1Ihfwkmlg1HFhod/OUHPigV4CQbTT07UpHDYlMTWkFsvgLbiCinXlm3DO+HCy54x1FHHzM9M00kvXLMx1XhS3Tcfw17QPOykrQf2eHxsbFdV+ySRu9bqN4oYbRQh4m0ZJ6yrsPb3/72ftMXnxRdvQBbWynaAmvblRVOsMyfWMJMQkrDYRw2g5jxplC00cnlCfjgwRBwauvWnXfeKTVRx9VU5pIvOijpjtGvHHnkkaPF3kRQoWgwd4SdNnIE5cB+Sd4CJMK6SBif+cyT+rOz7OJYrC1/JNPCJZeMUE/GwSslHKn23GvP2dnpKuOGUM5alp9k3gYYREMCdZTF5zIe8gvthCvo3jReQpKsJJDFx7IxNZ4GrjH3xkNxMssG7HhNdwBoSROMXua155x7y7e/vWXzI/1Bv/CPwZ4VO93O1s1bLvmLv7jo/RdXdUePS+V8OJKneMS6ICiccdrp/37vvz/3Oc9tmmH2UzhwkhTH6C+9Xu8vP/iBC9/93p1XrJAEJflHdc6PisAyi+R1r3v9vff+vJejmNyREnXbpty9JMbh0449bu0Da094+gnK1WO/RXI8bA9kCaJIxpQo8d9/+e9jvR5zwEhr8iyoFZ3vcuJSVVcT4wvqTgf04W3otYRDolvHWHIypHNce8a6ZBxGNvHv//7vu51uqAMZaZ6ERI1B/QUEa9Ht4FXLGeWfSgkOP+LILIYUAE2JAI0/Zjs8A0qhqqo/fPVZm7dsSYCoQaAMrZDu+LXRmT5w1tKDzyQYZAl/SXMCBXbMRnzzI5v/5B3vOO+88wbDYTD6sZgI105d8AwcDAaHPO6QnNoRiauEwsS0rYB+ssgifjYheaSaYTzo4IOLZkPQokMtXQU9mXihkR5TZHuv3DMT5mnr1q0Xvu/CzGsX/9xjH6ioE9rg6yohIznIcErM08qAO0l0kIMDHYwD+oyoIQ+pbSW3U6CF6ux4xVEhKwTlNwq8tO/e+0xNTT/wwNqH1q9vmmGv201EWx55eMND65/5zGdOzky96hWvlAZwXAsjIR2koEuKzyrmQpSa54BLly35zGc+88DatQ9v2Lh+/UNbtm6BSE1sNm9+ZMOGDa985at+8fNfHPuUYxMXCQvsgSJVwmcZOle7LHDEUBGGZUuX/fJXv/zwf/nopk2b1q1bOzm5ddAfbN68+aGH1j+yecu111zz5S//bZEJF+URFHp0MPcYjajK6yInEROln/7036qqDiXfolXMzltHQUA1X3zQQQeFUu0E3JqvDIjQkYWHENAvAT0m9A9UQwFyUGenP8bY6XbOPvvsYX+AoQZhtgnlgn0GIpfXCSa4KMGE8nPD1NTUIY87WOmCZtx0Cbv6cJSD4ayzXj3ozxI1DvykQmMnO4+Ai2jREbvUbuqilI8KEoU5hHp0wCVqtk5NvfxlL33nu965ZfOWUFVNbg3p2EaoPZKUmoYBt05Or9pjj1FA6DrRCtlFAyhjHekqkPOsyGmNvPbYxGOf+tTRYIQ6r8rg2DHoitFlJwfzqIEniOPDRKmq6m63fu5znovSKJFscJRRzdwDycPneTTeBc+wuU+K0qBmasnRlvh3UE8XpND6XNkLc043CM60GXq7Y9t8lfyCHB5Oh6QoC8Q41h3b9PDDH/7Qh8qTVlV9yimnHHLIITFzl/guI7uSRz+hVZEJ3KAnSTIaLWfB6qraOjX5/e997+abby4JnVWrVj39Gc/Ye6+9EgcCUEKborcvbVozKpzMV5W4hnmRoayQCC9/+Utf+tIXX3fdtXfdtYYSdXudo44++hknnDiKfGMq4vEoAaWYAEO3BYFkOaEgSHqgsOauuxYsWlg0dOQgTCzfyMwwvnExEinGQw99HFZEUX1n1KCQi1bJQqlUoifHaBI3zBYQKI7EEGlITfOsZz3r41dckaMJ0TBijCkkdAAtW1X+bF2fJgSD+MgjD/e63VD60oErGwTVImFmvXTLHX31yCOf+La3ve2yyy5buHAhmTYMB6S6QEC77KOlG+Wb+imlPS9KD+KW8gUR1VV9xOrVH7n0YwFDf9CvspQbkTrkfH9pWcwJ7xCq6aktC8bGudyd0fR8mJC0XpTSLfK7Wv6QpgYhUQx1tXzFiuFwMLFgIkZJYyRZQXwQGqhOpYWgGhAOG/PnRBpQ/81venN+iwjaB1a9aNRtK4uo3Ia7MVm3aDWtIDMlsywTJfApob0RTwo5yoVBrMhCWyWvK16jMhAVl9/BBgtEE0kRDoF+ymxFSgsWTLzzXe8qzM5QXOhWl8E8d4ksfSE1mLyUswy/VGRxaljTUiF3sjzmmGMKklZQsyJ1kVwU5Am6c/7tEF2HxvACTyGEU1704he96BTQOZVCGpYN4GIWIkexZp8LtWxFhLzzQ05OTWaCbU72J6nXEGEiIdhp0pgipWbQrFy1Mmt4RLDe/aBrSnql8hoviGBQe6/Yg5KExIobvTn/7rFPe9p+B+x//wMPpqYxp0yKlcBCB3Q5J37UAEqKoLrCpmkOOuhAn3JC3YLlFxOzs/WDiq2++JKLN2zceO0113TqrqKD0qmx0LLIMqPyXXVPXdIGrRoriZdH+XzE0jZ17M/+7M/Gx8YB4Pbbb++O9WLTWA6ELF/oSOBQBB6OPuaY3Dc/ONKYunGqpK5LXVgTaMswH/ZZQjrREUccft/9D/RnZgmsUJoUMPB9uCw8kyOqCL0kqLsdGMLb3/GOQjOOyTmgpGW92ngWmFnBbe0lpanHnh1pAOAITKbPpxbADkNmQJZlH7hDgK1uKwRupVQZ7EXODe/ACzUKMtcUpAJPJrP0BqmqKtRcnSf8ypLJ0zEsbxx0kxNXNoWkOKPCMtKhBwvPrxr9r6pyLrDSnG2wgS0qViWwJiOBkI/a5aXyccnTkFLOAAXkLEygOVsQ9cxWFirpolAWHXfiyRP/9W98HVHVFir1yJSgWA6A0p0zYBVgtPlX7rpyOBjmf4nbjXpqjsY1+YiHl47yDrmml0nbaB8HHqMJNWYDvWn9g0XW0gQYlBUkPSjktZPx68g9T7a9hx16GBgsgSWwYSy93DYIoZd/J5SI5xOf/MTmzZs7nbqAZ1ZsxOIZpg2PYCRYKYNQbogzNKWOJYPLdVXPTE0/7WnHPvjg2hNOOCGH9vDD225LKVoLFLKMs4A9vEhiEyHAEUccDsTtOoxojm7EEYyxgqVNBGrOu5RXAmCVc5dPO/6E2X60yiDBqVQDR50B61RUNJX0hnV4eNPG17z2nE6ng8g9fBQZ9kGuwowimY9GUzd+MeibyC+pqLDz1NgxAmhBA7IEyHLT/N8y522UotWkCXHHZwnRUX0INdaXOj8Q/VDLnyURu9JjAwlNvRhBEQP1a5IrKCgzlhQK193A9WpJuW98uonNT1xiElSX19ilDDKQwZQMJwX2+UusD9QO6GWWMJGdo4isGgVcSltyKKm43uEb3/xGbtJX2rNGhAjsSeu8MsEPAWJsyoo75NDH9QezKjnCvB4Ow60Ov9hPC2KkLiw5V4skGOQ+qwp/UkxNc+aZZ2Qx1dlyzwBJewEVc1wJJk+smkxmoeWGTTMAoD332tM1A6fSlYdURIIXh6acsFAiKY2ClG9841vr1q2LMVNrmW9ZxknAcxVNU6Wu7MULN1GscZ6uGFNMsep0BoPZRzY/fNbZZ//3a64psTYCbN78yOTMTEkVS6EIlU9VxS6QisThYBAAFy9exEpEoNV/yMxipuuaREUuGBJLbdV/ZRBGsdtOy5ZsemgthZRipDgsCzO43rYFO5RU32iFFOJEoFjy8LFpZmZnzzjttNERC1g6iZFxoMnyrXoqJnGxWOKSyMv2ogEIsiGCRN+6/7nxmpYPEjjiiVJdOap2VYUt9rAuv7TDPSxwVrg8ZKHoEjk6B5jzBOZOkLYlFiRGYBG+AgvKoeQA1UklHQ3nP1nE4s54wZU094sOr3TngjhGkpAy1jBq914Sf1bnX16GPOPYBU8exRTDXAW8+nNX11UoSbEqhJFfw37i6L9ZVnz0TVY0yjUrKaXcs6AC5RDzaCX3UcbukH/KK2n1g7iVZHqRmLQaPR/5e+zxmGuuvW44bKqQqwAxP0t5pNET5cB+5PiFusqSS1lKP79NGDkMYeTqxhj33XffsfEJdLr8yEp/dn5rPE6tUH30ZMcf/7Stk5PPec6zpqanO3VHazySW0MazWv3b02GFcMZifOPw6bp9/tLFi14y/lvW3PXmg9+6EM1w/yYEr3/fe/v1B0lx5bi8szKyXfMLf5GR0weBEJ6+tOfAaj1PAZSyUO0iUtoUIMOs5LJc4V8PP644wmgU4qTsM6jWwa+4ofJ+Fo9+mehCyHknrC8eKowuXXyxhtuPPCgg3KEQdpwSRpFoZPU5qFPzP9VFpTsBFUr5H0KcpgrvxSdBdg2/y5vWPjzAupLVMzxsmxm563Rjgfd62rH3v//jmubQ4FKUWwp9yclVY5OwpnZ2X6/PxgMSCr8KLAsiG42Fr5FzIo6sdPp9mdnF0wsaNLI20rFg85pLpHAJyn+cAJ6xQprwkbdQlGI4k0USOFdLpMDev7znrd8+Yq19z8QSXsal96aUXsO2a+JmU9cDF58a3rhC140GoaicgkolaVBcSzbCEZZLNyikERK968/89cB68/89aeXL9+52xuPwyFwmxmxBEFYk0qx5/Mk1BX2Ot3pmem1a9cBwF/8xQfe9sdvC7nSsIxIKQms6/qyyy9LRLOzdZM7FFalo1XkIqs8JIEyephtBL7k1FPRaMdtDv4cpL08kUnYS8sCDe2wqhAff9hhVVVt3LgpseCFIty6oti0BOHkBwyF9pjjv+qoY44+6dknF7OUc45S64HWBQeD6gaAO1ORHfyyhIpm9xzeAsMxieFY04bcxmNhjKAkPIsoBXsXysrVTvB8sKOS7EdPPG9Qfg9XoVqiC9+1lnt2duZ9F763ZC6lF1PxBQO1qsEMKK2qqtvtZHW8SptaK8IgLgYoYoq6CsHA2RL/ca8JVfAUVDchh7iJM57p0ssu/cFtP7CyGzT19mzALAbIXYY1lpabAj375OeEKrBjabkU6b0sNR3b1miwCA9B3aljbK666pOnn/byv7n6b/72b788Nt7rdjqVNsURCLI471U2ZMNBfzhoEsTJyWbVritf/OIXn3TSyc9/wXMRQxoZ4MjwnJQuUUrvvOAC7SVjFG0bXUSfUwM6+ZnPDFp6LiIynFdL7N5ZTRYAeC+YUSW93+hz67q+6KKLJicnZRS0/ImXA5lcAIFiGZL9QcDjjjuuxiqbGzGyEqYqQluYyyBiM4KVa7IWQJBvSW0ZMCU5PuCKMwXVJM2sBET+WOTEuIAPEiGqZ+XprvmfiWFbx2Sbvx6dK+WiZkDyhBaQSYsx1VUgl8JpOeIgPy8wguauVV1NnGvwKzqhIf3J5XDmEEaV2+fSaQJCBAAT5ivBVG5mFDidoKpNSuZCcSx4uZI2pnWbXJ6KLHwAcNtOm31JU0dBUvJdYnbYAsIjm7d8+b/97T3/9tPrr7/hvl//KkfUJUam0u15+S67PO6QQw499NCdl+90+OojjjvuuKrujF4hRqwrbndTWoEBQOtRrAmRnvyWs3CmpyWtwVnfJFPLfoWVIcg0SXUdmEguBvEIrRmWYd8toEgeiHEg16hX6jUo1w+SI4Fg+/wD69yj+U+Zeb9KfGsrSfh6jL18dLA2IjIyauXlDlLnqmPRKrRs/UXy41pLMW+wHu1rZK4ieIZEweSSQHRS2gxB2Vb+FDaGkdzRw2VuuSIoGUNPSbWMfHGiSJgnhrnzd0n4IhYEMNLgSAwONOQnccW821wC+ec3Vj4Y+uex/cJj0YL9wEUrIIFXSsTbHKu6Ck2M/f5sSjQ21stJjFCEx3LwGrLmctlbmJTvQ54pxjMxJ+k193KvTRbXFJ9Um9J5D0oYf0znk95ZDBC4yZFAW8YnCG9PKWs87sYOYCNg9Dec84hzjiICL2dtze1awyuLqcVrEyC4LB7OZHnOUnttkpH89Ge0DCGPUgKr5kaPAKtxLiP76JTmzF+tS5r2ktbGoKZ+S3IbGbdKIuLgOO2AWhen6d7Cqy3fd/cpAIZuaoBWGVy5KUMGLXMhvw4qmOzObaAkyS+ydSv3BqstdzUrrRVcpJeYmMJYjFAICVU6Sp8Xi7SwFOZKtYAlnIujU0DwKlQIqWma2DRVqLt1BxI2w6YZNoWxV14pg00s9KnkXnCEAclCuFQYglI9AmowW74tY8Uv6LlHNvo602oWicXE2FMTFmgpR0Zl2uTjTKJF0kBTm7wBgonMCz9A8UqymNEqTeR24Bmg6vuCub6aECplzqjJZTCZSwQlsxgtAkilJ7VmSxcwgStUBTAGloi2BDdkoKVk8x7W7+WilCJZObuenOShVPXwOYYS+WaBRsESPds5+EsO3SoOdY3BXK+AD+xQkCryXj9atgrIhUVt9F5+JRcag2Z7jOAMrVCWbwRzPRPzH401bW/nMkytd1APkr8erPhah4W5pAK/ONeJfOUOI8D6vuYpOKjGQi5+G45XklQSJR8DQ9spNnomtDwV+0B2elrjwaZ7FKsmnkYL/YV6qmOJHuZ3DpJbJK0FY/G4c875abaLMCB5/06e3u7sRZlaLjE44M4KO93ssxe5Ha9cvUeY97B+H1dJWBsObRiIpEfERSHHYdGthkYtsoOvPc0mIgHay170GvT/SYtneIU6n0GUElUwCx0fyxkhcqu9qIwrfc4prpfC31bSXhari8K45ZWsaVLatRAs3N7A5ENHQYTa9QtiYoT2xHSVlmyA0eCk8ES9T7VJYl6QPxbQB2RCACHtUWCPpPsycNY1qSC1iaGbaVOpHxSOKQ8RpxrEcvn0BX+WWXHS8FxYBto6QSfG2zNXkW3sdU7C8E3bRkLosvqzZJ6doGD6PfVUtXRJoDrRXOIoVurtDEO1I42svcejpNYwf7UuTkCryQEBWKVoUacKmTrupTZ4MwQUxh5qng3c2ZekqJjJ46Cc6KDbX7KGAZgxDkaPCyjbJ3Ac5Gyp6yOoj8oAKlcABUZhMLkItDClbXegUd8tOpBoEtVOoY1JqVbmDZNUVmpOlEAWAUMmAgcKpd1MYBMfpIqiDE8Qh01eKajvwAmvthqEGXX1+JR0hUavVMlokRWVKi2hPNj+s8oXk0PIj8csFRS7wrphWoohI4RmIUNJGaubywry4IqkFRWS/IUS51WWS5ozkZIKy0LNT8d3QSV0SwW7w9dZ3BpE9VglnLkbY0LcFj/gEzBwhkctrBxe8yHh7+FKQh3mMF9QU15umS5oFqLl0wtjv8xwcoALSQxnZWpkcCoy1Yl85QQ5R0IxF0QySIXcKVmEthN5Y0oSJWhaC1sBBEcWnFOcA2XZwyjn0OAw4zaCkR5cbOg4S+pakMG27SCEdHOqaXNoejumxlYxrwaCzgkFCyZJZqH1HCXVGJwDBi5rIgEk+lrr5BwfTg4Kz9TeW62MDoO5km41CIOAHHtPRflkRblSSCNxi6GVEWjlaR26RwpZBKvwgm1Hk/xzMi3fokK9lbA+iswquLWveIO+2byH9fu5rD+u+MiaSy/mSzsRaBmQ8asYlEmuFXNZB0rzRpHMAgO+W0wFsAUh/wJQuMhiEf5y/lsAbWGtARrvM6N1ka/QBNHlS4waa1YJnT8D0jtBqxq0osE9FkAryOJgzgd/oM1rNAjhhxOLP6fOU4IW0YPgO7WcKHl9K6tCB1zb04gjBj4gBmnThODgPDHrZIMIypbUjtBC/GdbpVV9ZIbHJozJxIAty4a2z4tTbxPMI5pc6R9boQCKDeq4oyuws0VbADQuUfJwgXMX1QRz5VwAC/EIzJ22luzWlMU/gZa8zBus38PFJdZWFAumuaU/QkZtJ4lt5EwvEVNloAfLDFpXU0K3zwXE1pBL6y248w255Bx4fWh7YiGwoiBm+ryCtKmwjDtjJcuOc/YXQ9TkqTgldxpUU1fYV4BtgE4+PICNn2xWYRAhBrNEZccFZ83k2VDYXDmItSJsRLV+5aNc0ARmPgDbD6d1hoClm1aJptGBaRbce+9W43Dzf9TRU102puMFKXLWwSwaJ8Eydqq8jMKBt+lin82wODTuMrhFEEiOFtRInH1F0miXTT+27FS+azB/kLGF0iJIwHPwmRlAW8OuHJIXv4QdYODH/PXoXsRELNwGIQapLElk9Qq8zkEWdMFDAzoES1x2TbKglEe7sMfy4QRK7pobGSrdxhS19AYSRkq2S6S2nOaIJBzB80UN83ExmTky2P4ZpYUzgKIwyZxHabkAKqyH2IpMwfuR9u/W/fwYJCPs263AgdjgCEtSrqJMK3PIWp6slEDJ10dPG0AL1QsBl3REwaUnXZy2zQiUwXdDikYkkOSGy4kG89UArXEnzM3KiX2VhhHt+dKVJEid2lINbIW7B8r4bY26zZ0u11bakBeBoQAyHQC0w1vVz1/bv3jGyXUu1jyYCl0LYgtmJJBxKU0Y+pgFLckCIFJpVtTV0uhzQuDaW4G/YTkwBPMNLLJUWNiJWYAEnVI+rugstBni4BQ3+bfYGJDb3KQhg3M5NWjRcYGWlSN9TbQxEYxEzSJou26dCQelZeFG1e3Vn0ngHlkkOeXMB7WUgK2xctEWN3fTRyRTLJPyb9NnRocW6QIgX+iA7u7uXZKwX4EsxQpoVVy8AND1wUNoJQ9URMLJ2JAFZa4+vrQjcT4Z2eSjAIYCeHA0O+ekIRlDexpSX91HoLzwaD4k/P1cAvwExG2OMDSjQYTmfaP58LIf2fkvOiDkwjw5vNlClBpXqZ8JJlUt+4yjMiGLKi4NLfhIIkVdyRwK2FaQ7YWSq2KbIz/HoKlrJ8vhB2MXRVMZpZAMjbth6ifCV0Nf1SdelreyjuLo5QZKlDJ383sCBojhsAd0nw0ARn4gKcoDBzyjT+tL2AhikowKCmbPiaRJKf+cyGFxUR0PN7EIojq+6P2esmxY8SSQ9uMhUaBzLBl07STAx+t68JjJZKgKZa404UP6Shpvgkv9ak9q5itoVY7zefPvJXDJYpDcqKnFq0ELMB8S/l4uSim6LpJiWLi7KjrkwR3/dt6i8Ib4yy52sN3Kq0xxoDmETAsJOS4IejiHUnafEEIyImL2pAp7lW0c3zeQI+XMfVrZtFJQ2yawbnOpKpydweolJG+czD3LXUd5IxBayW2rN55XkeOYTxOHrbAZ0Hc/QH0jtVOtdB5skxWFudEgtqt7nFUj7hEqiszQjt8FgQZqDawLxMGFwsg8DE4eoEw9O6nkZsjNgGSDyV6E9MWZgwutrKtL323nfSWn1y4mdYqJQlkD55j7feHUQ0Bkn/1HzXtYv5+LAFRgz6AWIg+/ojE7nboaqcdjW8BaqIDm6rTwgzclKZlQjlEPtKDuCT56rX6ElQVAE5ZSS6TrNmubSoDjKlk0WEKXl57j5wP4ZCSHvGCkf/35OftCw0MSuM1uqRklsykl2GAlywR8oqMT3yu/Tt6LkiOfv8/qeAgWLQrpTTuleEOm32YXScZd2uqjQkVoyVeeQvOfnN8mZ5vaC3Yjxf1mLT/pvma0sMSJEgB0LQXQUQXA3Cx/JjgMHQx/Zz1YzVB4s4OtZ5VUKZvaJB4lIXnswkXazqCXIFpjVVv58x7W/DV/zV//Ya8UmyRKaAloXg9r/pq/5q//uJd1pMnCGvMh4fw1f81f/4EvS66OosZ5D2uHXMoAtgt9xYMF/gJ6uMA8642gA9MdqO40GQE9su0/Sb+OYKp46Hg3IjDUVnFzv2y5ZPfEDowOxHksecI5NBvQDyK7J8LcBmRzPtgQFcAW0jXnNbWHmPwQFwmpIINWEaGm160rHM0Z6tSqEvEoVKsqKn9gQG49AXNVwIKwCtzT223RdaoG2OYxYA6+t+3r+59UwgXNoTYQ+BtbWZBVJxpGBJaIoTkvrg8552F1GiWDO3fdoY2Vh6haP1ewuvSb1i5ss1wtI8C92OYxrPlr/voPczUxZtuHOUVLYjDZOCZgrTuzpUywx9bZ0Ep7qM1WHVDH1jN1bM0ztGoVQHMIDOMnESdsfR9LOb5kKVEYgNiqk+TcBFmqGSSdqElxdG0bwdotSd/s+ZBw/pq//iNdRUWPSrcylhkTnQbtPkhakwjSPKz8shC7LPmZQAgrCclRyssfQUVd0AgUgC4xbXXTakmFAAAoVElEQVRPCYTSrNwT6V1oiVv+Tmql90jz18StqbVAFjT3KX4Vaq/vRI7kzvyI+ZDwt75yuBcdI6TMeYCi3o1MPMLfRDaav+av/9XlAjNqqxVYzakP5DT+IvSlNqFVXIXkKCl8b+uSXZw5JTHk8nlEcm6aMONU2xRbPhGgU1DzBYPGXEO01/GUafXAEgiFhlReWrk6sOM7P///8irzQa7JaEqj/xEVsfZU2lj9vh9z/vq/9nJgloBIAKbFikoHEz4rOdqYJ3yZrjJuS9QsfS4VN8zEcq3eBqneKndQEi5qBaQIL6AwAZXcFbiRNoDGrm1YDMhEtiTiK9oxZuUCtz6TMh3kuo55g/VbXxhLB3KRA2F1DdKuMdDu8jB/zV//+xeiFv6IcfJAOYj2a7LNz1RfNgpJ6Ok5UkSOw3KLcnS2kLEjpZhmQVbumU1oxUlJqceyykGDPe3NlQsA3Or31lbiTGI2KPOBGYPzojjofycJxZXLVaXUct5g/daX6o5YcSkPdSBwNOj5a/767S9yoszghahaPwGAJvMMKpVGVoqQfZIgKUowdVkF7Fu3y5cqVGeTqUWSIGR1LXEFk/onrXgSU6Rl7rZFoFWuiO6JBKhDH7G68gT9cCbup3mD9VtficEqFRS2TH0RwfUlDvPX/PVbXbwviUjVOFWxvgg8u7w/SNMjFo0W9WuzBE4viG8vQouisyAsCa5Ab6kngBN0b5FKkAuqtfu/CASS1iGRKci6wikB9MnqqFmHBEl038A1kJvz2fMe1u90aYKYUyBioYgLpWg+JJy/ftdL660tNSY1oCNbkxK7U4kdHHJu0CjkSmyrFC1HcOK2ZIQzsg4CEqXlTwu2tAFM1RUVN4cW/mGeFSXRdCenlsQ/ZOiV2iMOXotag0iqSWJTf4usoTXMFz//bldJoeS/auAOXtlqe4S4+Wv++t+4TD7CKx+4jjLcrVAFmNn7Eq+JgnJWAVyS0GtQye0BnDaFyeUBirR1uS9pLrDlaNmNQYQPUf4OnJPy8aLov0pLbCVDMIamtdZtNaAAphkN85ruv8OVu0YUsl7xiIPiiOX7v+8HnL/+r75EyUzZDPyvUBwXaqkgEPemwdLkpnQpQnA6LUFDNieqboR1+VBS6FXzd5L6A9XcVzFltB64qOLzgc1hMUalSxGzx1zwqLpqouJBAoVB5R7A2WEUBTWk+Szh73ARJdCsCSQq2RcjjMxf89f/h4vRhqTOjTE/86UBGvf6JtevIxWzkbTng9dyJS/3Ctoa0RNGCVRKTfR05JsezyfWlgRpNJiNqG4JSVemHCUGrutq8xhKPpM7lDAVvhWuWBDpAlic97B+t4tAG+6i6naKW53mw8H563e+UNQcyfdqxLZQl+BWKM6NtkvKJTpBYkESkcb8i8LE0va1fGcN7kpbGk3RoWFn5e6tfmaout1sy0RFsaWNZjlzQsHciJxBRVC1eU4ssnEWwgMK1lV+Zp7p/ttfiIES6bSRiO1ZInY+Kpy/fseLhLBgJTOYwFV1i8qiItElZVfcE0THiBA6uiq4iyUha6QE1j4g/2SSgE+DSOu4RiIAKHz5onscgoneowq6UwBHWW8p+4M/4gGsWSFqAMiDUXAzUyEFnGe6//aXskNSy5GG4gHn82B+WOev3/FCSqbAUFJvCbmXrHglJBGZkMsxkTKxRr+hwhkSr2lSUG2ZujQAjviMwghNbGG0/hAlaNOyHg39otwE1DtSSWXuTVfgfVQDpRd57gIZ6cIyodpJpXzc/M76rS8qIrtM6LN0LB9cHBbOX/PX73ShqydWThMpjTTMaRmhFkm7W2CA/5e9a11yJGl1kLPv/8Tt5IQTJJSe3dlLz4moiA9+zKXbdlW7qzAIIVHw3Sh98DdVf9ubeOsrBzgRceTn5WKnV04I6+uUX9VRCtUdXhU9keyEiSqPK9YovHoS6k3LB1Ns4t9Gjlqwl+Dy+47jTjNd4cR/Dm+JAvhD+vIfK5T+ziEeuKJL/XlORAnIyz4LrSnpEtHt10b5tsBqj6Iq5OsjeXCtHxR1CqKRvr51Yp7m0qJ7v3KFWW6TOr+QrUTx4Kwfq0gSk7D+S2yDGbmT6odpys7xygDvE/8tyBHNSwreGSG8yjPEA8ZdM71Tgewdl4NW/Yki57RXSW1uY9g6aCtp5SOMJdWho5KfuqWfJIG6mlPITjqRLL09mrDqNbWKHmASHiNIX+/F2uXkeFy0B2z5TwEeTKtxmCwQjrDMxH8O7wwTck1Zg0M/dYTvx6+qpTDEi9q1aYsuqcuyhin6ZnvchEjGiFUjdnga9WqJm6bJg3rhTZjAcauRrDLq0zxYKAytWCpHLMzez3Z2jGvOxMST4vV6GT39dT5nIoHVezNOI3sjoC4GbN46xG1maOJlaXSgRSunA7xtoezST+dEv0BzFxcyxpmo76jtkE3GKSxiS5/Q3fXcqSNYstZ1zmFDHJ2YeFYEEVGMxYotEGC1E5FfipUX6zwWVnfcBfk2NmGQlPHmbV19m8vse1X9U98oV+l3lnR44QNKoz+15FnDgiG8o53aVqjK/HD012VzUDz41Y4Clji8+/gSTkw8Kr5eL6DjNYHb1tuF/YUMscMNWPJvMXBmgNTO1URHxbVopCXVWCa/DUdb1kCmNV1XQ21SbqjZ0Gwqc7Up+cKtgDi9OHZ0zShlV407p8KamHhQCDaV/JjOR0F5BieetbQjs3KpqP9H88o5F3S/eFBCQOjXKREuP0uyp4xarUzlLvqmcuCr7Om15y6Q6uRDxeChlyWG5te2tJEzFDD4noQ1MfGgYFGS2lQL+Ql3cnVf706q9WEIpH/QGpwe+Mg3hv5NECSO9oKSMD3UA+KuOscuvvpGavrnjodWZG47X2ilCPMhYyTM3z1nnWJQBrDALifZAajWxMTEM+L19SId3O89m0vgJSEtLw2rkIei16NlhSdTIe/8SgUfPSPkPoFiBbF5b6JnF2cufhiFhttq90K+ql2t4rtZXSZn0F1fO+hInxsfTWTK0P9//wImJib+ZThaOFn7ZWXhLsO/YkaFCIZghUcynEOWGEvISTbomqjddmCsctHKo4x9IVZFrlSUKrsZXeRBq7J7mBhcqynfC9/MiGFtUOZG3sNB6pmjvVx1psKamHhOvL6+asGrqJ6Ad44SFu1N2pwLADwfyUQDnmYqEL8TxDrrzZVhsOtDgtdGE1bI1yreamATTVkN652ioixcbZnkJW9gvRnqdH0VQheLKr+JHOdMvUyplqfjc/WuU2FNTDwoQlxJb344dPu86ACOLEXfL3jTdGF2UsBGfXYkqix5pgFrwB1q+yd1VyLi6TNd6SSUxVqbfvRuDVRKNGdhX7vZzIZwuprDVQvOqx7hpLF2kbnL/WIS1sTEg6IsHqq9K4f2TmTBRWF2d+IwkdSsahDDWjSrm7PiQIVT2lP9Ct2x8eOi5R5wB/RWg+lshcwTQWfp4IwvxBtMLfLPVKHy8c6fYXt84FayMoKvr0lYExNPiqANFoZxXLoxWtPkIynrR2J4Shm70BjqJVdZ3ZPd3nqAValVQltgIzT+biCu0sU5FVGpG1EG0V58VKesBAaCyyjwtUzcMLLPXFlMrWgc3q31cDB8yIJvMKyJiQfFIY6KiIKsp4Y1Y5O5xPwext2zxL7jo7WuarjY0u1CxeqFG5BGtbWjRfO7qVzRmD44rTWaFNUrl/OMrrFUU9Dd925erKHX3Y1+BbX9psKamHhShF3GqS7aCcqmLFCnN4drULibBFFLMC19VMxP0USKwtyFM9/tpXVD6CJ345gAmOQ4lyRUqZUpCdJWRY6Hc6FXzwoeRvrQtwu0C/ELoN0QRycmHhXu0IfqXOG9p5IWTVUBNSOUDeFlMedOz7l8VXZZ3Q+G0/kmKIoMpkGt8YTfPCmgX+Hr3fqxTgqnoBUM9LG63C6Fm+J8wjR1CGv1f9hyOgQDK/VNSzgx8Zgo4qjd1pac4blsDqJtu+jlBVWRXnpRT632n93XvUwTrdPQz/hcSARPYVuLwJRwc0HxpHwSl9fDy3DRmu9AUvuhLHCfmlNPyDbUg6bCmph4UvhPX2HiUAUq6nh+mvbWg5yOOY1mlblzimEF2s+C1WvkWDJ6Vdq4uGyFLPZ9jgIukD8azjIMD8P6kVycLodUb2jfmcIAcMm25OE1TMKamHhS1OANk8AkcK73F2oNz0hzqKFhS6FbQdVAh95fWq5dYCsOZ91Cn7pioUeRsfLgRhqEcy85FttOMTWolUU4uyL3vc/aN718HBLvuQrEYaWL7TQMyqATTVOqolNMSzgx8Zx4t4S0VaaWi/aIvLd70S//f1VnLYLQ6i33w9g0pm1z0K7CeNBLODBavrTR8H6SvPjNZo+WMZX2MmrOqKuCRP1Lqi9eXazh/KfCmph4UpSllpcJYHT5wVUb03SFDUNM5ZwmOtBMd2uD+rC7lkkeeuLabc0cmOUFpeBrRFhry3TBAYkign1i0DMqXMmfrqXRKQVZC9aPJK6H79R9aY0j603Cmph4ULgWQMSwKR2T0zzp1UC1xIKgo+ErE5owmkVg84aJCzuFEWqkknO/aFppFAndSfoK14oNCqYhfmKNfJGWL085L7K8madFVSWixoYQHI3aRxpaw8TEo2JnpXPUj71o52cNeUkGS5kVwkj0iQC2DY+/aKplcR6CMzgu8yXNwOBPZ7dKTBgrvV5eBrWzaQt5luFXvnLtWZc1zsbyj+RVHNWLpwrt9laVSNx/NN0nJh4Vuwsi+ruDIcUJGrgA9ATjYxPNxvJw1KoePXh60OhkqFaVtrEuI3R3Cm0l8g3AvHn0yaeKRvnLURVIPFyc5afJhpFk2GjL6e5Yy0C9BBtqmHgePwlrYuJBQfvU+p/ouavqJ8BxgjynUwwI8ZlwGxoIA0Wht6WRGBsod2GiKkaG7y3M9iL1I3pvMQis8VlhXIykLKm7xUV3zSZzuzioIjG13KmXq+pgWBMTDwugUqisvBCfbqnWnbgOch7nMavv9NrOWV0uLW9hGiakpqYX1L+8mfIi+R4LtNQcX66aEXqjYWIQ5uJymH6oXM/BtrSX/EOB/OCMRkkqL9e3g+/NH/+vb/3ExMS/Cuge6Jdk8G8tLWqqEppJ632/t21Fvs4uZAgEg5MAN8H6i8h+HrxDqRLtdbqpv35EADOdbgG8wqGeZSRp0TaHolsi7xdg70tZVmR+jx1dokX2jGumhBMTDws2aUS5QzgKyrxy6lBhhNiWWmKuFW4isdVpAxg3NGoaserusSTYI5pSQaEtmCTCbcLEKgNnaI2lRQlkbeJk6E6zmQ11cY1YNRcsBC3A5JiENTHxpKCZfBDwDlE7EEvCWDWrK61Ok6FewT8gba7t1xGQ2lr3OPtOoPLRWjTFWfD0Zs2F5+o865i7jHHAltdlovp7cQh5BpzvdJSvCsKGHzdVaz+NcP/w0gALY5juExOPia+vF7GqE6RYXWY2XNLxZqgHeVMhxltN6zrIU7iktk8yurXelmwpmz6M55ZyNvIsVGYo7i5HH6jGF9DVClul2l6JSxxVperTRD0V1sTEgwLsUEjB9JQwKEbsFtemDfLFNY+zBq6qh9se4l7v+pezr6NVhFV20GUdblxb418i/xf39DLwElmqiRlFRA8MvBiuLqcjfFYDk6LejElYExNPCiSDVI2yhQSmgzhvFVAvzQY2kHVHB3iZa4GanjBXqTg0H6se71nsZOe2wrE1TUVTCsPv5MNb6cl09kyPCPezgJ2JdHc7BxnAA5/nvhA49yvlT13XuB1TSwOjdeUkcVrCiYnHxNfr1ZKe6N5CyiZT3ig6uxX2AvuqNvLaP9Cre1P71Ai6oZZnoK+9u3BLqYWQfAYL59LbuqxesQikiL82pJxyutu26ktBsKrNo25yrWaHwTGl7E1PhTUx8bAIWsujiCK5KSCO51x6fv+5wcxyX6G67Oc/K2pRhxRPrDpD2jNc2OaNWjExCXGewn7RJoY4kwg1fDVSubzVFmpFxyGQnIvWFMmCCLQ7jHuCfPjwmIQ1MfGocCBK7uKM6tAWPcLn58ZOHxy/CpyjEkPGAv6VElXIGe4cBwa1QXN2l6lhoZ8riYb4UV7NNNSBMtU5lVgQCa1RpPdWojvSpgw8C7NfjpkhV4GWJSc2i8NVlWKmW+Bc0xJOTDwoXq+X9FqNkVf6WbAglYoI7EzPiVvcNCxXZoBRaL04Dbkoc2smBxSOa9vHi9/ZaREjSc4ZcSh+i4fuUWYLyVsd09ktgrHhsvFoOudklpoKa2LiYYFEJKC496iOFM1Q/61V7Zdj6zCZXBGX9oKJAnvlASeED3Loqj1E69RBmxsPTuuqFCvGGKSsQoj6lDzOEi4oNGMyXQw+s1pFN50i4r8gdU3Cmph4UvQiX7IKsIizjCqgXBlONudRXQnDMgtWA2tZz8XI5pRlVSQFtQGrK6yjwlLrokgYv4nEsVfWZ/gav+PVc3pOJ0Vw2U1MoLmD4wuo1oXTYzK6sjt2qs9MSzgx8Zz4Ktec8A+LVLlN4/JVzXZNXJmjgbDQp7uIHHezhhcVi1OMD50LgWZ8tSyygtZjnuuKYR9qzj2rrPWeTn6ffvQ/iU/EgbgCqB1pXDECfhMTzwraM1CqIZ1UIYFgIgRDqc5UwKrmqeqnqB1AjPIC2llG5Dyk4yxlGrFk9pI6XsGN5WpSXaQjds8Pu3Frk4kq+vyiZeTZOjVx8JMbRoOpLXpy5hY5ramwJiaeFa/XK5IjKYC79mVSnzRwXWWOQYcdGFYU/+CGw51+hYKFObesP9xZEzCPW2AdQgos0kS3y691n1ZnqHpQmVWhYlzu1yIRj3QVYlNhTUw8K5b1Vsqltpf37iLjyil7jgFbhNllTPH+Onyk12FkJVheGFhyTuES72R+nWeQxuB0Hasj10Y0uPZ1kkwxYCxwooniiIZeKPbOKaw6TNDKOu4hKXavgetNTEw8J2DqcKZ8fdtWnZLY+vubuzH5I4VlMgGUASKALdsJLPmVDvxVfAW2dUql6NIov5R4+y5eBeaC916iiXfrahJpJrKN/8dNVzhZb0uGsuJdcJa4EzubhDUx8aBILvtOOoJb6zBwAljAD7xGXdowYz7CE+TPoOFyMbfO3xuzuyaq2uVmg5c4j9r9zVIKhZU0kp53Nyr2hAGqQvMaUGnBgzrIoO+dJI4A2HCOCcXExJMieQjL6IOjfPdiRy0qYflq2+QCh0LYmbX0kgQGhzNOzd3otePgOSh45DJFzMOkenFoPnOLlr3JzjEgo+Xi3ZNMh7AoN6AC18MokuWkesHWBzwGaymt868B3ScmnhOv125RKKEknG8G2ZsNVKlQJ2gODZcXHSu0UlFkvXkEjcTLvysI75vA5e6xA6SDVic1rYmCA8aL0MXzv9akY5XkMmafVWVej5oKa2LiUREm9Q5RKCzSmaFnczAM8u4H3p6bzdY6xNShyqfmC2+y4oXR7sbCK5gBoxGs9D9tUKuS2MqHb+8VRBOY3tGoRtwUMNBN12qgLQ+OlCh4WB1/EtbExLOiZVWokE4Gp2ME18qe7ZFMeoGnsU7R1bu2WcSpDjPePWBN47tIXxDaAouqNqHTC9qDuu/eizqXWesZXtZ/UsIKI8QSWIZ0O7eMrI3xM1MvMTV0MPUjX3h4WBMTj4qvs/yswsSVkshAF3nQiiqkSrkz2mGL64jFCoh7I/HqM9nsucgaV3PqF2RvqyjncfWubopBXSpefGZmzY2NyHrEypFj70CLUnN0wq656SSsiYnHxCGOXg6ppgM3p6fXxeOMrnjaN3UHNPXkNao+KhNUuE2YUZCKqa/hLWPC5AGtFwQrSe2QqWJ9M1pl8KKW4ifjF/ct5d7K7rISZIVzTUxMPCYC07DKLQuSMdC3Ot+LApoE3wogWo57HVwu0DiXlU0pXXGqvzzjRm7VhKMlPJFuONDjgkpWE0PrrI8RTv0MSILeMFazLXKPOepYKzqNds50+uWfLvL0t7lytKbCmph4UJREspYVOitz7rh05USr0myv6G1DhN7vPZ6PSqlfPbq7dE4K2y8QgsrqpoMDOZaTG5D/XCq6R43QE3WenGVC3NRrYOHYLeEQRycmHhghi8bNTe+hH4GnxQxTgPrm7l1LvgTbwDLesjaxyC8cgpRuEKa1vVVF5Bw6NuNBcTQ3jhxPrbZukI0VX6olQ2yL0ldQ8mJ2KwIZ1nEcnPuwIY5OTDwpVtMVSK3C5t+5wRd7wMPTjOIQQDsPAlTRLRtEQr0bx7j4qOZrGdNIzfdisZbqPcNeHJQtn5oOAp5X1oN4HK6ViZI2QLmsI10j3X2WRchotOTobSSSJyaeFqnW4B+kSi1TvIU7L9EFUzMdU6z9ah3RUSaRwRYKMpn4Afz2aMm9EH4FuAnQ3BLVq55vohZzbB1SgRAYvHO6acC2XAmrgOoXJJVnNWdi4mkR0mxFC3+y1pBukUQtckpzd6VfjDNA7vzFqV42pfsuvjzklB2Md1o6O2wwIAmv1FA2hmCnm8rywWu/PHDA8solHq5On4wUIduGzLw7mAhHrWFi4lFBdYJVm4PUPFe+ed3YuzUTuBLT6Qqez07v5yxTPEiZp7+09c5z1NerjkvfZaXJs/AqIMrvk3fxgAYYR097MNmh02cmnPlw95v5UCNTap2O4ujExKOiiOJrRTshe+kV13e4fBxl9BzNJ6cMaZSKVTIEIG2F8ilgX+irgKtu8nAmAeGr1RM/uG0dESsM9ra14GjmocNxcLiLvY+2XOkL+ZNye4hVokkZhfUijhBR5g2GNTHxmCibL7puhXowd6Ml0FQz4VlmcT36Yw26fOTB6mJTR38wbPNZg1lNz0Juid75a5Res4juKMIEv+gL7U0GGVNVJm2CqTAsylIaWqqTsCYmnhNfr9fd/ZnKMzhF7XCP19MOsd04+XNvxH1TscVMSORaSoU8z34C3u1C62OTl0VGPIugKJAczPXiIYQsFknbC2F5CGst2VY0yEBwVJhnNS3hxMSDwtug2WDkzt6JQlN5y+92S2XVsWBjT0h8oaE6ndby2iI2PgYFTOUcUAhKInmZqkTkIiERcHpRrBJtiLLFJ00+DyM4HOSURY1rrSIuSI+bJ4A3BZi9jR7WxMST4t0S7iiHZyc7IWDN12IxvV8oEgiuE0C/LZ/xt1vXa+Ao+I23OxgKO2uk3RQK67WbaObD1SG+T2ITBasxYQqlgkMf9P9Roayt81CPdzHHOWed1VRYExMPitZ8WgCBuGPnIvbugmGH/q2wU08IL58tKv7l2qAIbZkQCFycwbj9I3qmFr7jPvPiPpTnhPMYKftcs0Ic3VlMGuyq68UD0qmiTe/c0flehRU7XrFXndOpR32Xk9oqVsYfP3585xATE/8Tsd9lSVpLwOf5fSdvJ3U9rAU+c+9uu/+wrL9az4Vwd9dC9ZCmqweqqVWJqNkJrXlM8oKZbNeAdL97WYeure80s2geIQqpwuD6YfFVne4Cih+uioGu8jrn1UiM/W6FRWuLCMwZahwZSQrxbx5gYuJ/I3Y64jiNTy1Jnqh+QB+4+rJVhjhOgAjErM32r0wnAt3W3ixSKnURLgpoUCHibj53IWhhpHh6p0bc9ys47ytdwND9w1fAnvAY7JvQv/w+sqwk7lpX/A0tYfDE2ikILbff886JiYlfhC7DYP5f/1omXNBecOGGTD3fF+gQyE/c/dtyHO78VQEULb4M2CsbvijkiX1nG/SkzE1i/yWCLKs/7OneOfTAWs5GtR6welZJa2kHHqYy0PKjfj9hualiPQkhFmv55KuJiX8Xveps2QhmStnbydXkpC328hobQlcYeWf9sBKRqo4qV5FLLys2t42rulnAyYh0hdUScm1L93YO/ohU2coj75w9+nJ4rHrRGqKKl8wSix725M0XpKVVluxmWyayKMefb2JY+11fhn2o3XSza4NhTUz8k9jnXkLGaf4nJ33vtOV/gbG8c1BRE4LaxR/mO4qXYxEnvEseqbEQKgFqOLHOIgLfJwEL/NQNKkMzYO1P0LXKG+uw5T1uAZ1mwcvxvl1hYfbg/GAwEVu9u9KJiYlfhauGpxYc3C7WR98juuJNQV/UL/sbenu11TKIUS4HJWWqk4RFFz39AjUKVEdWWUx0WdsOqcnkNXv+mMhYWhUCHCtALlrg1OGE8X3QHe+PdwqGuulwJiYm/mm4E15Bm2cu96oTdSpBhBLvo+wCtqKjXbosnf6YBE8VRHZmJgtJSOem3a5ULx6ZGzkOspWXKQ78fVZ7QItkn3iv4jTqCQGqql+wHbgR7k3Pb1r9H99+n+Gb3UMCQ1n3uqalExMTv4hI4mR1VGAFFN5SvVUjLRECmVPOoF6q5nJw4YqA3FQ7bH3WPVUnxXY0gkc/nb45SUr1WFcGbA5EG4CZob/zZncB4Lf3K+SRV8TB9VeYCCI3J562Glr2/Q7Q3U3d8PHVi+8xMTHx65ACKRskp2myNThcd5wDo0pd4oAWFcWKDcalGN4FWrT+EpmnDridbRJlZ8hFNaYVGlLQEpEiWz3WrIyo2jiXAJbnvmFqSix3ajjnQUOgO56J/65dQl+rf+a2oD26ElNiTUz8k6DhAoX5qhcssbsuX4p2VU0Vlv5KUMYbpl5AtHIaiM3BIq3X8A3QeA387gxZz6emfC0zQw+Z+0CHeuV8StMvSXZomWUwuVY0yFXJgqyFOkAJZC3kUv8dU8KI2Nfs4dp2en91poQTE38bZ0i4ZfJWdAPrrzXacuLy1jFjzmixzsBWXqkreLsL3toORqWaD2gfI7twcRNjpwcov8otNxORZlMB56iU+rHluIW2JRLNDaoZJSLy4b+FOApCm2M0CW4tlQYnJib+QXjDUpQtFmaU7MlYz9X4XKL01VtxeO9Fmk/mgbDXvSCyYA75M1dpOT4kHSoRAvEPUquYarlPnTVcW5SVOhe6Q6cSlmhDN/eBHok5Mvx+wqq2msx8EWD2D57/xMTE30S5THQR5dH+8oZxfNO1XNXujHVX3e3RhAZvYN0X4SVp4D50sirzhHR4gLLC8xVgQJa6Vdl58n4ngeK8AteBlnHnWReB8tlIHtBxaA0IZObfALoTA8SZ8zxDuuGJiYlfhpu3TjHwnmJXRTLKS0W0BT3dYieznL4QUHFoe64iRjhfeVNLAUM9EzifQDtQJNh3qfpVCJQlBPzCmc4XVj0ZfAnrIUI93KkWUeDVcm0GBV3Kren1feLoebHd+dxD3DJMJ60TExO/iNoprgEdtkeIMe9aZ0bbRcT6/bwNgeOWfj+CLhCiaWQo6VEvMkCBHKExi9pMxqA/mQ3IVrX4vBvJClJDF8RB82eIVJQxOXIOBw1JF61gPb/6sWurMcD1MLgFfZeHlbuPy8CVUAoa5oV7b+HwkrQLl7X4oO63cPW1XZRF483DzVloF45/dYpyoPpH/tULRPTfjg8KsfNa0jMyjoQ/XI2c+h/x569Rb1LQ8/v+4a+f/zrE5/HdLxEjkFS44ep9btbwAd94HTb/xcon337H+yM/zq+eIb8QnIXrz889OXyGfry97p9Iwk/v58drOmfoP58WHlbOyPr7ohCenl4rpOPcvU1k+KtsBQMcp4+8bO0GnNz60tLfZIM95YCs13rWQbi8L11jyKPAZ4IYV3hc7WFRTRtWws1TYJVRl8bwl3G+DxAfc8K452m4HeVGbwt7YFeuVUu9cw7p5X7zgs+48PrVi5FCr/j2lDBi711JOmwv62Ra8w3rHwpL3DXv9H3qWbltSgDH1/s75aFoUbdiJgMI7vRrarqvatgERTR+kMi+o+9jm+t8pfymaP/3J1PvQ+WPZA0UOgc1YbHeH2sRoHj0pdIjVG9mivcQx/JZMn45GMHeJpyQvHY9P288JHX/gLFAJsvgfn5dXhtiSO8TzB8g5H26kN5YsfaZUh/eYKEfwBY2PgfzTop2MfCe5IS3dGQl5hoCLTD2aD8uGSbfjOVlmx70FbZ+l5hCFhbZYkVCMtFXnNwAJf2bVlWCzjiJ25orzw/9PsQ2GhXH/am5ZXhVPxmOLgmND3UuqtTG3sIFEK6XiaTgoCI7lVvKOqLu3/eZbaI80UWMRygCg9tiyUdhXQt1ha8uAM7dmJeWzAopqn42/owZx+p3sC3kXjhXV306RnegYMjv/GVJ+s7tSHc8Tz+nPG/RHbibPQrl/03Lz8iKUhuFiXO1XLAuWoL0bLSem4Z87oPtxl3yvJ5a1dU4UzVvkJHpS1O4/BajUma+VXzLIZVvRAVjLd9FQK4ZRVo+GkpYGQNHqybycyf/4yl11N+rKzgvn7YGMX7q2YU3ylXkfS2b2ubKpj7eFQvgDfmBVcqKecXu/mkoL+k9wQb9xzq9Ievr1czkcHIsyxa5jq3Hx9G59PooWe3kFJIcqn43k9+HVAuqBkxdp2t0/3HLpkiBFDaXH0OfEs9L6m8HzzC2KTUgpLr7QGtDPB3qzQjvj8ifrph6UgAzap3PLpLl58p/lRmWN6Gdv3x9F+O+B+LDXAKHXmUTFoF3rfkMJqh+NN3LW/W4nHfk8GFyud41evBU3p+R4aG1Yb/j0gTkb/j3rftJWSilb1i7+Og9h9sWdUwWWvWh6JXJz0dA5sPNG3Q7oDwuUVJVv4rlM0SV34VcEYL7BfnEeG9yZamVGSuJOD3U3iezEyLgIoLjjo5O0H5d/4UMeC9UhRiykZRn/OTi743sOTOIdmBnjD+W9/t7dycflTagEbz4inIc4P46m8a4XrAg3ejZL/O7nX2y9k7ZZleb0CK5rBRCm/2qUbd3XZvSSx+Zsi8wvoUn+y2Ta+icwlIakQs10awJR35tkZjkFJwoeiZ45225xhUR7+tJ6i6TK976HwFjPeZTFiDG80QiuA37zK7fLNMWKuCrssMP59fFLy1pL824cCIMn5Mhn9hcHmS5nh1Q/Vpgemgs306VGiyY+aaEKWqDxHdqaXZYVQcbrcZggt115vf3k6Eyj2FC3HkiakPTikeLKQc3pDNnerdcRZ/NN/2kqfcd/P4QzqsRt6nDBMSyIcqcjJfdZJjxreWMxZPX6231bZUCoe7jlZzkfu+Tqh8jXO6frB1cLphzWrztO4cn8dd5iZ0ir/8nBBy35rbg91yKSHWp9JgGNzbbTGyn4p7qdyEtMPsOwhXF+yIT43Wr4zJn8+yYDeP6DbveUqckeXARzRTykSyNiThvisPddutPviDVGlcrbsk6ve1dDoV9SIXki2mdUAbsHtddjRVevl8ob9O8lB/0fv8u8wvVLvEnKI8FJUB+LKkYqEDY8fXOVcZPZEBCjoO4S0V1rrGFN7E5DOg382ODH4ALbjru1I3PN0cEQg/f3HGTVopfkjSuRqF/CVb2qTxCfyfvLsI18nijNCByrDf5VezxYWNR5d3fp6W/jndLuDdsGAWgvFsG4rAfkIA5AQ+pCPXiIMRhpjDeVd/X7xkfUOynPGtNU25u1w74tTJXXsiq39W6fFwESLdSiPM7ixV8ihdlKQMUs9+nBsswCjDpf6KvQOuqyoj8mSl8hrfth9srpGC/3in5AK6vssaRoqI/bkKLpAtAzotp980XrTan667eKGyvxlpgwfdIkmsn6DUzcPn1tqwT9nBdfxfyWc16sxTC9X304LXIzp9LvTKLkV8132Jchlc/1hn9XvBFOruw0ar8EnuAVlRDAP3MlIa62rfAuqDCVXwS+eu83k3zlmO0lh9BdR1Wtj5o1nnTt4kIV59Sv8VXr2eE/3gi7JLo13p9bws45SKwZcA9TaNvOxoWnodD5P7/AgAA//8XUqC3+nGVfQAAAABJRU5ErkJggg==;clipPath=inset(20.67% 6% 22.67% 7%);fontSize=16;" vertex="1" parent="1">
          <mxGeometry x="1255.3899999999999" y="733.46" width="123.65" height="80.54" as="geometry" />
        </mxCell>
        <mxCell id="eRDI14SPy6lEhacDje8o-3" value="" style="rounded=1;whiteSpace=wrap;html=1;fillColor=#dae8fc;strokeColor=#6c8ebf;strokeWidth=5;fontSize=16;" vertex="1" parent="1">
          <mxGeometry x="1296.16" y="1120" width="120" height="100" as="geometry" />
        </mxCell>
        <mxCell id="eRDI14SPy6lEhacDje8o-7" value="" style="rounded=0;whiteSpace=wrap;html=1;fillColor=#e1d5e7;strokeColor=#9673a6;fontSize=16;" vertex="1" parent="1">
          <mxGeometry x="1220" y="820" width="910" height="200" as="geometry" />
        </mxCell>
        <mxCell id="eRDI14SPy6lEhacDje8o-8" value="&lt;b style=&quot;forced-color-adjust: none; color: rgb(0, 0, 0); font-family: Helvetica; font-style: normal; font-variant-ligatures: normal; font-variant-caps: normal; letter-spacing: normal; orphans: 2; text-align: center; text-indent: 0px; text-transform: none; widows: 2; word-spacing: 0px; -webkit-text-stroke-width: 0px; white-space: normal; text-decoration-thickness: initial; text-decoration-style: initial; text-decoration-color: initial;&quot;&gt;&lt;font&gt;NavState&lt;/font&gt;&lt;/b&gt;" style="text;whiteSpace=wrap;html=1;fontSize=16;" vertex="1" parent="1">
          <mxGeometry x="1237.08" y="820" width="80" height="30" as="geometry" />
        </mxCell>
        <mxCell id="eRDI14SPy6lEhacDje8o-9" style="edgeStyle=orthogonalEdgeStyle;rounded=0;orthogonalLoop=1;jettySize=auto;html=1;exitX=0;exitY=0.5;exitDx=0;exitDy=0;fontSize=16;" edge="1" parent="1" source="eRDI14SPy6lEhacDje8o-10">
          <mxGeometry relative="1" as="geometry">
            <mxPoint x="1330" y="990" as="targetPoint" />
          </mxGeometry>
        </mxCell>
        <mxCell id="eRDI14SPy6lEhacDje8o-10" value="" style="rounded=0;whiteSpace=wrap;html=1;fontSize=16;" vertex="1" parent="1">
          <mxGeometry x="1300" y="950" width="116.16" height="60" as="geometry" />
        </mxCell>
        <mxCell id="eRDI14SPy6lEhacDje8o-11" value="" style="rounded=0;whiteSpace=wrap;html=1;fontSize=16;" vertex="1" parent="1">
          <mxGeometry x="1464" y="940" width="116" height="70" as="geometry" />
        </mxCell>
        <mxCell id="eRDI14SPy6lEhacDje8o-12" value="" style="rounded=0;whiteSpace=wrap;html=1;fontSize=16;" vertex="1" parent="1">
          <mxGeometry x="1649.65" y="940" width="110.35" height="70" as="geometry" />
        </mxCell>
        <mxCell id="eRDI14SPy6lEhacDje8o-14" value="" style="rounded=0;whiteSpace=wrap;html=1;fontSize=16;" vertex="1" parent="1">
          <mxGeometry x="1833.8400000000001" y="940" width="106.16" height="70" as="geometry" />
        </mxCell>
        <mxCell id="eRDI14SPy6lEhacDje8o-15" style="edgeStyle=orthogonalEdgeStyle;rounded=0;orthogonalLoop=1;jettySize=auto;html=1;exitX=1;exitY=0.5;exitDx=0;exitDy=0;entryX=0;entryY=0.5;entryDx=0;entryDy=0;strokeWidth=2;strokeColor=#FF3333;fontSize=16;" edge="1" parent="1" source="eRDI14SPy6lEhacDje8o-16" target="eRDI14SPy6lEhacDje8o-29">
          <mxGeometry relative="1" as="geometry">
            <Array as="points">
              <mxPoint x="2190" y="970" />
              <mxPoint x="2190" y="940" />
            </Array>
          </mxGeometry>
        </mxCell>
        <mxCell id="eRDI14SPy6lEhacDje8o-16" value="" style="rounded=0;whiteSpace=wrap;html=1;fontSize=16;" vertex="1" parent="1">
          <mxGeometry x="2010" y="940" width="116.16" height="70" as="geometry" />
        </mxCell>
        <mxCell id="eRDI14SPy6lEhacDje8o-17" value="Goals" style="rounded=0;whiteSpace=wrap;html=1;fontSize=16;" vertex="1" parent="1">
          <mxGeometry x="1833.8400000000001" y="850" width="106.16" height="60.54" as="geometry" />
        </mxCell>
        <mxCell id="eRDI14SPy6lEhacDje8o-18" style="edgeStyle=orthogonalEdgeStyle;rounded=0;orthogonalLoop=1;jettySize=auto;html=1;exitX=0.5;exitY=1;exitDx=0;exitDy=0;entryX=0.5;entryY=0;entryDx=0;entryDy=0;strokeWidth=2;strokeColor=#00CC00;fontSize=16;" edge="1" parent="1" source="eRDI14SPy6lEhacDje8o-20" target="eRDI14SPy6lEhacDje8o-49">
          <mxGeometry relative="1" as="geometry" />
        </mxCell>
        <mxCell id="eRDI14SPy6lEhacDje8o-19" style="edgeStyle=orthogonalEdgeStyle;rounded=0;orthogonalLoop=1;jettySize=auto;html=1;exitX=0.5;exitY=0;exitDx=0;exitDy=0;entryX=0.5;entryY=1;entryDx=0;entryDy=0;startArrow=classic;startFill=1;strokeWidth=2;strokeColor=#00CC00;fontSize=16;" edge="1" parent="1" source="eRDI14SPy6lEhacDje8o-20" target="eRDI14SPy6lEhacDje8o-48">
          <mxGeometry relative="1" as="geometry" />
        </mxCell>
        <mxCell id="eRDI14SPy6lEhacDje8o-20" value="GoalManager" style="rounded=0;whiteSpace=wrap;html=1;fillColor=#f5f5f5;fontColor=#333333;strokeColor=#666666;fontSize=16;" vertex="1" parent="1">
          <mxGeometry x="1830" y="750.54" width="116.16" height="60" as="geometry" />
        </mxCell>
        <mxCell id="eRDI14SPy6lEhacDje8o-21" value="odom" style="rounded=0;whiteSpace=wrap;html=1;fontSize=16;" vertex="1" parent="1">
          <mxGeometry x="1648.17" y="850" width="112.33" height="60.54" as="geometry" />
        </mxCell>
        <mxCell id="eRDI14SPy6lEhacDje8o-22" value="&lt;span style=&quot;color: rgb(0, 0, 0); font-family: Helvetica; font-style: normal; font-variant-ligatures: normal; font-variant-caps: normal; letter-spacing: normal; orphans: 2; text-align: center; text-indent: 0px; text-transform: none; widows: 2; word-spacing: 0px; -webkit-text-stroke-width: 0px; white-space: normal; text-decoration-thickness: initial; text-decoration-style: initial; text-decoration-color: initial; float: none; display: inline !important;&quot;&gt;&lt;b&gt;sensors&lt;/b&gt;&lt;/span&gt;" style="text;whiteSpace=wrap;html=1;fontSize=16;" vertex="1" parent="1">
          <mxGeometry x="1323.08" y="1194" width="61.92" height="20" as="geometry" />
        </mxCell>
        <mxCell id="eRDI14SPy6lEhacDje8o-23" style="edgeStyle=orthogonalEdgeStyle;rounded=0;orthogonalLoop=1;jettySize=auto;html=1;exitX=1;exitY=0.25;exitDx=0;exitDy=0;strokeWidth=2;strokeColor=#FF3333;fontSize=16;entryX=0;entryY=0.5;entryDx=0;entryDy=0;" edge="1" parent="1" source="eRDI14SPy6lEhacDje8o-24" target="eRDI14SPy6lEhacDje8o-3">
          <mxGeometry relative="1" as="geometry">
            <mxPoint x="1300" y="970" as="targetPoint" />
            <Array as="points">
              <mxPoint x="1240" y="905" />
              <mxPoint x="1240" y="1170" />
            </Array>
          </mxGeometry>
        </mxCell>
        <mxCell id="eRDI14SPy6lEhacDje8o-24" value="/sensor1" style="rounded=0;whiteSpace=wrap;html=1;fontSize=16;" vertex="1" parent="1">
          <mxGeometry x="1050" y="900" width="120" height="20" as="geometry" />
        </mxCell>
        <mxCell id="eRDI14SPy6lEhacDje8o-25" style="edgeStyle=orthogonalEdgeStyle;rounded=0;orthogonalLoop=1;jettySize=auto;html=1;exitX=1;exitY=0.5;exitDx=0;exitDy=0;strokeWidth=2;strokeColor=#FF3333;fontSize=16;entryX=0;entryY=0.5;entryDx=0;entryDy=0;" edge="1" parent="1" source="eRDI14SPy6lEhacDje8o-26" target="eRDI14SPy6lEhacDje8o-3">
          <mxGeometry relative="1" as="geometry">
            <mxPoint x="1300" y="970" as="targetPoint" />
            <Array as="points">
              <mxPoint x="1180" y="950" />
              <mxPoint x="1180" y="970" />
              <mxPoint x="1240" y="970" />
              <mxPoint x="1240" y="1170" />
            </Array>
          </mxGeometry>
        </mxCell>
        <mxCell id="eRDI14SPy6lEhacDje8o-26" value="/sensor2" style="rounded=0;whiteSpace=wrap;html=1;fontSize=16;" vertex="1" parent="1">
          <mxGeometry x="1050" y="940" width="120" height="20" as="geometry" />
        </mxCell>
        <mxCell id="eRDI14SPy6lEhacDje8o-27" style="edgeStyle=orthogonalEdgeStyle;rounded=0;orthogonalLoop=1;jettySize=auto;html=1;exitX=1;exitY=0.5;exitDx=0;exitDy=0;strokeWidth=2;strokeColor=#FF3333;fontSize=16;entryX=0;entryY=0.5;entryDx=0;entryDy=0;" edge="1" parent="1" source="eRDI14SPy6lEhacDje8o-28" target="eRDI14SPy6lEhacDje8o-3">
          <mxGeometry relative="1" as="geometry">
            <mxPoint x="1300" y="970" as="targetPoint" />
            <Array as="points">
              <mxPoint x="1240" y="990" />
              <mxPoint x="1240" y="1170" />
            </Array>
          </mxGeometry>
        </mxCell>
        <mxCell id="eRDI14SPy6lEhacDje8o-28" value="/sensor3" style="rounded=0;whiteSpace=wrap;html=1;fontSize=16;" vertex="1" parent="1">
          <mxGeometry x="1050" y="980" width="120" height="20" as="geometry" />
        </mxCell>
        <mxCell id="eRDI14SPy6lEhacDje8o-29" value="/cmd_vel" style="rounded=0;whiteSpace=wrap;html=1;fontSize=16;" vertex="1" parent="1">
          <mxGeometry x="2210" y="930" width="120" height="20" as="geometry" />
        </mxCell>
        <mxCell id="eRDI14SPy6lEhacDje8o-30" value="/cmd_vel_stamped" style="rounded=0;whiteSpace=wrap;html=1;fontSize=16;" vertex="1" parent="1">
          <mxGeometry x="2210" y="990" width="150" height="20" as="geometry" />
        </mxCell>
        <mxCell id="eRDI14SPy6lEhacDje8o-31" value="&lt;span style=&quot;color: rgb(0, 0, 0); font-family: Helvetica; font-style: normal; font-variant-ligatures: normal; font-variant-caps: normal; font-weight: 400; letter-spacing: normal; orphans: 2; text-align: center; text-indent: 0px; text-transform: none; widows: 2; word-spacing: 0px; -webkit-text-stroke-width: 0px; white-space: normal; text-decoration-thickness: initial; text-decoration-style: initial; text-decoration-color: initial; float: none; display: inline !important;&quot;&gt;perceptions&lt;/span&gt;" style="text;whiteSpace=wrap;html=1;fontSize=16;" vertex="1" parent="1">
          <mxGeometry x="1323.08" y="945" width="70" height="20" as="geometry" />
        </mxCell>
        <mxCell id="eRDI14SPy6lEhacDje8o-34" value="&lt;span style=&quot;color: rgb(0, 0, 0); font-family: Helvetica; font-style: normal; font-variant-ligatures: normal; font-variant-caps: normal; font-weight: 400; letter-spacing: normal; orphans: 2; text-align: center; text-indent: 0px; text-transform: none; widows: 2; word-spacing: 0px; -webkit-text-stroke-width: 0px; white-space: normal; text-decoration-thickness: initial; text-decoration-style: initial; text-decoration-color: initial; float: none; display: inline !important;&quot;&gt;maps&lt;/span&gt;" style="text;whiteSpace=wrap;html=1;fontSize=16;" vertex="1" parent="1">
          <mxGeometry x="1505.5" y="939" width="31" height="20" as="geometry" />
        </mxCell>
        <mxCell id="eRDI14SPy6lEhacDje8o-35" value="&lt;span style=&quot;color: rgb(0, 0, 0); font-family: Helvetica; font-style: normal; font-variant-ligatures: normal; font-variant-caps: normal; font-weight: 400; letter-spacing: normal; orphans: 2; text-align: center; text-indent: 0px; text-transform: none; widows: 2; word-spacing: 0px; -webkit-text-stroke-width: 0px; white-space: normal; text-decoration-thickness: initial; text-decoration-style: initial; text-decoration-color: initial; float: none; display: inline !important;&quot;&gt;pose&lt;/span&gt;" style="text;whiteSpace=wrap;html=1;fontSize=16;" vertex="1" parent="1">
          <mxGeometry x="1688.8400000000001" y="939" width="31" height="20" as="geometry" />
        </mxCell>
        <mxCell id="eRDI14SPy6lEhacDje8o-36" value="&lt;span style=&quot;color: rgb(0, 0, 0); font-family: Helvetica; font-style: normal; font-variant-ligatures: normal; font-variant-caps: normal; font-weight: 400; letter-spacing: normal; orphans: 2; text-align: center; text-indent: 0px; text-transform: none; widows: 2; word-spacing: 0px; -webkit-text-stroke-width: 0px; white-space: normal; text-decoration-thickness: initial; text-decoration-style: initial; text-decoration-color: initial; float: none; display: inline !important;&quot;&gt;path&lt;/span&gt;" style="text;whiteSpace=wrap;html=1;fontSize=16;" vertex="1" parent="1">
          <mxGeometry x="1875" y="937" width="30" height="30" as="geometry" />
        </mxCell>
        <mxCell id="eRDI14SPy6lEhacDje8o-37" value="&lt;span style=&quot;color: rgb(0, 0, 0); font-family: Helvetica; font-style: normal; font-variant-ligatures: normal; font-variant-caps: normal; font-weight: 400; letter-spacing: normal; orphans: 2; text-align: center; text-indent: 0px; text-transform: none; widows: 2; word-spacing: 0px; -webkit-text-stroke-width: 0px; white-space: normal; text-decoration-thickness: initial; text-decoration-style: initial; text-decoration-color: initial; float: none; display: inline !important;&quot;&gt;speed&lt;/span&gt;" style="text;whiteSpace=wrap;html=1;fontSize=16;" vertex="1" parent="1">
          <mxGeometry x="2050" y="937" width="40" height="20" as="geometry" />
        </mxCell>
        <mxCell id="eRDI14SPy6lEhacDje8o-38" style="edgeStyle=orthogonalEdgeStyle;rounded=0;orthogonalLoop=1;jettySize=auto;html=1;entryX=0;entryY=0.5;entryDx=0;entryDy=0;strokeWidth=2;strokeColor=#FF3333;exitX=1;exitY=0.5;exitDx=0;exitDy=0;fontSize=16;" edge="1" parent="1" source="eRDI14SPy6lEhacDje8o-40" target="eRDI14SPy6lEhacDje8o-30">
          <mxGeometry relative="1" as="geometry">
            <mxPoint x="2040" y="970" as="sourcePoint" />
            <Array as="points">
              <mxPoint x="2190" y="970" />
              <mxPoint x="2190" y="1000" />
            </Array>
          </mxGeometry>
        </mxCell>
        <mxCell id="eRDI14SPy6lEhacDje8o-39" value="" style="ellipse;whiteSpace=wrap;html=1;aspect=fixed;fillColor=#FFFF00;fontSize=16;" vertex="1" parent="1">
          <mxGeometry x="1323.08" y="995" width="10" height="10" as="geometry" />
        </mxCell>
        <mxCell id="eRDI14SPy6lEhacDje8o-40" value="" style="ellipse;whiteSpace=wrap;html=1;aspect=fixed;fillColor=#00FFFF;fontSize=16;" vertex="1" parent="1">
          <mxGeometry x="2070" y="965" width="10" height="10" as="geometry" />
        </mxCell>
        <mxCell id="eRDI14SPy6lEhacDje8o-48" value="/easynav_control" style="rounded=0;whiteSpace=wrap;html=1;fontSize=16;" vertex="1" parent="1">
          <mxGeometry x="1819.08" y="690" width="138" height="20" as="geometry" />
        </mxCell>
        <mxCell id="eRDI14SPy6lEhacDje8o-49" value="" style="ellipse;whiteSpace=wrap;html=1;aspect=fixed;fillColor=#FFFF00;fontSize=16;" vertex="1" parent="1">
          <mxGeometry x="1883.08" y="856.27" width="10" height="10" as="geometry" />
        </mxCell>
        <mxCell id="eRDI14SPy6lEhacDje8o-50" style="edgeStyle=orthogonalEdgeStyle;rounded=0;orthogonalLoop=1;jettySize=auto;html=1;exitX=0.5;exitY=1;exitDx=0;exitDy=0;strokeWidth=2;strokeColor=#FF3333;entryX=0.5;entryY=0;entryDx=0;entryDy=0;fontSize=16;" edge="1" parent="1" source="eRDI14SPy6lEhacDje8o-51" target="eRDI14SPy6lEhacDje8o-52">
          <mxGeometry relative="1" as="geometry">
            <mxPoint x="1660" y="880" as="targetPoint" />
          </mxGeometry>
        </mxCell>
        <mxCell id="eRDI14SPy6lEhacDje8o-51" value="/odom" style="rounded=0;whiteSpace=wrap;html=1;fontSize=16;" vertex="1" parent="1">
          <mxGeometry x="1599.84" y="690" width="120" height="20" as="geometry" />
        </mxCell>
        <mxCell id="eRDI14SPy6lEhacDje8o-52" value="" style="ellipse;whiteSpace=wrap;html=1;aspect=fixed;fillColor=#FFFF00;fontSize=16;" vertex="1" parent="1">
          <mxGeometry x="1655" y="856.27" width="10" height="10" as="geometry" />
        </mxCell>
        <mxCell id="eRDI14SPy6lEhacDje8o-58" value="&lt;font&gt;50 Hz&lt;/font&gt;" style="rounded=0;whiteSpace=wrap;html=1;strokeColor=#FF3333;strokeWidth=1;dashed=1;fontSize=16;" vertex="1" parent="1">
          <mxGeometry x="1307.08" y="1150" width="52.92" height="23.75" as="geometry" />
        </mxCell>
        <mxCell id="eRDI14SPy6lEhacDje8o-59" value="" style="ellipse;whiteSpace=wrap;html=1;aspect=fixed;fillColor=#00FFFF;fontSize=16;" vertex="1" parent="1">
          <mxGeometry x="1915" y="1250.5" width="10" height="10" as="geometry" />
        </mxCell>
        <mxCell id="eRDI14SPy6lEhacDje8o-60" value="" style="ellipse;whiteSpace=wrap;html=1;aspect=fixed;fillColor=#FFFF00;fontSize=16;" vertex="1" parent="1">
          <mxGeometry x="1915" y="1270.5" width="10" height="10" as="geometry" />
        </mxCell>
        <mxCell id="eRDI14SPy6lEhacDje8o-61" value="write data" style="text;html=1;align=center;verticalAlign=middle;whiteSpace=wrap;rounded=0;fontSize=16;" vertex="1" parent="1">
          <mxGeometry x="1810" y="1260.5" width="100" height="30" as="geometry" />
        </mxCell>
        <mxCell id="eRDI14SPy6lEhacDje8o-62" value="read data&amp;nbsp;" style="text;html=1;align=center;verticalAlign=middle;whiteSpace=wrap;rounded=0;fontSize=16;" vertex="1" parent="1">
          <mxGeometry x="1810" y="1240.5" width="100" height="30" as="geometry" />
        </mxCell>
        <mxCell id="eRDI14SPy6lEhacDje8o-64" value="plugins" style="text;html=1;align=center;verticalAlign=middle;whiteSpace=wrap;rounded=0;fontSize=16;" vertex="1" parent="1">
          <mxGeometry x="1385" y="1250.5" width="90" height="30" as="geometry" />
        </mxCell>
        <mxCell id="eRDI14SPy6lEhacDje8o-65" value="" style="rounded=1;whiteSpace=wrap;html=1;fillColor=#dae8fc;strokeColor=#6c8ebf;strokeWidth=5;fontSize=16;" vertex="1" parent="1">
          <mxGeometry x="1535.62" y="1317" width="60" height="35" as="geometry" />
        </mxCell>
        <mxCell id="eRDI14SPy6lEhacDje8o-66" value="ROS 2 LyfeCycle Node" style="text;html=1;align=center;verticalAlign=middle;whiteSpace=wrap;rounded=0;fontSize=16;" vertex="1" parent="1">
          <mxGeometry x="1337.12" y="1318" width="140" height="30" as="geometry" />
        </mxCell>
        <mxCell id="eRDI14SPy6lEhacDje8o-67" value="" style="rounded=0;whiteSpace=wrap;html=1;fillColor=#e1d5e7;strokeColor=#9673a6;fontSize=16;" vertex="1" parent="1">
          <mxGeometry x="1262.75" y="1260.5" width="64" height="30" as="geometry" />
        </mxCell>
        <mxCell id="eRDI14SPy6lEhacDje8o-68" value="Data Struct" style="text;html=1;align=center;verticalAlign=middle;whiteSpace=wrap;rounded=0;fontSize=16;" vertex="1" parent="1">
          <mxGeometry x="1165.5" y="1260.5" width="90" height="30" as="geometry" />
        </mxCell>
        <mxCell id="eRDI14SPy6lEhacDje8o-69" value="" style="rounded=0;whiteSpace=wrap;html=1;fillColor=#f5f5f5;fontColor=#333333;strokeColor=#666666;fontSize=16;" vertex="1" parent="1">
          <mxGeometry x="1263" y="1315" width="63.5" height="35" as="geometry" />
        </mxCell>
        <mxCell id="eRDI14SPy6lEhacDje8o-70" value="Module" style="text;html=1;align=center;verticalAlign=middle;whiteSpace=wrap;rounded=0;fontSize=16;" vertex="1" parent="1">
          <mxGeometry x="1165.5" y="1315.5" width="90" height="30" as="geometry" />
        </mxCell>
        <mxCell id="eRDI14SPy6lEhacDje8o-71" value="/sensor1" style="rounded=0;whiteSpace=wrap;html=1;fontSize=16;" vertex="1" parent="1">
          <mxGeometry x="2041.3200000000002" y="1265" width="120" height="20" as="geometry" />
        </mxCell>
        <mxCell id="eRDI14SPy6lEhacDje8o-72" value="topic" style="text;html=1;align=center;verticalAlign=middle;whiteSpace=wrap;rounded=0;fontSize=16;" vertex="1" parent="1">
          <mxGeometry x="1982.8200000000002" y="1260" width="58.5" height="30" as="geometry" />
        </mxCell>
        <mxCell id="eRDI14SPy6lEhacDje8o-73" value="&lt;font&gt;100Hz&lt;/font&gt;" style="rounded=0;whiteSpace=wrap;html=1;strokeColor=#FF3333;strokeWidth=2;fontSize=16;" vertex="1" parent="1">
          <mxGeometry x="2123.32" y="1305" width="51.32" height="15" as="geometry" />
        </mxCell>
        <mxCell id="eRDI14SPy6lEhacDje8o-74" value="real-time cycle freq" style="text;html=1;align=center;verticalAlign=middle;whiteSpace=wrap;rounded=0;fontSize=16;" vertex="1" parent="1">
          <mxGeometry x="1970" y="1306.5" width="142.82" height="9" as="geometry" />
        </mxCell>
        <mxCell id="eRDI14SPy6lEhacDje8o-75" value="&lt;font&gt;33Hz&lt;/font&gt;" style="rounded=0;whiteSpace=wrap;html=1;strokeColor=#00CC00;strokeWidth=2;fontSize=16;" vertex="1" parent="1">
          <mxGeometry x="2123.32" y="1325" width="46.68" height="15" as="geometry" />
        </mxCell>
        <mxCell id="eRDI14SPy6lEhacDje8o-76" value="non-real-time cycle freq" style="text;html=1;align=center;verticalAlign=middle;whiteSpace=wrap;rounded=0;fontSize=16;" vertex="1" parent="1">
          <mxGeometry x="1940" y="1326.5" width="172.82" height="9" as="geometry" />
        </mxCell>
        <mxCell id="eRDI14SPy6lEhacDje8o-77" value="&lt;font&gt;50Hz&lt;/font&gt;" style="rounded=0;whiteSpace=wrap;html=1;strokeColor=#FF3333;strokeWidth=1;dashed=1;fontSize=16;" vertex="1" parent="1">
          <mxGeometry x="1883.3200000000002" y="1306.5" width="38" height="12" as="geometry" />
        </mxCell>
        <mxCell id="eRDI14SPy6lEhacDje8o-78" value="plugin real-time cycle freq" style="text;html=1;align=center;verticalAlign=middle;whiteSpace=wrap;rounded=0;fontSize=16;" vertex="1" parent="1">
          <mxGeometry x="1650" y="1308" width="222.82" height="9" as="geometry" />
        </mxCell>
        <mxCell id="eRDI14SPy6lEhacDje8o-79" value="&lt;font&gt;33Hz&lt;/font&gt;" style="rounded=0;whiteSpace=wrap;html=1;strokeColor=#00CC00;strokeWidth=1;dashed=1;fontSize=16;" vertex="1" parent="1">
          <mxGeometry x="1883.3200000000002" y="1326.5" width="38" height="12" as="geometry" />
        </mxCell>
        <mxCell id="eRDI14SPy6lEhacDje8o-80" value="plugin non-real-time cycle freq" style="text;html=1;align=center;verticalAlign=middle;whiteSpace=wrap;rounded=0;fontSize=16;" vertex="1" parent="1">
          <mxGeometry x="1620" y="1328" width="252.82" height="9" as="geometry" />
        </mxCell>
        <mxCell id="eRDI14SPy6lEhacDje8o-81" value="&lt;font&gt;100Hz&lt;/font&gt;" style="rounded=0;whiteSpace=wrap;html=1;strokeColor=#FF3333;strokeWidth=2;fontSize=16;" vertex="1" parent="1">
          <mxGeometry x="1650" y="1040" width="59" height="22" as="geometry" />
        </mxCell>
        <mxCell id="eRDI14SPy6lEhacDje8o-82" value="&lt;font&gt;33Hz&lt;/font&gt;" style="rounded=0;whiteSpace=wrap;html=1;strokeColor=#00CC00;strokeWidth=2;fontSize=16;" vertex="1" parent="1">
          <mxGeometry x="1650" y="1070" width="59" height="20" as="geometry" />
        </mxCell>
        <mxCell id="eRDI14SPy6lEhacDje8o-86" style="edgeStyle=orthogonalEdgeStyle;rounded=0;orthogonalLoop=1;jettySize=auto;html=1;exitX=0.265;exitY=-0.02;exitDx=0;exitDy=0;exitPerimeter=0;strokeWidth=2;strokeColor=#FF0000;" edge="1" parent="1" source="eRDI14SPy6lEhacDje8o-3" target="eRDI14SPy6lEhacDje8o-39">
          <mxGeometry relative="1" as="geometry" />
        </mxCell>
        <mxCell id="eRDI14SPy6lEhacDje8o-136" value="" style="group" vertex="1" connectable="0" parent="1">
          <mxGeometry x="1625.7500000000002" y="1124" width="118.5" height="70" as="geometry" />
        </mxCell>
        <mxCell id="eRDI14SPy6lEhacDje8o-93" value="" style="rounded=0;whiteSpace=wrap;html=1;fillColor=#FFF009;" vertex="1" parent="eRDI14SPy6lEhacDje8o-136">
          <mxGeometry x="71" y="27.75" width="30" height="15" as="geometry" />
        </mxCell>
        <mxCell id="eRDI14SPy6lEhacDje8o-95" value="" style="rounded=1;whiteSpace=wrap;html=1;fillColor=#FFF009;" vertex="1" parent="eRDI14SPy6lEhacDje8o-136">
          <mxGeometry x="1" width="80" height="70" as="geometry" />
        </mxCell>
        <mxCell id="eRDI14SPy6lEhacDje8o-96" value="" style="rounded=0;whiteSpace=wrap;html=1;strokeColor=none;fillColor=#FFF009;" vertex="1" parent="eRDI14SPy6lEhacDje8o-136">
          <mxGeometry x="74" y="28.25" width="10" height="14" as="geometry" />
        </mxCell>
        <mxCell id="eRDI14SPy6lEhacDje8o-98" value="&lt;font&gt;10 Hz&lt;/font&gt;" style="rounded=0;whiteSpace=wrap;html=1;strokeColor=#00CC00;strokeWidth=1;dashed=1;fontSize=16;" vertex="1" parent="eRDI14SPy6lEhacDje8o-136">
          <mxGeometry x="7" y="6" width="48" height="14.5" as="geometry" />
        </mxCell>
        <mxCell id="eRDI14SPy6lEhacDje8o-100" value="" style="rounded=0;whiteSpace=wrap;html=1;fillColor=#DAE8FC;" vertex="1" parent="eRDI14SPy6lEhacDje8o-136">
          <mxGeometry x="1" y="27.75" width="23" height="15" as="geometry" />
        </mxCell>
        <mxCell id="eRDI14SPy6lEhacDje8o-101" value="" style="ellipse;whiteSpace=wrap;html=1;aspect=fixed;fillColor=#DAE8FC;" vertex="1" parent="eRDI14SPy6lEhacDje8o-136">
          <mxGeometry x="14" y="22.75" width="24.5" height="24.5" as="geometry" />
        </mxCell>
        <mxCell id="eRDI14SPy6lEhacDje8o-102" value="" style="rounded=0;whiteSpace=wrap;html=1;strokeColor=none;fillColor=#DAE8FC;" vertex="1" parent="eRDI14SPy6lEhacDje8o-136">
          <mxGeometry y="28.25" width="7" height="14" as="geometry" />
        </mxCell>
        <mxCell id="eRDI14SPy6lEhacDje8o-103" value="" style="rounded=0;whiteSpace=wrap;html=1;strokeColor=none;fillColor=#DAE8FC;" vertex="1" parent="eRDI14SPy6lEhacDje8o-136">
          <mxGeometry x="7" y="28.25" width="10" height="14" as="geometry" />
        </mxCell>
        <mxCell id="eRDI14SPy6lEhacDje8o-104" value="" style="rounded=0;whiteSpace=wrap;html=1;fillColor=#FFF009;" vertex="1" parent="eRDI14SPy6lEhacDje8o-136">
          <mxGeometry x="94" y="23" width="24.5" height="24.5" as="geometry" />
        </mxCell>
        <mxCell id="eRDI14SPy6lEhacDje8o-97" value="" style="rounded=0;whiteSpace=wrap;html=1;strokeColor=none;fillColor=#FFF009;" vertex="1" parent="eRDI14SPy6lEhacDje8o-136">
          <mxGeometry x="84" y="28.25" width="27" height="14" as="geometry" />
        </mxCell>
        <mxCell id="eRDI14SPy6lEhacDje8o-123" value="&lt;font&gt;50 Hz&lt;/font&gt;" style="rounded=0;whiteSpace=wrap;html=1;strokeColor=#FF3333;strokeWidth=1;dashed=1;fontSize=16;" vertex="1" parent="eRDI14SPy6lEhacDje8o-136">
          <mxGeometry x="7" y="50" width="53" height="14.5" as="geometry" />
        </mxCell>
        <mxCell id="eRDI14SPy6lEhacDje8o-137" value="" style="group" vertex="1" connectable="0" parent="1">
          <mxGeometry x="1768.5800000000002" y="1127" width="124.5" height="70" as="geometry" />
        </mxCell>
        <mxCell id="eRDI14SPy6lEhacDje8o-107" value="" style="rounded=0;whiteSpace=wrap;html=1;fillColor=#FE8E07;" vertex="1" parent="eRDI14SPy6lEhacDje8o-137">
          <mxGeometry x="77" y="27.75" width="30" height="15" as="geometry" />
        </mxCell>
        <mxCell id="eRDI14SPy6lEhacDje8o-108" value="" style="rounded=1;whiteSpace=wrap;html=1;fillColor=#FE8E07;" vertex="1" parent="eRDI14SPy6lEhacDje8o-137">
          <mxGeometry x="7" width="80" height="70" as="geometry" />
        </mxCell>
        <mxCell id="eRDI14SPy6lEhacDje8o-109" value="" style="rounded=0;whiteSpace=wrap;html=1;strokeColor=none;fillColor=#FE8E07;" vertex="1" parent="eRDI14SPy6lEhacDje8o-137">
          <mxGeometry x="80" y="28.25" width="10" height="14" as="geometry" />
        </mxCell>
        <mxCell id="eRDI14SPy6lEhacDje8o-110" value="&lt;font&gt;1 Hz&lt;/font&gt;" style="rounded=0;whiteSpace=wrap;html=1;strokeColor=#00CC00;strokeWidth=1;dashed=1;fontSize=16;" vertex="1" parent="eRDI14SPy6lEhacDje8o-137">
          <mxGeometry x="11.5" y="3" width="48" height="14.5" as="geometry" />
        </mxCell>
        <mxCell id="eRDI14SPy6lEhacDje8o-118" value="" style="rounded=0;whiteSpace=wrap;html=1;fillColor=#DAE8FC;" vertex="1" parent="eRDI14SPy6lEhacDje8o-137">
          <mxGeometry x="7" y="25.75" width="20" height="15" as="geometry" />
        </mxCell>
        <mxCell id="eRDI14SPy6lEhacDje8o-119" value="" style="rounded=0;whiteSpace=wrap;html=1;strokeColor=none;fillColor=#DAE8FC;" vertex="1" parent="eRDI14SPy6lEhacDje8o-137">
          <mxGeometry y="26.25" width="10" height="14" as="geometry" />
        </mxCell>
        <mxCell id="eRDI14SPy6lEhacDje8o-120" value="" style="rounded=0;whiteSpace=wrap;html=1;fillColor=#DAE8FC;" vertex="1" parent="eRDI14SPy6lEhacDje8o-137">
          <mxGeometry x="20" y="21" width="24.5" height="24.5" as="geometry" />
        </mxCell>
        <mxCell id="eRDI14SPy6lEhacDje8o-121" value="" style="rounded=0;whiteSpace=wrap;html=1;strokeColor=none;fillColor=#DAE8FC;" vertex="1" parent="eRDI14SPy6lEhacDje8o-137">
          <mxGeometry x="10" y="26.25" width="27" height="14" as="geometry" />
        </mxCell>
        <mxCell id="eRDI14SPy6lEhacDje8o-122" value="" style="shape=xor;whiteSpace=wrap;html=1;flipH=1;fillColor=#FE8E07;" vertex="1" parent="eRDI14SPy6lEhacDje8o-137">
          <mxGeometry x="100" y="23.5" width="24.5" height="24.5" as="geometry" />
        </mxCell>
        <mxCell id="eRDI14SPy6lEhacDje8o-116" value="" style="rounded=0;whiteSpace=wrap;html=1;strokeColor=none;fillColor=#FE8E07;" vertex="1" parent="eRDI14SPy6lEhacDje8o-137">
          <mxGeometry x="90" y="28.25" width="27" height="14" as="geometry" />
        </mxCell>
        <mxCell id="eRDI14SPy6lEhacDje8o-138" value="" style="group" vertex="1" connectable="0" parent="1">
          <mxGeometry x="1934.24" y="1126.14" width="90" height="70" as="geometry" />
        </mxCell>
        <mxCell id="eRDI14SPy6lEhacDje8o-125" value="" style="rounded=1;whiteSpace=wrap;html=1;fillColor=#E70005;" vertex="1" parent="eRDI14SPy6lEhacDje8o-138">
          <mxGeometry x="10" width="80" height="70" as="geometry" />
        </mxCell>
        <mxCell id="eRDI14SPy6lEhacDje8o-127" value="&lt;font&gt;1 Hz&lt;/font&gt;" style="rounded=0;whiteSpace=wrap;html=1;strokeColor=#00CC00;strokeWidth=1;dashed=1;fontSize=16;" vertex="1" parent="eRDI14SPy6lEhacDje8o-138">
          <mxGeometry x="14.5" y="3" width="48" height="14.5" as="geometry" />
        </mxCell>
        <mxCell id="eRDI14SPy6lEhacDje8o-133" value="" style="rounded=0;whiteSpace=wrap;html=1;strokeColor=none;fillColor=#DAE8FC;" vertex="1" parent="eRDI14SPy6lEhacDje8o-138">
          <mxGeometry x="13" y="27.5" width="27" height="14" as="geometry" />
        </mxCell>
        <mxCell id="eRDI14SPy6lEhacDje8o-124" value="" style="rounded=0;whiteSpace=wrap;html=1;fillColor=#DAE8FC;" vertex="1" parent="eRDI14SPy6lEhacDje8o-138">
          <mxGeometry x="10" y="27" width="20" height="15" as="geometry" />
        </mxCell>
        <mxCell id="eRDI14SPy6lEhacDje8o-132" value="" style="shape=xor;whiteSpace=wrap;html=1;flipH=1;fillColor=#DAE8FC;" vertex="1" parent="eRDI14SPy6lEhacDje8o-138">
          <mxGeometry x="23" y="22.75" width="24.5" height="24.5" as="geometry" />
        </mxCell>
        <mxCell id="eRDI14SPy6lEhacDje8o-126" value="" style="rounded=0;whiteSpace=wrap;html=1;strokeColor=none;fillColor=#DAE8FC;" vertex="1" parent="eRDI14SPy6lEhacDje8o-138">
          <mxGeometry y="27.5" width="40" height="14" as="geometry" />
        </mxCell>
        <mxCell id="eRDI14SPy6lEhacDje8o-134" value="&lt;font&gt;50 Hz&lt;/font&gt;" style="rounded=0;whiteSpace=wrap;html=1;strokeColor=#FF3333;strokeWidth=1;dashed=1;fontSize=16;" vertex="1" parent="eRDI14SPy6lEhacDje8o-138">
          <mxGeometry x="14.5" y="50" width="55.5" height="15.5" as="geometry" />
        </mxCell>
        <mxCell id="eRDI14SPy6lEhacDje8o-135" value="" style="group" vertex="1" connectable="0" parent="1">
          <mxGeometry x="1505.5" y="1127" width="244.38000000000022" height="100" as="geometry" />
        </mxCell>
        <mxCell id="eRDI14SPy6lEhacDje8o-89" value="" style="rounded=0;whiteSpace=wrap;html=1;fillColor=#008118;" vertex="1" parent="eRDI14SPy6lEhacDje8o-135">
          <mxGeometry x="40" y="27.75" width="30" height="15" as="geometry" />
        </mxCell>
        <mxCell id="eRDI14SPy6lEhacDje8o-88" value="" style="ellipse;whiteSpace=wrap;html=1;aspect=fixed;fillColor=#008118;" vertex="1" parent="eRDI14SPy6lEhacDje8o-135">
          <mxGeometry x="60" y="22.75" width="24.5" height="24.5" as="geometry" />
        </mxCell>
        <mxCell id="eRDI14SPy6lEhacDje8o-87" value="" style="rounded=1;whiteSpace=wrap;html=1;fillColor=#008118;" vertex="1" parent="eRDI14SPy6lEhacDje8o-135">
          <mxGeometry x="-30" width="80" height="70" as="geometry" />
        </mxCell>
        <mxCell id="eRDI14SPy6lEhacDje8o-90" value="" style="rounded=0;whiteSpace=wrap;html=1;strokeColor=none;fillColor=#008118;" vertex="1" parent="eRDI14SPy6lEhacDje8o-135">
          <mxGeometry x="43" y="28.25" width="10" height="14" as="geometry" />
        </mxCell>
        <mxCell id="eRDI14SPy6lEhacDje8o-91" value="" style="rounded=0;whiteSpace=wrap;html=1;strokeColor=none;fillColor=#008118;" vertex="1" parent="eRDI14SPy6lEhacDje8o-135">
          <mxGeometry x="53" y="28.25" width="10" height="14" as="geometry" />
        </mxCell>
        <mxCell id="eRDI14SPy6lEhacDje8o-92" value="&lt;font&gt;1 Hz&lt;/font&gt;" style="rounded=0;whiteSpace=wrap;html=1;strokeColor=#00CC00;strokeWidth=1;dashed=1;fontSize=16;" vertex="1" parent="eRDI14SPy6lEhacDje8o-135">
          <mxGeometry x="-28" y="5.5" width="48" height="14.5" as="geometry" />
        </mxCell>
        <mxCell id="eRDI14SPy6lEhacDje8o-141" value="&lt;span style=&quot;color: rgb(0, 0, 0); font-family: Helvetica; font-style: normal; font-variant-ligatures: normal; font-variant-caps: normal; letter-spacing: normal; orphans: 2; text-align: center; text-indent: 0px; text-transform: none; widows: 2; word-spacing: 0px; -webkit-text-stroke-width: 0px; white-space: normal; text-decoration-thickness: initial; text-decoration-style: initial; text-decoration-color: initial; float: none; display: inline !important;&quot;&gt;&lt;b&gt;maps manager&lt;/b&gt;&lt;/span&gt;" style="text;whiteSpace=wrap;html=1;fontSize=16;" vertex="1" parent="eRDI14SPy6lEhacDje8o-135">
          <mxGeometry x="-28" y="70" width="117.08" height="20" as="geometry" />
        </mxCell>
        <mxCell id="eRDI14SPy6lEhacDje8o-142" value="" style="rounded=1;whiteSpace=wrap;html=1;fillColor=none;strokeColor=#6c8ebf;strokeWidth=5;fontSize=16;" vertex="1" parent="eRDI14SPy6lEhacDje8o-135">
          <mxGeometry x="110.51000000000022" y="-18" width="133.87" height="114.75" as="geometry" />
        </mxCell>
        <mxCell id="eRDI14SPy6lEhacDje8o-143" value="&lt;span style=&quot;color: rgb(0, 0, 0); font-family: Helvetica; font-style: normal; font-variant-ligatures: normal; font-variant-caps: normal; letter-spacing: normal; orphans: 2; text-align: center; text-indent: 0px; text-transform: none; widows: 2; word-spacing: 0px; -webkit-text-stroke-width: 0px; white-space: normal; text-decoration-thickness: initial; text-decoration-style: initial; text-decoration-color: initial; float: none; display: inline !important;&quot;&gt;&lt;b&gt;localizer&lt;/b&gt;&lt;/span&gt;" style="text;whiteSpace=wrap;html=1;fontSize=16;" vertex="1" parent="1">
          <mxGeometry x="1642.5" y="1194" width="85" height="20" as="geometry" />
        </mxCell>
        <mxCell id="eRDI14SPy6lEhacDje8o-144" value="" style="rounded=1;whiteSpace=wrap;html=1;fillColor=none;strokeColor=#6c8ebf;strokeWidth=5;fontSize=16;" vertex="1" parent="1">
          <mxGeometry x="1763.89" y="1108.51" width="133.87" height="114.75" as="geometry" />
        </mxCell>
        <mxCell id="eRDI14SPy6lEhacDje8o-145" value="&lt;span style=&quot;color: rgb(0, 0, 0); font-family: Helvetica; font-style: normal; font-variant-ligatures: normal; font-variant-caps: normal; letter-spacing: normal; orphans: 2; text-align: center; text-indent: 0px; text-transform: none; widows: 2; word-spacing: 0px; -webkit-text-stroke-width: 0px; white-space: normal; text-decoration-thickness: initial; text-decoration-style: initial; text-decoration-color: initial; float: none; display: inline !important;&quot;&gt;&lt;b&gt;Planner&lt;/b&gt;&lt;/span&gt;" style="text;whiteSpace=wrap;html=1;fontSize=16;" vertex="1" parent="1">
          <mxGeometry x="1799.5" y="1198" width="117.08" height="20" as="geometry" />
        </mxCell>
        <mxCell id="eRDI14SPy6lEhacDje8o-146" value="" style="rounded=1;whiteSpace=wrap;html=1;fillColor=none;strokeColor=#6c8ebf;strokeWidth=5;fontSize=16;" vertex="1" parent="1">
          <mxGeometry x="1921.32" y="1108.51" width="133.87" height="114.75" as="geometry" />
        </mxCell>
        <mxCell id="eRDI14SPy6lEhacDje8o-147" value="&lt;span style=&quot;color: rgb(0, 0, 0); font-family: Helvetica; font-style: normal; font-variant-ligatures: normal; font-variant-caps: normal; letter-spacing: normal; orphans: 2; text-align: center; text-indent: 0px; text-transform: none; widows: 2; word-spacing: 0px; -webkit-text-stroke-width: 0px; white-space: normal; text-decoration-thickness: initial; text-decoration-style: initial; text-decoration-color: initial; float: none; display: inline !important;&quot;&gt;&lt;b&gt;controller&lt;/b&gt;&lt;/span&gt;" style="text;whiteSpace=wrap;html=1;fontSize=16;" vertex="1" parent="1">
          <mxGeometry x="1952.92" y="1196.14" width="117.08" height="20" as="geometry" />
        </mxCell>
        <mxCell id="eRDI14SPy6lEhacDje8o-139" value="" style="rounded=1;whiteSpace=wrap;html=1;fillColor=none;strokeColor=#6c8ebf;strokeWidth=5;fontSize=16;" vertex="1" parent="1">
          <mxGeometry x="1462.0899999999997" y="1108.51" width="137.75" height="114.75" as="geometry" />
        </mxCell>
        <mxCell id="eRDI14SPy6lEhacDje8o-167" value="" style="group" vertex="1" connectable="0" parent="1">
          <mxGeometry x="1480" y="1250" width="49.72000000000003" height="30" as="geometry" />
        </mxCell>
        <mxCell id="eRDI14SPy6lEhacDje8o-160" value="" style="rounded=0;whiteSpace=wrap;html=1;fillColor=#008118;container=0;" vertex="1" parent="eRDI14SPy6lEhacDje8o-167">
          <mxGeometry x="30.56768558951967" y="11.89285714285711" width="13.100436681222707" height="6.428571428571429" as="geometry" />
        </mxCell>
        <mxCell id="eRDI14SPy6lEhacDje8o-161" value="" style="ellipse;whiteSpace=wrap;html=1;aspect=fixed;fillColor=#008118;container=0;" vertex="1" parent="eRDI14SPy6lEhacDje8o-167">
          <mxGeometry x="40" y="10" width="9.72" height="9.72" as="geometry" />
        </mxCell>
        <mxCell id="eRDI14SPy6lEhacDje8o-162" value="" style="rounded=1;whiteSpace=wrap;html=1;fillColor=#008118;container=0;" vertex="1" parent="eRDI14SPy6lEhacDje8o-167">
          <mxGeometry width="34.93449781659389" height="30" as="geometry" />
        </mxCell>
        <mxCell id="eRDI14SPy6lEhacDje8o-163" value="" style="rounded=0;whiteSpace=wrap;html=1;strokeColor=none;fillColor=#008118;container=0;" vertex="1" parent="eRDI14SPy6lEhacDje8o-167">
          <mxGeometry x="31.87772925764193" y="12.10714285714289" width="4.366812227074236" height="6" as="geometry" />
        </mxCell>
        <mxCell id="eRDI14SPy6lEhacDje8o-164" value="" style="rounded=0;whiteSpace=wrap;html=1;strokeColor=none;fillColor=#008118;container=0;" vertex="1" parent="eRDI14SPy6lEhacDje8o-167">
          <mxGeometry x="36.24000000000001" y="12.1099999999999" width="8" height="6" as="geometry" />
        </mxCell>
        <mxCell id="eRDI14SPy6lEhacDje8o-191" value="" style="group" vertex="1" connectable="0" parent="1">
          <mxGeometry x="1530" y="1250" width="51" height="30" as="geometry" />
        </mxCell>
        <mxCell id="eRDI14SPy6lEhacDje8o-179" value="" style="rounded=0;whiteSpace=wrap;html=1;fillColor=#FFF009;container=0;" vertex="1" parent="eRDI14SPy6lEhacDje8o-191">
          <mxGeometry x="30.957805907172997" y="11.89285714285711" width="12.658227848101264" height="6.428571428571428" as="geometry" />
        </mxCell>
        <mxCell id="eRDI14SPy6lEhacDje8o-180" value="" style="rounded=1;whiteSpace=wrap;html=1;fillColor=#FFF009;container=0;" vertex="1" parent="eRDI14SPy6lEhacDje8o-191">
          <mxGeometry x="1.4219409282700326" width="33.75527426160337" height="30" as="geometry" />
        </mxCell>
        <mxCell id="eRDI14SPy6lEhacDje8o-181" value="" style="rounded=0;whiteSpace=wrap;html=1;strokeColor=none;fillColor=#FFF009;container=0;" vertex="1" parent="eRDI14SPy6lEhacDje8o-191">
          <mxGeometry x="32.223628691983095" y="12.10714285714289" width="4.219409282700421" height="6" as="geometry" />
        </mxCell>
        <mxCell id="eRDI14SPy6lEhacDje8o-183" value="" style="rounded=0;whiteSpace=wrap;html=1;fillColor=#FFFFFF;container=0;" vertex="1" parent="eRDI14SPy6lEhacDje8o-191">
          <mxGeometry x="1.4219409282700326" y="11.89285714285711" width="9.70464135021097" height="6.428571428571428" as="geometry" />
        </mxCell>
        <mxCell id="eRDI14SPy6lEhacDje8o-184" value="" style="ellipse;whiteSpace=wrap;html=1;aspect=fixed;fillColor=#FFFFFF;container=0;" vertex="1" parent="eRDI14SPy6lEhacDje8o-191">
          <mxGeometry x="6.910000000000082" y="9.75" width="10.25" height="10.25" as="geometry" />
        </mxCell>
        <mxCell id="eRDI14SPy6lEhacDje8o-185" value="" style="rounded=0;whiteSpace=wrap;html=1;strokeColor=none;fillColor=#FFFFFF;container=0;" vertex="1" parent="eRDI14SPy6lEhacDje8o-191">
          <mxGeometry x="1" y="12.10714285714289" width="2.9535864978902953" height="6" as="geometry" />
        </mxCell>
        <mxCell id="eRDI14SPy6lEhacDje8o-186" value="" style="rounded=0;whiteSpace=wrap;html=1;strokeColor=none;fillColor=#FFFFFF;container=0;" vertex="1" parent="eRDI14SPy6lEhacDje8o-191">
          <mxGeometry y="12.1099999999999" width="11" height="6" as="geometry" />
        </mxCell>
        <mxCell id="eRDI14SPy6lEhacDje8o-187" value="" style="rounded=0;whiteSpace=wrap;html=1;fillColor=#FFF009;container=0;" vertex="1" parent="eRDI14SPy6lEhacDje8o-191">
          <mxGeometry x="40.662447257383974" y="9.85714285714289" width="10.337552742616035" height="10.5" as="geometry" />
        </mxCell>
        <mxCell id="eRDI14SPy6lEhacDje8o-188" value="" style="rounded=0;whiteSpace=wrap;html=1;strokeColor=none;fillColor=#FFF009;container=0;" vertex="1" parent="eRDI14SPy6lEhacDje8o-191">
          <mxGeometry x="36.44303797468342" y="12.10714285714289" width="11.392405063291138" height="6" as="geometry" />
        </mxCell>
        <mxCell id="eRDI14SPy6lEhacDje8o-202" value="" style="group" vertex="1" connectable="0" parent="1">
          <mxGeometry x="1581" y="1250" width="52" height="30" as="geometry" />
        </mxCell>
        <mxCell id="eRDI14SPy6lEhacDje8o-192" value="" style="rounded=0;whiteSpace=wrap;html=1;fillColor=#FE8E07;container=0;" vertex="1" parent="eRDI14SPy6lEhacDje8o-202">
          <mxGeometry x="31.78723404255311" y="11.89285714285711" width="12.76595744680851" height="6.428571428571428" as="geometry" />
        </mxCell>
        <mxCell id="eRDI14SPy6lEhacDje8o-193" value="" style="rounded=1;whiteSpace=wrap;html=1;fillColor=#FE8E07;container=0;" vertex="1" parent="eRDI14SPy6lEhacDje8o-202">
          <mxGeometry x="2" width="34.04255319148936" height="30" as="geometry" />
        </mxCell>
        <mxCell id="eRDI14SPy6lEhacDje8o-194" value="" style="rounded=0;whiteSpace=wrap;html=1;strokeColor=none;fillColor=#FE8E07;container=0;" vertex="1" parent="eRDI14SPy6lEhacDje8o-202">
          <mxGeometry x="33.063829787234" y="12.10714285714289" width="4.25531914893617" height="6" as="geometry" />
        </mxCell>
        <mxCell id="eRDI14SPy6lEhacDje8o-196" value="" style="rounded=0;whiteSpace=wrap;html=1;fillColor=#FFFFFF;container=0;" vertex="1" parent="eRDI14SPy6lEhacDje8o-202">
          <mxGeometry x="2" y="11.03571428571422" width="8.51063829787234" height="6.428571428571428" as="geometry" />
        </mxCell>
        <mxCell id="eRDI14SPy6lEhacDje8o-197" value="" style="rounded=0;whiteSpace=wrap;html=1;fillColor=#FFFFFF;container=0;" vertex="1" parent="eRDI14SPy6lEhacDje8o-202">
          <mxGeometry x="7.531914893617113" y="9" width="10.425531914893616" height="10.5" as="geometry" />
        </mxCell>
        <mxCell id="eRDI14SPy6lEhacDje8o-198" value="" style="rounded=0;whiteSpace=wrap;html=1;strokeColor=none;fillColor=#FFFFFF;container=0;" vertex="1" parent="eRDI14SPy6lEhacDje8o-202">
          <mxGeometry x="1" y="11.25" width="8" height="6" as="geometry" />
        </mxCell>
        <mxCell id="eRDI14SPy6lEhacDje8o-199" value="" style="shape=xor;whiteSpace=wrap;html=1;flipH=1;fillColor=#FE8E07;container=0;" vertex="1" parent="eRDI14SPy6lEhacDje8o-202">
          <mxGeometry x="41.574468085106446" y="10.071428571428669" width="10.425531914893616" height="10.5" as="geometry" />
        </mxCell>
        <mxCell id="eRDI14SPy6lEhacDje8o-200" value="" style="rounded=0;whiteSpace=wrap;html=1;strokeColor=none;fillColor=#FE8E07;container=0;" vertex="1" parent="eRDI14SPy6lEhacDje8o-202">
          <mxGeometry x="37.31914893617022" y="12.10714285714289" width="11.48936170212766" height="6" as="geometry" />
        </mxCell>
        <mxCell id="eRDI14SPy6lEhacDje8o-211" value="" style="group" vertex="1" connectable="0" parent="1">
          <mxGeometry x="1634" y="1250" width="51" height="30" as="geometry" />
        </mxCell>
        <mxCell id="eRDI14SPy6lEhacDje8o-209" value="" style="group" vertex="1" connectable="0" parent="eRDI14SPy6lEhacDje8o-211">
          <mxGeometry x="1" width="50" height="30" as="geometry" />
        </mxCell>
        <mxCell id="eRDI14SPy6lEhacDje8o-203" value="" style="rounded=1;whiteSpace=wrap;html=1;fillColor=#E70005;" vertex="1" parent="eRDI14SPy6lEhacDje8o-209">
          <mxGeometry width="50" height="30" as="geometry" />
        </mxCell>
        <mxCell id="eRDI14SPy6lEhacDje8o-205" value="" style="rounded=0;whiteSpace=wrap;html=1;strokeColor=none;fillColor=#FFFFFF;" vertex="1" parent="eRDI14SPy6lEhacDje8o-209">
          <mxGeometry x="1.875" y="11.785714285714285" width="16.875" height="6" as="geometry" />
        </mxCell>
        <mxCell id="eRDI14SPy6lEhacDje8o-206" value="" style="rounded=0;whiteSpace=wrap;html=1;fillColor=#FFFFFF;" vertex="1" parent="eRDI14SPy6lEhacDje8o-209">
          <mxGeometry y="11.571428571428571" width="12.5" height="6.428571428571428" as="geometry" />
        </mxCell>
        <mxCell id="eRDI14SPy6lEhacDje8o-207" value="" style="shape=xor;whiteSpace=wrap;html=1;flipH=1;fillColor=#FFFFFF;" vertex="1" parent="eRDI14SPy6lEhacDje8o-209">
          <mxGeometry x="8.125" y="9.75" width="15.3125" height="10.5" as="geometry" />
        </mxCell>
        <mxCell id="eRDI14SPy6lEhacDje8o-210" value="" style="rounded=0;whiteSpace=wrap;html=1;fillColor=#FFFFFF;strokeColor=none;" vertex="1" parent="eRDI14SPy6lEhacDje8o-211">
          <mxGeometry y="12" width="12.5" height="5.5" as="geometry" />
        </mxCell>
      </root>
    </mxGraphModel>
  </diagram>
</mxfile>
